<svg xmlns="http://www.w3.org/2000/svg" viewBox="0 0 415 415"><defs><style>.cls-1{fill:#9a7d35;}.cls-2,.cls-3{fill:#fff;}.cls-3{fill-rule:evenodd;}</style></defs><g id="Layer_2" data-name="Layer 2"><g id="Calque_1" data-name="Calque 1"><circle class="cls-1" cx="207.5" cy="207.5" r="207.5"/><path class="cls-2" d="M98,139a21.1,21.1,0,0,1,9,2.3l1.3.6c.3,0,.6-.3.9-.8s.4-.7.7-.7.8.6.8,1.7v.4c.1,1.5.2,3.1.4,4.8a26.3,26.3,0,0,1,.4,2.8,1.4,1.4,0,0,1-.2.7l-.5.2c-.4,0-.8-.5-1.2-1.3a24.8,24.8,0,0,0-1.7-2.9,14.1,14.1,0,0,0-4.8-4.3,11.4,11.4,0,0,0-5.9-1.6,8.5,8.5,0,0,0-7,3.6,15,15,0,0,0-2.9,9.4,17.8,17.8,0,0,0,3.5,11.2c2.4,3.1,5.3,4.6,8.7,4.6a13.7,13.7,0,0,0,4.7-1,12.6,12.6,0,0,0,4.2-2.7l1.5-1.5c.5-.7,1-1.1,1.3-1.1l.5.2a.7.7,0,0,1,.1.5,3.3,3.3,0,0,1-.8,1.8,23.5,23.5,0,0,1-2.2,2.6,15.7,15.7,0,0,1-5.3,3.3,19.3,19.3,0,0,1-6.5,1.1,14.8,14.8,0,0,1-11.1-4.4c-2.8-2.9-4.2-6.7-4.2-11.5a18.3,18.3,0,0,1,4.6-12.8A15.1,15.1,0,0,1,98,139m6.6,3.2v.2a13.7,13.7,0,0,1,2.9,2.4,14.1,14.1,0,0,1,2.1,3.1h.3a6.6,6.6,0,0,0-1.3-3.6A8.3,8.3,0,0,0,104.6,142.2Zm-10,30.1v-.2a16.1,16.1,0,0,1-8.3-5.9,16.9,16.9,0,0,1-2.8-10A18.7,18.7,0,0,1,90,142.3v-.2a17,17,0,0,0-5.5,6.4,18.1,18.1,0,0,0-1.9,8.3c0,4.2,1,7.6,3.2,10.3A13.8,13.8,0,0,0,94.6,172.3ZM62,164.9l2.8,3,.2.3a.6.6,0,0,1,.1.4.9.9,0,0,1-.1.5c-.1.1-.1.3-.2.3l-3,3-.3.2h-.9l-.3-.3-2.9-2.9a.5.5,0,0,1-.2-.4.6.6,0,0,1-.1-.4.9.9,0,0,1,.1-.5l.2-.3,3-3h1.2Zm-2.4,3.9,1.8-2.8-.4-.5-2.6,2.8-.2.3h0v.4h.1l2.7,2.5.5-.4Zm-9.4-22v21.8a10.9,10.9,0,0,1-.7,4,15.6,15.6,0,0,1-2,3.8,15.3,15.3,0,0,1-3.3,3.4,5.9,5.9,0,0,1-3.2,1.1,4.2,4.2,0,0,1-2.6-.7,2.1,2.1,0,0,1-.9-1.8,13.9,13.9,0,0,1,.3-3.2q.5-1.2.9-1.2c.5,0,1.2.6,2.1,1.7s1.6,1.6,2,1.6,1.1-.4,1.4-1.2a15.2,15.2,0,0,0,.4-3.9V147.3a12.1,12.1,0,0,0-.3-3.3,4.2,4.2,0,0,0-1-1.7,4.5,4.5,0,0,0-2.4-.8c-1.1-.1-1.6-.5-1.6-1a.8.8,0,0,1,.3-.7,1.2,1.2,0,0,1,.9-.3l2.1.2,4.1.2,5.1-.3h.8l.5.2a.8.8,0,0,1,.2.7c0,.4-.3.7-.8,1a4.8,4.8,0,0,0-1.3.9,4.7,4.7,0,0,0-.8,1.4A18.5,18.5,0,0,0,50.2,146.8Zm-6.8-5.6v.2a4,4,0,0,1,1.7,1.7,6.9,6.9,0,0,1,.5,2.9v23c0,1.6-.1,2.8-.1,3.6l-.3,2.4h.3a14.3,14.3,0,0,0,.8-2.2,13.7,13.7,0,0,0,.2-3.1V146.3a6.8,6.8,0,0,0-.7-3.5A3.4,3.4,0,0,0,43.4,141.2Zm-4.3,34c-.2,0-.4.4-.5,1.1a16.9,16.9,0,0,0-.2,2.5c0,.2.1.3.2.5h.3c.3,0,.5-.2.6-.8a8.3,8.3,0,0,0,.2-2.5,1.4,1.4,0,0,0-.2-.6Z"/><path class="cls-2" d="M130,150.5a10.8,10.8,0,0,1,11.2,11,11.3,11.3,0,0,1-3.3,8.3,11.8,11.8,0,0,1-8.6,3.2,10.8,10.8,0,0,1-11.1-11,11.2,11.2,0,0,1,3.4-8.2,11.4,11.4,0,0,1,8.4-3.3m7.3,12.7a13.6,13.6,0,0,0-2.3-8.1,6.8,6.8,0,0,0-5.7-3.2,6.5,6.5,0,0,0-5.2,2.3,9.3,9.3,0,0,0-1.9,6.3,13.1,13.1,0,0,0,2.2,8,6.5,6.5,0,0,0,5.7,3.1,6.7,6.7,0,0,0,5.3-2.2A9.2,9.2,0,0,0,137.3,163.2Zm-5.8-11.4a8.4,8.4,0,0,1,4.6,4,14.7,14.7,0,0,1,1.7,7.2,13.2,13.2,0,0,1-.8,4.7,8.6,8.6,0,0,1-2.7,3.3h.1a7.1,7.1,0,0,0,3.2-3.4,13.6,13.6,0,0,0-.8-12.3,9.5,9.5,0,0,0-5.2-3.8Zm-5.1,20.5h.1a14.3,14.3,0,0,1-5.2-4.4,11.4,11.4,0,0,1-1.7-6.1,11.9,11.9,0,0,1,.9-4.7,10.1,10.1,0,0,1,2.5-3.6v-.2a10.8,10.8,0,0,0-3,4,11.7,11.7,0,0,0-1.1,4.9,10.4,10.4,0,0,0,7.6,10.2Z"/><path class="cls-2" d="M219.1,152H219a2,2,0,0,1,1.1,1.1,3.4,3.4,0,0,1,.4,1.9v12a8.2,8.2,0,0,1-.3,2.7,4.6,4.6,0,0,1-.9,1.5h0a2.3,2.3,0,0,0,1.4-1.3,7.6,7.6,0,0,0,.4-3.1V155.3a4.3,4.3,0,0,0-.4-2.2,2.4,2.4,0,0,0-1.6-1.1m4.4,3.7v12.6a2,2,0,0,0,2.5,2.6,7.9,7.9,0,0,0,3-.5,6.7,6.7,0,0,0,2.4-1.2,5.3,5.3,0,0,0,1.2-1.4c.3-.6.6-.8.8-.8h.3a.9.9,0,0,1,.1.5,6.1,6.1,0,0,1-.3,1.6,8.7,8.7,0,0,1-.9,1.7,3.6,3.6,0,0,1-1.6,1.4,8,8,0,0,1-2.4.4H226l-3.2-.2-3.2.2h-1.7l-.5-.2c-.2-.1-.2-.2-.2-.4s.2-.6.7-.8.6-.3.7-.5a1.7,1.7,0,0,0,1-1,4.2,4.2,0,0,0,.3-1.8V156a9.1,9.1,0,0,0-.2-2.1,3.5,3.5,0,0,0-.7-1.2,3,3,0,0,0-1.6-.5c-.7-.1-1-.3-1-.7a.7.7,0,0,1,.1-.5h4.6l3.8-.2h1a.8.8,0,0,1,.2.5c0,.3-.3.5-.7.6l-1,.6-.7.9A9.1,9.1,0,0,0,223.5,155.7Zm4.1,15.7h1.2a4,4,0,0,0,2.4-.7,3.5,3.5,0,0,0,1.4-2h0a7.8,7.8,0,0,1-2.1,1.6A8.3,8.3,0,0,1,227.6,171.4Z"/><path class="cls-2" d="M236.7,152h-.1a2,2,0,0,1,1.1,1.1,4.5,4.5,0,0,1,.4,1.9v12a8.2,8.2,0,0,1-.3,2.7,4.6,4.6,0,0,1-.9,1.5h0a2.6,2.6,0,0,0,1.4-1.3,7.6,7.6,0,0,0,.4-3.1V155.3a4.2,4.2,0,0,0-.5-2.2,2.2,2.2,0,0,0-1.5-1.1m4.4,3.7v12.6a3.3,3.3,0,0,0,.5,2.2,3.2,3.2,0,0,0,1.9.4,8.1,8.1,0,0,0,3.1-.5,6.7,6.7,0,0,0,2.4-1.2,4.9,4.9,0,0,0,1.1-1.4c.4-.6.6-.8.8-.8h.3c.1.2.2.3.2.5a4.1,4.1,0,0,1-.4,1.6,5.4,5.4,0,0,1-.8,1.7,4.3,4.3,0,0,1-1.6,1.4,8.7,8.7,0,0,1-2.5.4h-2.5l-3.2-.2-3.2.2h-1.7l-.6-.2c-.1-.1-.1-.2-.1-.4s.2-.6.7-.8l.7-.5a1.8,1.8,0,0,0,.9-1,4.2,4.2,0,0,0,.3-1.8V156a5.6,5.6,0,0,0-.2-2.1,2.3,2.3,0,0,0-.6-1.2,3.4,3.4,0,0,0-1.6-.5c-.7-.1-1.1-.3-1.1-.7a.8.8,0,0,1,.2-.5h4.6l3.8-.2h1a.7.7,0,0,1,.1.5q0,.5-.6.6l-1,.6a1.8,1.8,0,0,0-.7.9A9.1,9.1,0,0,0,241.1,155.7Zm4.1,15.7h1.1a3.7,3.7,0,0,0,3.9-2.7h0a8.2,8.2,0,0,1-2.2,1.6A7.7,7.7,0,0,1,245.2,171.4Z"/><path class="cls-2" d="M202.4,150.5a10.8,10.8,0,0,1,11.2,11,11,11,0,0,1-3.4,8.3,11.4,11.4,0,0,1-8.5,3.2,10.8,10.8,0,0,1-11.1-11,11.2,11.2,0,0,1,3.4-8.2,11.4,11.4,0,0,1,8.4-3.3m7.3,12.7a13.6,13.6,0,0,0-2.3-8.1,6.8,6.8,0,0,0-5.7-3.2,6.4,6.4,0,0,0-5.2,2.3,9.3,9.3,0,0,0-1.9,6.3,13.8,13.8,0,0,0,2.1,8,6.8,6.8,0,0,0,5.8,3.1,6.7,6.7,0,0,0,5.3-2.2A9.8,9.8,0,0,0,209.7,163.2Zm-5.8-11.4a8.4,8.4,0,0,1,4.6,4,14.7,14.7,0,0,1,1.7,7.2,13.2,13.2,0,0,1-.8,4.7,8.6,8.6,0,0,1-2.7,3.3h.1a6.5,6.5,0,0,0,3.1-3.4,11.3,11.3,0,0,0,1.2-5.4,12.7,12.7,0,0,0-1.9-6.9,9.5,9.5,0,0,0-5.2-3.8Zm-5.1,20.5h.1a13.5,13.5,0,0,1-5.2-4.4,11.4,11.4,0,0,1-1.7-6.1,11.9,11.9,0,0,1,.9-4.7,10.1,10.1,0,0,1,2.5-3.6v-.2a10.8,10.8,0,0,0-3,4,11.7,11.7,0,0,0-1.1,4.9,10.4,10.4,0,0,0,7.6,10.2Z"/><path class="cls-2" d="M163,156.1l-.2,15.6a2.2,2.2,0,0,1-.1.9c0,.2-.1.4-.3.4s-.8-.4-1.4-1.1l-.3-.4-12.6-14.9-.4-.4-.4-.2c-.1,0-.2.1-.2.3a2.5,2.5,0,0,0-.1,1v7.2a39.5,39.5,0,0,0,.2,4.5,3.4,3.4,0,0,0,.8,1.7,2.7,2.7,0,0,0,1.6.6c.8.2,1.1.4,1.1.8a.7.7,0,0,1-.1.5h-1.8l-2.1-.2-2.2.2h-1.3l-.4-.2c-.1-.1-.1-.3-.1-.6s.2-.3.8-.6a3,3,0,0,0,1.2-1.3,14.1,14.1,0,0,0,.6-2.7,27.3,27.3,0,0,0,.3-4.1v-6.5a14.4,14.4,0,0,0-.2-2.4,3.4,3.4,0,0,0-.8-1.6,2.6,2.6,0,0,0-1.4-.6c-.7,0-1-.2-1-.6a.8.8,0,0,1,.2-.5h4.9c.6,0,1.1.3,1.8,1.1v.2l10.6,12.7.7.7.5.3c.2,0,.3-.1.3-.4a3.1,3.1,0,0,0,.1-1.1v-7.8a8.7,8.7,0,0,0-.2-2.6,2.5,2.5,0,0,0-.9-1.3,4.9,4.9,0,0,0-1.7-.6c-.7-.1-1.1-.3-1.1-.7l.2-.4h7.8c.1.1.1.2.1.4s-.2.5-.6.7l-.9.6a1.6,1.6,0,0,0-.8,1,6.2,6.2,0,0,0-.3,2.4m-17.2,11.7h-.1a7.2,7.2,0,0,1-.5,2.4,3.4,3.4,0,0,1-.9,1.4h.1a2.4,2.4,0,0,0,1.3-.8,3.4,3.4,0,0,0,.4-1.6,4.3,4.3,0,0,1-.1-.5A5.8,5.8,0,0,0,145.8,167.8Zm-.9-15.7h0l1.1.9.7.7,14.4,17.1.2.2h.2c.1,0,.1-.1.1-.3a.6.6,0,0,0-.1-.4.5.5,0,0,0-.3-.5l-12.8-15.2a9.7,9.7,0,0,0-1.9-1.8A4.8,4.8,0,0,0,144.9,152.1Zm15.3-.2h0a1.9,1.9,0,0,1,1,.8,9.8,9.8,0,0,1,.7,1.7h.1c0-.1.1-.2.1-.3v-.5c0-.6-.1-1.1-.4-1.3A2.1,2.1,0,0,0,160.2,151.9Z"/><path class="cls-2" d="M187.5,156.1l-.2,15.6a2.2,2.2,0,0,1-.1.9c-.1.2-.2.4-.3.4s-.8-.4-1.4-1.1l-.3-.4-12.6-14.9-.5-.4c-.1-.2-.2-.2-.3-.2s-.2.1-.3.3-.1.5-.1,1v7.2a22,22,0,0,0,.3,4.5,3.4,3.4,0,0,0,.7,1.7,3,3,0,0,0,1.6.6c.8.2,1.2.4,1.2.8a4.3,4.3,0,0,1-.1.5h-1.9l-2-.2-2.3.2h-1.2l-.4-.2a.8.8,0,0,1-.2-.6l.8-.6a2.2,2.2,0,0,0,1.2-1.3,8.4,8.4,0,0,0,.7-2.7c.1-1.3.2-2.7.2-4.1v-6.5a8.2,8.2,0,0,0-.2-2.4,2.2,2.2,0,0,0-2.2-2.2q-.9,0-.9-.6a.7.7,0,0,1,.1-.5h5a2.3,2.3,0,0,1,1.7,1.1l.2.2,10.6,12.7.7.7.5.3c.1,0,.2-.1.3-.4a3.1,3.1,0,0,0,.1-1.1v-7.8a7.9,7.9,0,0,0-.3-2.6,2.1,2.1,0,0,0-.9-1.3,3.8,3.8,0,0,0-1.7-.6c-.7-.1-1-.3-1-.7l.2-.4H190c0,.1.1.2.1.4s-.2.5-.6.7l-1,.6a2.7,2.7,0,0,0-.8,1,11,11,0,0,0-.2,2.4m-17.2,11.7h-.1a11.1,11.1,0,0,1-.5,2.4,3.4,3.4,0,0,1-.9,1.4h0a2.4,2.4,0,0,0,1.3-.8,2.5,2.5,0,0,0,.4-1.6v-.5A8.7,8.7,0,0,1,170.3,167.8Zm-1-15.7h0l1.1.9.7.7,14.4,17.1.2.2h.3v-.7l-.3-.5-12.9-15.2a7.5,7.5,0,0,0-1.8-1.8A5.3,5.3,0,0,0,169.3,152.1Zm15.4-.2h-.1a1.9,1.9,0,0,1,1,.8,5.4,5.4,0,0,1,.7,1.7h.2v-.3a1.2,1.2,0,0,1,.1-.5,1.6,1.6,0,0,0-.5-1.3A1.8,1.8,0,0,0,184.7,151.9Z"/><path class="cls-2" d="M267.6,154.1l-4.5,8.2a1.4,1.4,0,0,0-.2.6,1.9,1.9,0,0,0-.1.8v3.7a11,11,0,0,0,.2,2.4,3.1,3.1,0,0,0,.8,1.1l1.5.4c.8.1,1.1.3,1.1.7s0,.4-.2.5l-.5.2H264l-2.6-.2-2.9.2h-2.1l-.6-.2c-.2-.1-.2-.2-.2-.4s.3-.6.9-.8a2.8,2.8,0,0,0,1.3-.4,1.9,1.9,0,0,0,1-1,5.4,5.4,0,0,0,.3-2.2v-3.5a3.7,3.7,0,0,0-.4-1.4.1.1,0,0,0-.1-.1l-4.4-8.2a5,5,0,0,0-1-1.4,2.8,2.8,0,0,0-1-.9h-.7c-.6-.2-.8-.4-.8-.7s0-.3.1-.4h1.1l3.5.2,3-.2h1.1c.1,0,.1.2.1.4s-.3.4-.8.6-.9.6-.9,1a1.3,1.3,0,0,0,.1.6l.3.7,3.5,6.6v.2h.4l.2-.3,2.9-5.4v-.2a2.6,2.6,0,0,0,.5-1.4,2,2,0,0,0-.3-1.1,1.9,1.9,0,0,0-1-.5l-.8-.2c-.6,0-.8-.3-.8-.6s0-.3.1-.4h1.1l2.7.2h3.3c.1.1.1.2.1.4a.7.7,0,0,1-.5.6l-.4.2-1,.6a4.8,4.8,0,0,0-.9,1.3m-14.2-2h-.1l.8.8.5.7,4.4,8.4a6.7,6.7,0,0,1,.7,1.8,13.8,13.8,0,0,1,.2,2.5v1.3a5.7,5.7,0,0,1-.3,2.2,1.8,1.8,0,0,1-.8,1.1h.1a2.4,2.4,0,0,0,1.4-1,9.6,9.6,0,0,0,.3-3v-.7a9.5,9.5,0,0,0-1.1-5l-.2-.4-3.8-7.1a3.1,3.1,0,0,0-.9-1.1A4.7,4.7,0,0,0,253.4,152.1Zm12.2-.2h-.1a1.5,1.5,0,0,1,.9.6,1.2,1.2,0,0,1,.3.9,4.3,4.3,0,0,0-.1.5,1.9,1.9,0,0,1-.2.7h.1a2.4,2.4,0,0,0,.6-.9,3.1,3.1,0,0,0,.2-.8,1,1,0,0,0-.4-.9A2.5,2.5,0,0,0,265.6,151.9Z"/><path class="cls-2" d="M273.5,159.6l-1.1-6.9v-.6a2.1,2.1,0,0,1,.3-1.2,1.4,1.4,0,0,1,1.1-.4,1.2,1.2,0,0,1,1,.4,1.6,1.6,0,0,1,.4,1.2v.6l-1.1,6.9Z"/><path class="cls-2" d="M278.9,170.8l-1-4.5a.4.4,0,0,1-.1-.3v-.2c0-.3,0-.5.1-.6l.5-.2c.2,0,.4.4.7,1.1a9.8,9.8,0,0,0,.8,1.8,9.1,9.1,0,0,0,2.4,2.7,4.9,4.9,0,0,0,2.8.9,4,4,0,0,0,3-1.1,3.7,3.7,0,0,0,1.2-2.9c0-1.6-1.6-3-4.9-4.4h-.1q-4.1-1.6-5.1-3a5.6,5.6,0,0,1-1-3.5,5.8,5.8,0,0,1,6-6,7.1,7.1,0,0,1,2.8.6,6,6,0,0,0,1.8.5,1.1,1.1,0,0,0,.8-.2l.6-.2.4.2a.7.7,0,0,1,.1.5v.5a1.3,1.3,0,0,0-.1.6c0,.5.1,1.2.2,2.1a9.9,9.9,0,0,1,.3,1.9.8.8,0,0,1-.2.5h-.3c-.3,0-.6-.3-.7-1a6.6,6.6,0,0,0-.9-1.9,6,6,0,0,0-2.1-2.1,5.5,5.5,0,0,0-2.8-.7,4.1,4.1,0,0,0-2.5.8,2.9,2.9,0,0,0-.9,2.2,2.7,2.7,0,0,0,.9,2.1,12.3,12.3,0,0,0,3.4,1.9l.8.3a10.1,10.1,0,0,1,4,2.1,4.8,4.8,0,0,1,1.4,2,8.1,8.1,0,0,1,.5,2.7,6.4,6.4,0,0,1-7,6.9,7.7,7.7,0,0,1-2.6-.5l-2.2-.5a1.2,1.2,0,0,1-1-.9v-.2m-.7-4.8,1,4.3c.1.3.1.4.3.5l.4.2h.2l-1.6-4.8h0l-.2-.2h-.1v.4Zm8.3-14.3h0a7,7,0,0,1,1.9,1.3,18.9,18.9,0,0,1,1.4,1.9h.2a3.4,3.4,0,0,0-3.5-3.3Zm-6.7,1.4h-.1a10.3,10.3,0,0,0-.7,1.7,5,5,0,0,0-.3,1.6,4.8,4.8,0,0,0,1.2,3.3,11.2,11.2,0,0,0,4.1,2.5l.3.2c3.8,1.6,5.7,3.4,5.7,5.2v1h.1a2.9,2.9,0,0,0,.2-.9,1.5,1.5,0,0,0,.1-.7,3.5,3.5,0,0,0-1-2.6,9.8,9.8,0,0,0-3.2-2.1l-1.1-.5c-3.9-1.7-5.9-3.7-5.9-6.1a3,3,0,0,1,.2-1.3A9.3,9.3,0,0,1,279.8,153.1Z"/><path class="cls-2" d="M315,152a1.9,1.9,0,0,0,.9,1.9,11.7,11.7,0,0,0,4.3.5c1.9,0,3.3-.4,4.1-1.2s1.2-2,1.2-3.8a6.9,6.9,0,0,0-2.1-5.3,7.2,7.2,0,0,0-5.3-2,3,3,0,0,0-2.4.9,5.7,5.7,0,0,0-.7,3.3Zm10.6,2.6a7.3,7.3,0,0,1,5.4,2.5,8,8,0,0,1,2.1,5.7,9.3,9.3,0,0,1-.9,4,9.8,9.8,0,0,1-2.3,3.3,10.2,10.2,0,0,1-3.7,2,20.2,20.2,0,0,1-5.6.6l-5-.2-3-.2-3.6.2-2.2.2-.9-.2a1.4,1.4,0,0,1-.2-.7c0-.5.4-.9,1.1-1.2l1-.5a4.3,4.3,0,0,0,1.4-1.6,7,7,0,0,0,.4-2.7V147.9a11.2,11.2,0,0,0-.3-3.2,5.1,5.1,0,0,0-.9-1.6,6,6,0,0,0-2.4-.9c-1.1-.1-1.6-.5-1.6-1a.8.8,0,0,1,.3-.7,1.2,1.2,0,0,1,.9-.3h.7l4.9.3,4.5-.2,4.7-.2a11.8,11.8,0,0,1,7.6,2.2,6.9,6.9,0,0,1,2.8,5.7,6,6,0,0,1-1.3,4A7.6,7.6,0,0,1,325.6,154.6ZM315,165.7c0,2,.4,3.3,1.1,4s2,.9,3.9.9a7,7,0,0,0,5.3-1.9,6.5,6.5,0,0,0,2-5,6.8,6.8,0,0,0-2.3-5.4,9.9,9.9,0,0,0-6.5-2,5.2,5.2,0,0,0-2.8.5,4.1,4.1,0,0,0-.7,2.8Zm-6.5-23.8a3.4,3.4,0,0,1,1.5,1.8,7.6,7.6,0,0,1,.5,2.9v17.8a16.8,16.8,0,0,1-.4,4,5.9,5.9,0,0,1-1.4,2.2,2.8,2.8,0,0,0,2.1-1.7,12.3,12.3,0,0,0,.6-4.6V146.9a6.4,6.4,0,0,0-.7-3.4A3.4,3.4,0,0,0,308.5,141.9Zm13.6-.2-.2.3a7.7,7.7,0,0,1,3.4,3,8.5,8.5,0,0,1,1.2,4.6,4.8,4.8,0,0,1-.3,1.8,3.7,3.7,0,0,1-.8,1.5h.2a5.6,5.6,0,0,0,1.4-2,7,7,0,0,0,.5-2.5,6.4,6.4,0,0,0-1.5-4.3A6.8,6.8,0,0,0,322.1,141.7Zm1.9,14.8v.2a6.8,6.8,0,0,1,3.1,2.7,7.3,7.3,0,0,1,1.2,4.1,8.4,8.4,0,0,1-.9,4,7.8,7.8,0,0,1-2.8,2.9l.2.2a7.9,7.9,0,0,0,3.5-3,8.4,8.4,0,0,0,1.3-4.4,6.4,6.4,0,0,0-1.5-4.3A8.8,8.8,0,0,0,324,156.5Z"/><path class="cls-2" d="M345.1,150.9l7.8,18.3a4.3,4.3,0,0,0,.8,1.4l1,.5.5.2c.5.2.7.4.7.8a1,1,0,0,1-.1.4h-4.6l-3.8.2h-.7a.7.7,0,0,1-.1-.5c0-.2.4-.4,1.1-.8a1.7,1.7,0,0,0,1.1-1.6,1.3,1.3,0,0,0-.1-.6,1.4,1.4,0,0,0-.2-.7l-.9-2.1a2.1,2.1,0,0,0-.6-1,3,3,0,0,0-1.6-.3h-4.2a3.6,3.6,0,0,0-1.8.3,2.9,2.9,0,0,0-.6,1l-.8,2.4-.2.5a1.1,1.1,0,0,0-.1.5,1.4,1.4,0,0,0,.5,1.1,4.8,4.8,0,0,0,1.6.7h.2c.7.1,1,.4,1,.7s0,.3-.1.4h-7.7c-.1-.1-.1-.2-.1-.4a.7.7,0,0,1,.6-.7l.6-.3a2,2,0,0,0,.9-.9,9,9,0,0,0,1-2l7.8-17.4h0a.5.5,0,0,1,.5-.4h.3l.3.4m-1.3,5.9-.3-.4h-.4l-.3.3-2.3,5.4c0,.2-.1.3-.1.5a.4.4,0,0,0-.1.3c0,.2.1.3.3.4H346l.2-.3v-.4a1.4,1.4,0,0,1-.2-.6Zm-7.1,11.7a17.8,17.8,0,0,1-1.1,2.1l-1.1,1.1h.1a2.2,2.2,0,0,0,1.6-.9,3.1,3.1,0,0,0,.6-2.1v-.3Zm12,2.7h.1a2.4,2.4,0,0,0,.9-.8,2,2,0,0,0,.3-1.1c0-.3-.1-.6-.1-1l-.3-.9-5.1-12.1-.2-.4h-.5c0,.1-.1.2-.1.4l.3.6c0,.1,0,.2.1.2l4.9,11.7.3,1a2.5,2.5,0,0,1,.1.8,2,2,0,0,1-.2.9A1.2,1.2,0,0,1,348.7,171.2Z"/><path class="cls-2" d="M363.3,159.5a1.4,1.4,0,0,0,.5,1.3,6.9,6.9,0,0,0,2,.2,5.1,5.1,0,0,0,3.4-.9,3.3,3.3,0,0,0,1-2.8,5.2,5.2,0,0,0-1.3-3.8,5,5,0,0,0-3.7-1.4,2.1,2.1,0,0,0-1.5.5,4,4,0,0,0-.4,2Zm6.7,2.1.5.4a5.6,5.6,0,0,1,.5.8l3.1,5.8a10.2,10.2,0,0,0,1.1,1.6,1.9,1.9,0,0,0,1.2.4h1.1a.4.4,0,0,1,.1.3c0,.4-.4.8-1.1,1.1a4.3,4.3,0,0,1-2.2.6,3.1,3.1,0,0,1-2.5-1.3,16,16,0,0,1-2.7-4.3l-.3-.6a15.8,15.8,0,0,0-2-3.6,2,2,0,0,0-.8-.4h-1.5c-.5,0-.8,0-1,.2s-.2.4-.2.8v4.5a5.3,5.3,0,0,0,.3,2,1.9,1.9,0,0,0,1,1l.8.4c.6.1.9.4.9.7a.6.6,0,0,1-.2.5l-.6.2h-1.3l-2.4-.2-2.6.2h-1.6l-.5-.2a.5.5,0,0,1-.2-.4c0-.3.3-.6.8-.8l.6-.4a2,2,0,0,0,.9-1.1,4.2,4.2,0,0,0,.3-1.8V156a12.2,12.2,0,0,0-.1-2.2l-.6-1a2.6,2.6,0,0,0-1.5-.6c-.6-.1-1-.3-1-.7a.8.8,0,0,1,.2-.5h1.2l3.4.2h5.7a8.4,8.4,0,0,1,5.3,1.5,5.5,5.5,0,0,1,.9,7.3A7.4,7.4,0,0,1,370,161.6ZM358.8,152a2.9,2.9,0,0,1,1,1.2,5,5,0,0,1,.3,1.9v12a8.2,8.2,0,0,1-.3,2.7,3.1,3.1,0,0,1-.8,1.5,2.4,2.4,0,0,0,1.4-1.2,10,10,0,0,0,.4-3.1V155.3a4.2,4.2,0,0,0-.5-2.2A2.2,2.2,0,0,0,358.8,152Zm9.2.1a5.9,5.9,0,0,1,2,2.2,5,5,0,0,1,.7,2.7,5.4,5.4,0,0,1-.3,1.9,2.9,2.9,0,0,1-.8,1.4h.1a3.7,3.7,0,0,0,1.3-1.5,5.1,5.1,0,0,0,.4-2.2,4.8,4.8,0,0,0-.9-2.9A4.5,4.5,0,0,0,368,152.1Zm-.8,10.1v.2l.5.5.4.8,2.4,4.7a11.7,11.7,0,0,0,1.7,2.6,5,5,0,0,0,1.9,1.2V172a3.6,3.6,0,0,1-1.4-1.2,19.7,19.7,0,0,1-1.6-2.6l-2.7-5.3a1.5,1.5,0,0,0-.4-.6l-.6-.2h-.2Z"/><path class="cls-2" d="M243.6,190.1v8.3l-.2.2-.7-.5v-.2l-6.4-7.5a.2.2,0,0,0-.2-.2h-.3v4.1a12.3,12.3,0,0,0,.1,2.3,1.9,1.9,0,0,0,.4.9l.8.3c.4,0,.6.2.6.3a.4.4,0,0,1-.1.3h-3.9a.4.4,0,0,1-.1-.3l.4-.3a1.3,1.3,0,0,0,.6-.7,6.3,6.3,0,0,0,.3-1.3,14.9,14.9,0,0,0,.2-2.1v-3.3c0-.5-.1-.8-.1-1.2a2,2,0,0,0-.4-.8l-.7-.3c-.3,0-.5-.1-.5-.2s0-.3.1-.3h2.5c.2,0,.5.2.8.6h.1l5.3,6.3.4.4.2.2.2-.2v-4.5a4.2,4.2,0,0,0-.1-1.3,1.2,1.2,0,0,0-.5-.7l-.8-.3c-.3,0-.5-.1-.5-.3s0-.2.1-.2h3.9v.2l-.3.3-.4.3c-.2.2-.4.3-.4.5a2.9,2.9,0,0,0-.2,1.2M235,196h0a10.4,10.4,0,0,1-.3,1.2,1.8,1.8,0,0,1-.5.7h.1a.9.9,0,0,0,.6-.4,1.1,1.1,0,0,0,.2-.8v-.3A4.3,4.3,0,0,1,235,196Zm-.5-7.9h0l.6.4.3.4,7.2,8.6h.3v-.4l-.2-.3-6.4-7.6-.9-.9Zm7.7-.1h0a1,1,0,0,1,.5.4l.4.9h0c0-.1,0-.2.1-.2v-.3a.8.8,0,0,0-.2-.6C242.8,188.1,242.6,188.1,242.2,188Zm-13.2.1h0l.6.6a2.5,2.5,0,0,1,.1,1v6a4.5,4.5,0,0,1-.1,1.3,1.8,1.8,0,0,1-.5.7h.1a.9.9,0,0,0,.6-.6,3.2,3.2,0,0,0,.2-1.6v-5.8a2.2,2.2,0,0,0-.2-1.2A1.2,1.2,0,0,0,229,188.1Zm2.3,1.8v6.2a1.5,1.5,0,0,0,.2,1c.1.3.3.4.6.5h.5c.3.1.5.2.5.4a.4.4,0,0,1-.1.3h-4.8a.4.4,0,0,1-.1-.3l.5-.4h.3a1,1,0,0,0,.4-.5,3.1,3.1,0,0,0,.1-1v-6a3.5,3.5,0,0,0-.1-1.2c0-.2-.1-.3-.3-.4a1,1,0,0,0-.8-.3c-.4-.1-.5-.2-.5-.4s0-.1.1-.2h4.7v.2a.3.3,0,0,1-.3.3.9.9,0,0,0-.6.4.5.5,0,0,0-.2.4A3.1,3.1,0,0,0,231.3,189.9Zm-10.9,2a.6.6,0,0,0,.3.6h1a2.7,2.7,0,0,0,1.7-.4,2,2,0,0,0,.5-1.4,2.7,2.7,0,0,0-.7-2,2.5,2.5,0,0,0-1.8-.7,1,1,0,0,0-.8.3,1.9,1.9,0,0,0-.2,1Zm3.4,1,.2.2.3.4,1.6,2.9.5.8a.7.7,0,0,0,.6.2h.5v.2c0,.2-.2.4-.5.6a2.7,2.7,0,0,1-1.2.3,1.5,1.5,0,0,1-1.2-.7,8.3,8.3,0,0,1-1.4-2.1v-.3a20.8,20.8,0,0,0-1-1.9l-.4-.2h-1.3c-.1.1-.1.2-.1.4v2.3a3,3,0,0,0,.2,1,1.2,1.2,0,0,0,.5.5h.4c.3.1.4.2.4.4a.4.4,0,0,1-.1.3h-4.5c-.1-.1-.1-.1-.1-.2s.1-.3.4-.5h.3c.2-.2.4-.3.5-.6a2.2,2.2,0,0,0,.1-.9v-6a3.1,3.1,0,0,0-.1-1.1.5.5,0,0,0-.3-.5c-.1-.2-.3-.3-.7-.3s-.5-.2-.5-.4.1-.1.1-.2h5.2a4,4,0,0,1,2.6.8,2.4,2.4,0,0,1,1,2.1,2.5,2.5,0,0,1-.5,1.5A4,4,0,0,1,223.8,192.9Zm-5.7-4.8a.9.9,0,0,1,.6.6,2.8,2.8,0,0,1,.1,1v6a4.5,4.5,0,0,1-.1,1.3,1.2,1.2,0,0,1-.5.7.9.9,0,0,0,.8-.5,5.1,5.1,0,0,0,.2-1.6v-5.8a2.1,2.1,0,0,0-.3-1.2A1.2,1.2,0,0,0,218.1,188.1Zm4.7,0a5,5,0,0,1,1,1.1,3.2,3.2,0,0,1,.3,1.4,2.2,2.2,0,0,1-.1.9,1.6,1.6,0,0,1-.4.7h0a1.9,1.9,0,0,0,.7-.8,3,3,0,0,0,.2-1,2.4,2.4,0,0,0-.4-1.5A3.8,3.8,0,0,0,222.8,188.1Zm-.4,5.1h-.1l.3.2.2.5,1.2,2.3a4.8,4.8,0,0,0,.9,1.3,1.8,1.8,0,0,0,.9.6h0l-.7-.6-.8-1.3-1.3-2.6c-.1-.2-.2-.3-.2-.4h-.4Zm-13.8,2.3a2.6,2.6,0,0,0,.4,1.8c.2.3.7.4,1.3.4a3.8,3.8,0,0,0,3-1.2,4.8,4.8,0,0,0,1.1-3.4,5.1,5.1,0,0,0-1.2-3.5,3.7,3.7,0,0,0-3.1-1.4,1.7,1.7,0,0,0-1.2.3c-.2.1-.3.5-.3,1.1Zm-1.9.8v-6.4a2.5,2.5,0,0,0-.1-1,1.2,1.2,0,0,0-.5-.5l-.7-.2-.4-.3v-.3h5.1a7,7,0,0,1,4.6,1.3,4.6,4.6,0,0,1,1.6,3.7,5.4,5.4,0,0,1-1.8,4.2,5.9,5.9,0,0,1-4.4,1.8h-4.7c-.1-.1-.1-.1-.1-.2s.2-.3.5-.4l.2-.2a.8.8,0,0,0,.5-.5A1.9,1.9,0,0,0,206.7,196.3Zm4.9-8.3h0a4.4,4.4,0,0,1,2.3,1.8,6.6,6.6,0,0,1,.8,3.2,6,6,0,0,1-.5,2.4,3.7,3.7,0,0,1-1.3,1.7h0a5.5,5.5,0,0,0,1.7-1.7,7.1,7.1,0,0,0,.5-2.6,5.4,5.4,0,0,0-1-3.3A3.7,3.7,0,0,0,211.6,188Zm-5.3.2h0c.3.2.5.3.6.6a2.2,2.2,0,0,1,.1.9v6.2a3.1,3.1,0,0,1-.1,1.1,3,3,0,0,1-.4.8h0c.3-.1.5-.4.7-.6a6.2,6.2,0,0,0,.1-1.6v-5.8c0-.5,0-.9-.2-1.1S206.7,188.3,206.3,188.2Zm-3,1.9V198c0,.2,0,.3-.1.4s0,.2-.1.2-.4-.2-.7-.5l-.2-.2-6.3-7.5-.2-.2h-.3c0,.2-.1.3-.1.5v3.6a9.9,9.9,0,0,0,.2,2.3,1.3,1.3,0,0,0,.4.9l.7.3c.4,0,.6.2.6.3v.3h-4v-.3c0-.1.1-.2.4-.3a1.3,1.3,0,0,0,.6-.7,6.3,6.3,0,0,0,.3-1.3,14.8,14.8,0,0,0,.1-2.1v-3.3a4.5,4.5,0,0,0-.1-1.2,1.9,1.9,0,0,0-.3-.8l-.8-.3c-.3,0-.4-.1-.4-.2v-.3h2.5a1.2,1.2,0,0,1,.9.6h.1l5.3,6.3.3.4.3.2c.1,0,.1-.1.1-.2a1.1,1.1,0,0,0,.1-.6v-3.9a4.2,4.2,0,0,0-.1-1.3,1.8,1.8,0,0,0-.5-.7l-.8-.3q-.6,0-.6-.3a.3.3,0,0,1,.1-.2h3.9c.1,0,.1.1.1.2l-.3.3-.5.3-.4.5A3.5,3.5,0,0,0,203.3,190.1Zm-8.6,5.9h-.1a3.7,3.7,0,0,1-.2,1.2,1.8,1.8,0,0,1-.5.7h0l.7-.4a1.9,1.9,0,0,0,.2-.8v-.3A.7.7,0,0,1,194.7,196Zm-.5-7.9h0l.5.4c.2.1.3.3.4.4l7.2,8.6h.2v-.4a.4.4,0,0,0-.1-.3l-6.5-7.6a3.8,3.8,0,0,0-.9-.9Zm7.7-.1h0l.5.4a4.6,4.6,0,0,1,.3.9h.1v-.5c0-.3,0-.5-.2-.6S202.2,188.1,201.9,188Zm-14.7-.5,3.9,9.2.4.7.5.3h.3l.3.3v.3H188v-.3l.5-.4c.4-.2.6-.4.6-.8a.4.4,0,0,0-.1-.3.4.4,0,0,0-.1-.3l-.4-1.1a.7.7,0,0,0-.4-.5h-3.7a.5.5,0,0,0-.3.5l-.5,1.2a.4.4,0,0,1-.1.3v.2a.9.9,0,0,0,.3.6l.8.3h0l.6.3c0,.2,0,.2-.1.3h-3.8a.4.4,0,0,1-.1-.3l.3-.3h.3l.5-.5.5-1,3.9-8.7h0c0-.2.1-.2.2-.2h.2Zm-.7,3v-.2a.1.1,0,1,0-.2,0v.2l-1.2,2.7v.4h3v-.2a.4.4,0,0,0-.1-.3Zm-3.5,5.8a2.7,2.7,0,0,1-.6,1.1l-.5.6h0a1.3,1.3,0,0,0,.9-.4c.2-.2.2-.6.2-1.1h0Zm6,1.4h.1l.4-.4a.8.8,0,0,0,.2-.6c0-.1-.1-.2-.1-.4s-.1-.3-.1-.5l-2.6-6.1v-.2h-.3c0,.1.1.2.1.3v.2l2.5,5.8c0,.2.1.3.1.5a.8.8,0,0,1,.1.4c0,.2-.1.3-.1.5Zm-9.7-7.6V198c0,.2,0,.3-.1.4v.2c-.2,0-.4-.2-.7-.5l-.2-.2-6.3-7.5-.2-.2h-.3a.9.9,0,0,0-.1.5v3.6c0,1.2.1,1.9.1,2.3a3.9,3.9,0,0,0,.4.9l.8.3c.4,0,.6.2.6.3s0,.3-.1.3h-3.9v-.3c0-.1.1-.2.4-.3a1.3,1.3,0,0,0,.6-.7,6.3,6.3,0,0,0,.3-1.3,14.8,14.8,0,0,0,.1-2.1v-3.3a4.5,4.5,0,0,0-.1-1.2l-.3-.8-.8-.3c-.3,0-.5-.1-.5-.2a.4.4,0,0,1,.1-.3h2.5a1.2,1.2,0,0,1,.9.6h.1l5.3,6.3.3.4.3.2v-.2a1.1,1.1,0,0,0,.1-.6v-3.9c0-.6-.1-1.1-.1-1.3a1.8,1.8,0,0,0-.5-.7l-.9-.3c-.3,0-.5-.1-.5-.3a.3.3,0,0,1,.1-.2h3.9c.1,0,.1.1.1.2l-.3.3-.5.3-.4.5A3.5,3.5,0,0,0,179.3,190.1Zm-8.7,5.9h0c-.1.5-.1.9-.2,1.2l-.5.7h0l.7-.4a1.9,1.9,0,0,0,.2-.8.4.4,0,0,0-.1-.3A1.1,1.1,0,0,0,170.6,196Zm-.4-7.9h0l.5.4c.2.1.3.3.4.4l7.2,8.6h.2v-.4c0-.1-.1-.2-.1-.3l-6.5-7.6a3.8,3.8,0,0,0-.9-.9Zm7.7-.1h-.1a1,1,0,0,1,.5.4,1.9,1.9,0,0,1,.4.9h.1v-.5a.8.8,0,0,0-.2-.6C178.5,188.1,178.2,188.1,177.9,188Z"/><path class="cls-3" d="M202.5,69.5h10a5,5,0,0,0-5-4.1,5.1,5.1,0,0,0-5,4.1m9.9,2.3a5.1,5.1,0,0,1-9.8,0Zm7.6,49.8H195.1a23.9,23.9,0,0,0,12.4,3.5A24.2,24.2,0,0,0,220,121.6Zm-31.6-5.9a22.6,22.6,0,0,0,3.4,3.5h31.4a18.8,18.8,0,0,0,3.4-3.5Zm43.3-42-23,20.7v18.9h19.5a23.5,23.5,0,0,0,3.5-12.3ZM207.6,92.2,184.9,71.8h15.4a7.4,7.4,0,0,0,14.4,0h15.5ZM183.4,73.6l22.9,20.7v19H186.8a23.4,23.4,0,0,1-3.4-12.3Zm22.9-19.8V48.1a24.4,24.4,0,0,0-22.8,21.4h6.9A17.2,17.2,0,0,1,206.3,53.8Zm0,9.5V56.1a15,15,0,0,0-13.7,13.4h7.6A7.4,7.4,0,0,1,206.3,63.3Zm2.4-7.2v7.2a7.2,7.2,0,0,1,6.1,6.2h7.6A14.9,14.9,0,0,0,208.7,56.1Zm0-8v5.7a17.4,17.4,0,0,1,16,15.7h6.8A24.3,24.3,0,0,0,208.7,48.1Zm-1.2-2.5h0a26.7,26.7,0,0,1,26.6,26.6V101a26.6,26.6,0,0,1-53.2,0V72.2A26.7,26.7,0,0,1,207.5,45.6Z"/><path class="cls-2" d="M122.8,228a11.8,11.8,0,0,1,3.4.4,5.8,5.8,0,0,1,2.3,1.3,4.8,4.8,0,0,1,1.4,2,6.7,6.7,0,0,1,.5,2.6,7.5,7.5,0,0,1-.5,2.6,7,7,0,0,1-1.5,2,7.3,7.3,0,0,1-2.3,1.3,11.4,11.4,0,0,1-3.3.5h-3.2v7.6h-2.8V228Zm0,10.5a6.6,6.6,0,0,0,2.1-.3,3.8,3.8,0,0,0,1.5-.9,3.8,3.8,0,0,0,.9-1.3,4.7,4.7,0,0,0,.3-1.7,4.1,4.1,0,0,0-1.2-3.1,5.3,5.3,0,0,0-3.6-1.1h-3.2v8.4Z"/><path class="cls-2" d="M164.4,228v20.3h-2.7V239h-11v9.3H148V228h2.7v9h11v-9Z"/><path class="cls-2" d="M202.5,238.1a11.6,11.6,0,0,1-.8,4.2,7.9,7.9,0,0,1-2,3.3,8.9,8.9,0,0,1-3.2,2.1,10.2,10.2,0,0,1-4,.8,10.7,10.7,0,0,1-4.1-.8,9.9,9.9,0,0,1-3.2-2.1,10.8,10.8,0,0,1-2-3.3,11.1,11.1,0,0,1,2-11.6,8.7,8.7,0,0,1,3.2-2.2,10.7,10.7,0,0,1,4.1-.7,10.2,10.2,0,0,1,4,.7,8,8,0,0,1,3.2,2.2,8.3,8.3,0,0,1,2,3.2A11.6,11.6,0,0,1,202.5,238.1Zm-2.9,0a8.8,8.8,0,0,0-.5-3.3,6.1,6.1,0,0,0-1.4-2.5,6.3,6.3,0,0,0-2.3-1.6,6.8,6.8,0,0,0-2.9-.6,7.2,7.2,0,0,0-5.3,2.2,6.1,6.1,0,0,0-1.4,2.5,8.8,8.8,0,0,0-.5,3.3,9,9,0,0,0,.5,3.4,6.8,6.8,0,0,0,1.4,2.5,5.7,5.7,0,0,0,2.3,1.5,7.3,7.3,0,0,0,3,.6,6.8,6.8,0,0,0,2.9-.6,5.1,5.1,0,0,0,2.3-1.5,6.8,6.8,0,0,0,1.4-2.5A9,9,0,0,0,199.6,238.1Z"/><path class="cls-2" d="M233.3,230.3h-6.5v18H224v-18h-6.5V228h15.8Z"/><path class="cls-2" d="M268.3,238.1a11.6,11.6,0,0,1-.7,4.2,10.8,10.8,0,0,1-2,3.3,9.9,9.9,0,0,1-3.2,2.1,10.7,10.7,0,0,1-4.1.8,11.1,11.1,0,0,1-4.1-.8,9.5,9.5,0,0,1-3.1-2.1,9.3,9.3,0,0,1-2.1-3.3,12.9,12.9,0,0,1,0-8.4,9.9,9.9,0,0,1,2.1-3.2,8.4,8.4,0,0,1,3.1-2.2,11,11,0,0,1,4.1-.7,10.7,10.7,0,0,1,4.1.7,8.7,8.7,0,0,1,3.2,2.2,10.3,10.3,0,0,1,2.7,7.4Zm-2.8,0a11.4,11.4,0,0,0-.5-3.3,6.1,6.1,0,0,0-1.4-2.5,7.2,7.2,0,0,0-5.3-2.2,6.5,6.5,0,0,0-2.9.6,6.3,6.3,0,0,0-2.3,1.6,7.6,7.6,0,0,0-1.5,2.5,11.4,11.4,0,0,0-.5,3.3,11.6,11.6,0,0,0,.5,3.4,8.7,8.7,0,0,0,1.5,2.5,5.1,5.1,0,0,0,2.3,1.5,6.5,6.5,0,0,0,2.9.6,7.3,7.3,0,0,0,3-.6,5.7,5.7,0,0,0,2.3-1.5,6.8,6.8,0,0,0,1.4-2.5A11.6,11.6,0,0,0,265.5,238.1Z"/><path class="cls-2" d="M296.8,231.1l-.3.4h-.4l-.5-.3-.9-.5-1.1-.5a4.3,4.3,0,0,0-1.7-.3,4.1,4.1,0,0,0-1.6.3,2.4,2.4,0,0,0-1.2.7,3.1,3.1,0,0,0-.7.9,2.7,2.7,0,0,0-.2,1.3,2.1,2.1,0,0,0,.4,1.4,3.6,3.6,0,0,0,1.1,1l1.5.6,1.8.6,1.8.7,1.6,1a5.8,5.8,0,0,1,1.1,1.5,6.5,6.5,0,0,1,.4,2.1,7,7,0,0,1-.5,2.5,4.6,4.6,0,0,1-1.3,2A6,6,0,0,1,294,248a8.8,8.8,0,0,1-2.9.5,10.5,10.5,0,0,1-3.6-.7,9.5,9.5,0,0,1-2.8-2l.8-1.3.3-.2h.8l.5.4.7.5.9.5,1.1.4h1.4a4.7,4.7,0,0,0,1.7-.3,2.7,2.7,0,0,0,1.3-.7,2.5,2.5,0,0,0,.8-1.2,3.3,3.3,0,0,0,.3-1.5,2.4,2.4,0,0,0-.4-1.5,5.2,5.2,0,0,0-1.1-1l-1.6-.7-1.7-.5-1.8-.7-1.6-1a5.8,5.8,0,0,1-1.1-1.5,6.2,6.2,0,0,1,0-4.4,6.6,6.6,0,0,1,1.2-1.7,5.3,5.3,0,0,1,2-1.3,7.7,7.7,0,0,1,2.7-.4,8.1,8.1,0,0,1,3.1.5,7.5,7.5,0,0,1,2.4,1.5Z"/><path class="cls-2" d="M153.5,301.4a10,10,0,0,1-.7,3.9,8.1,8.1,0,0,1-4.9,4.9,9.5,9.5,0,0,1-3.8.7h-7.2V291.8h7.2a9.5,9.5,0,0,1,3.8.7,7.7,7.7,0,0,1,3,1.9,9.5,9.5,0,0,1,1.9,3A10.2,10.2,0,0,1,153.5,301.4Zm-2.7,0a10.4,10.4,0,0,0-.4-3.2,9.5,9.5,0,0,0-1.4-2.4,6,6,0,0,0-2.1-1.4,6.6,6.6,0,0,0-2.8-.5h-4.6v14.9h4.6a6.6,6.6,0,0,0,2.8-.5,6,6,0,0,0,2.1-1.4,9.5,9.5,0,0,0,1.4-2.4A10.1,10.1,0,0,0,150.8,301.4Z"/><path class="cls-2" d="M171.5,309a3.6,3.6,0,0,1-1.1,1l-1.3.6-1.4.4h-1.5a5.8,5.8,0,0,1-2.6-.5,4.6,4.6,0,0,1-2-1.3,6.8,6.8,0,0,1-1.4-2.3,9.6,9.6,0,0,1-.5-3.1,8.1,8.1,0,0,1,.5-2.7,7.2,7.2,0,0,1,1.2-2.1,5.6,5.6,0,0,1,2-1.4,5.9,5.9,0,0,1,2.7-.5,5.4,5.4,0,0,1,2.2.4,4.4,4.4,0,0,1,1.8,1.2,5.2,5.2,0,0,1,1.2,1.9,6.6,6.6,0,0,1,.4,2.5c0,.4,0,.7-.1.8a.6.6,0,0,1-.5.2h-9a7.3,7.3,0,0,0,.3,2.2,4.2,4.2,0,0,0,.9,1.6,3.4,3.4,0,0,0,1.4.9,4.3,4.3,0,0,0,1.7.3,3.4,3.4,0,0,0,1.5-.2l1.2-.4.7-.5.6-.2c.2,0,.3.1.4.3Zm-1.9-6.3a3.3,3.3,0,0,0-.3-1.5,2.3,2.3,0,0,0-.6-1.2,2.8,2.8,0,0,0-1.1-.8,3.7,3.7,0,0,0-1.5-.3,4.1,4.1,0,0,0-2.7,1,4.3,4.3,0,0,0-1.2,2.8Zm.4-11.1-3.1,3.4-.4.3h-1.9l2-3.3c.1-.2.3-.3.4-.4h3Z"/><path class="cls-2" d="M188.1,299.8l-.2.2h-.3l-.5-.2-.6-.3a2,2,0,0,0-.8-.4l-1.3-.2a3.4,3.4,0,0,0-1.8.4,4.1,4.1,0,0,0-1.3,1,4.6,4.6,0,0,0-.7,1.6,7.8,7.8,0,0,0-.3,2.2,6.6,6.6,0,0,0,.3,2.1,3.4,3.4,0,0,0,.8,1.6,2.3,2.3,0,0,0,1.2,1,3.3,3.3,0,0,0,1.7.4l1.4-.2.9-.5c.3-.2.5-.3.6-.5l.5-.2a.5.5,0,0,1,.5.3l.7.8-1,1-1.3.6-1.3.4h-1.5a5.9,5.9,0,0,1-2.3-.4,6.2,6.2,0,0,1-3.2-3.6,8.8,8.8,0,0,1-.4-2.9,7.9,7.9,0,0,1,.4-2.8,8.4,8.4,0,0,1,1.2-2.3,5.6,5.6,0,0,1,2-1.4,5.9,5.9,0,0,1,2.7-.5,7.1,7.1,0,0,1,2.6.4,8,8,0,0,1,1.9,1.3Z"/><path class="cls-2" d="M200.9,297.2a5.9,5.9,0,0,1,2.7.5,5.6,5.6,0,0,1,2,1.4,5.4,5.4,0,0,1,1.3,2.2,8.5,8.5,0,0,1,.4,2.9,8.2,8.2,0,0,1-.4,2.8,5.4,5.4,0,0,1-1.3,2.2,5.6,5.6,0,0,1-2,1.4,7.5,7.5,0,0,1-5.4,0,4.8,4.8,0,0,1-2-1.4,5.4,5.4,0,0,1-1.3-2.2,8.2,8.2,0,0,1-.5-2.8,8.4,8.4,0,0,1,.5-2.9,5.4,5.4,0,0,1,1.3-2.2,4.8,4.8,0,0,1,2-1.4A5.9,5.9,0,0,1,200.9,297.2Zm0,12.1a3.6,3.6,0,0,0,3-1.4,5.8,5.8,0,0,0,1-3.7,6.1,6.1,0,0,0-1-3.8,3.6,3.6,0,0,0-3-1.4,4.8,4.8,0,0,0-1.8.4,2.9,2.9,0,0,0-1.2,1,4,4,0,0,0-.8,1.6,13.8,13.8,0,0,0-.2,2.2,5.8,5.8,0,0,0,1,3.7A3.4,3.4,0,0,0,200.9,309.3Z"/><path class="cls-2" d="M225.5,297.4v13.5h-1.4c-.4,0-.6-.1-.7-.5V309a10,10,0,0,1-2,1.6,7,7,0,0,1-2.5.5,6,6,0,0,1-2-.3,3.8,3.8,0,0,1-1.4-1.1,3.5,3.5,0,0,1-.9-1.6,6.6,6.6,0,0,1-.3-2.1v-8.6h2.4V306a3.4,3.4,0,0,0,.7,2.4,2.6,2.6,0,0,0,2.2.8,3.2,3.2,0,0,0,1.9-.5,5.2,5.2,0,0,0,1.7-1.3v-10Z"/><path class="cls-2" d="M244.9,297.4l-5.5,13.5h-2.2l-5.5-13.5h2.4c.2.1.2.2.3.4l3.4,8.7.3,1a2.9,2.9,0,0,1,.2.9l.3-.9a1.9,1.9,0,0,1,.3-1l3.4-8.7.3-.4h2.3Z"/><path class="cls-2" d="M253.4,300.1a6.1,6.1,0,0,1,1.5-2.2,3.8,3.8,0,0,1,2.3-.8h.8l.8.3-.2,1.8c-.1.2-.2.3-.4.3h-1.4a2,2,0,0,0-1.1.2,1.9,1.9,0,0,0-.9.5l-.7.9-.6,1.3v8.5h-2.4V297.4H253a.8.8,0,0,1,.2.5Z"/><path class="cls-2" d="M267.9,293.1a1.4,1.4,0,0,1-.2.7l-.3.5-.6.4h-1.3a2.9,2.9,0,0,1-.9-.9,1.5,1.5,0,0,1-.1-.7,1.3,1.3,0,0,1,.1-.6l.4-.6a.9.9,0,0,1,.5-.3l.6-.2.7.2.6.3.3.6A1.4,1.4,0,0,1,267.9,293.1Zm-.5,4.3v13.5H265V297.4Z"/><path class="cls-2" d="M277.5,300.1a7.8,7.8,0,0,1,1.6-2.2,3.6,3.6,0,0,1,2.3-.8h.8l.7.3v1.8c-.1.2-.2.3-.4.3H281a2.5,2.5,0,0,0-1.2.2l-.8.5-.8.9a5,5,0,0,0-.5,1.3v8.5h-2.4V297.4h1.9c.1.1.1.3.2.5Z"/><path class="cls-2" d="M96,327.9l.9-.9a4.1,4.1,0,0,1,1.1-.7l1.1-.4,1.4-.2a3.8,3.8,0,0,1,1.9.4,4,4,0,0,1,1.5,1,6.7,6.7,0,0,1,1.1,3.8v8.6h-2.4v-8.6a3.3,3.3,0,0,0-.7-2.4,2.5,2.5,0,0,0-2.1-.9,4.6,4.6,0,0,0-2,.5,7.5,7.5,0,0,0-1.7,1.4v10H93.7V325.9h1.5a.6.6,0,0,1,.6.5Z"/><path class="cls-2" d="M118.4,325.7a7.6,7.6,0,0,1,2.7.5,5.6,5.6,0,0,1,2,1.4,6.1,6.1,0,0,1,1.3,2.2,10.7,10.7,0,0,1,0,5.8,6.1,6.1,0,0,1-1.3,2.2,5.6,5.6,0,0,1-2,1.4,7.5,7.5,0,0,1-5.4,0,6,6,0,0,1-2.1-1.4,7.8,7.8,0,0,1-1.2-2.2,8.7,8.7,0,0,1,0-5.8,7.8,7.8,0,0,1,1.2-2.2,6,6,0,0,1,2.1-1.4A7.6,7.6,0,0,1,118.4,325.7Zm0,12.1a3.5,3.5,0,0,0,3-1.3,7.7,7.7,0,0,0,0-7.6,3.5,3.5,0,0,0-3-1.3,4.8,4.8,0,0,0-1.8.3,4,4,0,0,0-1.2,1,4.5,4.5,0,0,0-.8,1.7,6.8,6.8,0,0,0-.2,2.1,6.1,6.1,0,0,0,1,3.8A3.3,3.3,0,0,0,118.4,337.8Z"/><path class="cls-2" d="M135.8,339.7a3.3,3.3,0,0,1-2.5-.9,3.6,3.6,0,0,1-.9-2.6v-8.3h-2c-.1-.1-.1-.2-.1-.4v-.9l2.2-.3.6-4.2a1,1,0,0,1,.1-.3l.4-.2h1.2v4.7h3.9v1.7h-3.9v8.2a2.1,2.1,0,0,0,.4,1.2,1.5,1.5,0,0,0,1.1.4h.7l.4-.2.4-.2h.2l.4.2.6,1.2-1.4.9A5.7,5.7,0,0,1,135.8,339.7Z"/><path class="cls-2" d="M147.5,328.6a4.9,4.9,0,0,1,1.6-2.1,3.3,3.3,0,0,1,2.2-.8h.9a1.1,1.1,0,0,1,.7.3l-.2,1.8c-.1.2-.2.3-.4.3h-1.4l-1.1.2a1.5,1.5,0,0,0-.9.6,2.2,2.2,0,0,0-.7.9l-.6,1.2v8.6h-2.4V325.9h1.4l.5.2a.6.6,0,0,1,.2.5Z"/><path class="cls-2" d="M169.4,337.6a5.3,5.3,0,0,1-1.1.9l-1.3.7a5.8,5.8,0,0,1-1.4.3l-1.5.2a7.5,7.5,0,0,1-2.6-.5,4.8,4.8,0,0,1-2-1.4,5.9,5.9,0,0,1-1.4-2.3,9.6,9.6,0,0,1-.5-3.1,7.5,7.5,0,0,1,.5-2.6,9.4,9.4,0,0,1,1.2-2.2,7.2,7.2,0,0,1,2-1.4,7.6,7.6,0,0,1,2.7-.5,7.8,7.8,0,0,1,2.2.4,5.7,5.7,0,0,1,1.8,1.2,5.2,5.2,0,0,1,1.2,1.9,7.1,7.1,0,0,1,.4,2.6c0,.3,0,.6-.1.7a.6.6,0,0,1-.5.2h-9a6.9,6.9,0,0,0,.3,2.2,4.8,4.8,0,0,0,.9,1.6,2.8,2.8,0,0,0,1.4,1,4.7,4.7,0,0,0,1.7.3l1.5-.2,1.2-.5.7-.4.6-.2a.5.5,0,0,1,.4.2Zm-1.9-6.4a4,4,0,0,0-.3-1.5,3.4,3.4,0,0,0-.6-1.2l-1.1-.8-1.5-.2a3.6,3.6,0,0,0-2.7,1,4,4,0,0,0-1.2,2.7Z"/><path class="cls-2" d="M187.1,327.8a7.8,7.8,0,0,1,2.4-1.6,8.4,8.4,0,0,1,2.9-.5,4.5,4.5,0,0,1,2,.4,4,4,0,0,1,1.5,1,5.1,5.1,0,0,1,.9,1.6,7.6,7.6,0,0,1,.3,2.1v8.7h-1.6l-.3-.5-.3-1.3a4.1,4.1,0,0,1-1,.9l-1.1.7-1.2.4h-1.4l-1.5-.2-1.2-.7a4.4,4.4,0,0,1-.8-1.1,4.1,4.1,0,0,1-.3-1.6,2.6,2.6,0,0,1,.4-1.5,4.1,4.1,0,0,1,1.5-1.4,7.3,7.3,0,0,1,2.5-.9,15.1,15.1,0,0,1,3.9-.4v-1.1a4.3,4.3,0,0,0-.6-2.4,2.8,2.8,0,0,0-2-.8l-1.5.2-1,.5-.8.5a.7.7,0,0,1-.6.2h-.4l-.3-.3Zm7.6,5.6-2.8.2-1.8.6a2.4,2.4,0,0,0-1.1.8,1.7,1.7,0,0,0-.3,1,1.3,1.3,0,0,0,.2.9.9.9,0,0,0,.4.6l.7.4h2.1l.9-.4a2.6,2.6,0,0,0,.9-.5,6,6,0,0,0,.8-.8Z"/><path class="cls-2" d="M204.7,339.5V325.9h1.4a.7.7,0,0,1,.7.5v1.4a8,8,0,0,1,1.7-1.5,4.3,4.3,0,0,1,2.2-.6,3.3,3.3,0,0,1,2.2.8,3.7,3.7,0,0,1,1.2,2,3.6,3.6,0,0,1,.8-1.2,2.8,2.8,0,0,1,1-.9l1.3-.5,1.3-.2a4.1,4.1,0,0,1,1.9.4,3.3,3.3,0,0,1,1.4,1,3.5,3.5,0,0,1,.9,1.6,6.9,6.9,0,0,1,.3,2.2v8.6h-2.4v-8.6a3.7,3.7,0,0,0-.7-2.5,2.6,2.6,0,0,0-2-.8l-1.1.2-1,.6-.6,1a6.1,6.1,0,0,0-.2,1.5v8.6h-2.4v-8.6a3.7,3.7,0,0,0-.7-2.5,2.3,2.3,0,0,0-1.9-.8,3,3,0,0,0-1.6.5,4.3,4.3,0,0,0-1.4,1.3v10.1Z"/><path class="cls-2" d="M233.1,327.9a6.2,6.2,0,0,1,2-1.6,4.8,4.8,0,0,1,2.4-.6,5.4,5.4,0,0,1,2.2.5,4,4,0,0,1,1.6,1.3,5.1,5.1,0,0,1,1,2.1,7.9,7.9,0,0,1,.4,2.8,13.5,13.5,0,0,1-.4,2.9,9,9,0,0,1-1.2,2.4,4.9,4.9,0,0,1-1.8,1.4,4.8,4.8,0,0,1-2.4.6,5.2,5.2,0,0,1-2.3-.5,5.6,5.6,0,0,1-1.6-1.5V339a.6.6,0,0,1-.6.5h-1.6V319.8h2.4Zm0,8.3a4.5,4.5,0,0,0,1.5,1.3,4.7,4.7,0,0,0,1.7.3,3.4,3.4,0,0,0,2.9-1.3,6.7,6.7,0,0,0,1-4.1,6,6,0,0,0-.9-3.6,3,3,0,0,0-2.6-1.2,3.6,3.6,0,0,0-2,.6,4.5,4.5,0,0,0-1.6,1.5Z"/><path class="cls-2" d="M252.7,321.7a1.3,1.3,0,0,1-.1.6,2.1,2.1,0,0,1-.4.6l-.5.3-.7.2-.6-.2-.6-.3-.3-.6a1.4,1.4,0,0,1-.2-.6,1.4,1.4,0,0,1,.2-.7l.3-.5.6-.4h1.3a2.9,2.9,0,0,1,.9.9A1.5,1.5,0,0,1,252.7,321.7Zm-.5,4.2v13.6h-2.3V325.9Z"/><path class="cls-2" d="M259.8,327.8a11.1,11.1,0,0,1,2.4-1.6,8.8,8.8,0,0,1,2.9-.5,4.2,4.2,0,0,1,2,.4,4,4,0,0,1,1.5,1,5.1,5.1,0,0,1,.9,1.6,7.6,7.6,0,0,1,.3,2.1v8.7h-1.6l-.3-.5-.2-1.3a4.4,4.4,0,0,1-1.1.9l-1,.7-1.2.4h-1.5l-1.4-.2-1.3-.7a4.4,4.4,0,0,1-.8-1.1,4.1,4.1,0,0,1-.3-1.6,2.7,2.7,0,0,1,.5-1.5,3.7,3.7,0,0,1,1.4-1.4,7.9,7.9,0,0,1,2.6-.9,14.1,14.1,0,0,1,3.9-.4v-1.1a3.6,3.6,0,0,0-.7-2.4,2.5,2.5,0,0,0-2-.8l-1.5.2-1,.5-.7.5a1,1,0,0,1-.7.2h-.4l-.3-.3Zm7.7,5.6-2.8.2-1.9.6a3.1,3.1,0,0,0-1.1.8,1.7,1.7,0,0,0-.3,1,2.4,2.4,0,0,0,.2.9,1,1,0,0,0,.5.6l.7.4h2l1-.4.9-.5.8-.8Z"/><path class="cls-2" d="M279.7,327.9l.9-.9,1.1-.7,1.2-.4,1.3-.2a4.5,4.5,0,0,1,3.4,1.4,3.4,3.4,0,0,1,.8,1.7,6.6,6.6,0,0,1,.3,2.1v8.6h-2.4v-8.6a3.3,3.3,0,0,0-.7-2.4,2.3,2.3,0,0,0-2.1-.9,4.9,4.9,0,0,0-2,.5,10.5,10.5,0,0,0-1.7,1.4v10h-2.3V325.9h1.4a.6.6,0,0,1,.6.5Z"/><path class="cls-2" d="M305.8,328.3l-.2.3h-.7l-.6-.4-.9-.4h-1.3a4.7,4.7,0,0,0-1.7.3,3.5,3.5,0,0,0-1.3,1.1,4.8,4.8,0,0,0-.8,1.6,12.5,12.5,0,0,0-.2,2.1,15,15,0,0,0,.2,2.2,6,6,0,0,0,.8,1.6,3.5,3.5,0,0,0,2.9,1.3,3.4,3.4,0,0,0,1.5-.2l.9-.4.6-.5.5-.2a.5.5,0,0,1,.4.2l.7.9a4.3,4.3,0,0,1-1,.9l-1.2.7a5.8,5.8,0,0,1-1.4.3l-1.4.2a6.4,6.4,0,0,1-2.4-.5,6.2,6.2,0,0,1-1.9-1.4,7.2,7.2,0,0,1-1.2-2.1,9.4,9.4,0,0,1-.5-3,8.7,8.7,0,0,1,.5-2.8,4.3,4.3,0,0,1,1.2-2.2,6.2,6.2,0,0,1,2-1.5,7.6,7.6,0,0,1,2.7-.5,6.2,6.2,0,0,1,2.5.5,6.3,6.3,0,0,1,2,1.3Z"/><path class="cls-2" d="M323.9,337.6l-1,.9-1.3.7a8,8,0,0,1-1.5.3l-1.5.2a7.5,7.5,0,0,1-2.6-.5,5.6,5.6,0,0,1-2-1.4,7.4,7.4,0,0,1-1.4-2.3,9.7,9.7,0,0,1-.4-3.1,7.5,7.5,0,0,1,.4-2.6,9.4,9.4,0,0,1,1.2-2.2,9,9,0,0,1,2-1.4,7.6,7.6,0,0,1,2.7-.5,7.8,7.8,0,0,1,2.2.4,5.7,5.7,0,0,1,1.8,1.2,5.2,5.2,0,0,1,1.2,1.9,7.1,7.1,0,0,1,.4,2.6c0,.3,0,.6-.1.7l-.4.2h-9.1a6.7,6.7,0,0,0,.4,2.2,4.8,4.8,0,0,0,.8,1.6,3.3,3.3,0,0,0,1.4,1,4.7,4.7,0,0,0,1.7.3l1.6-.2,1.1-.5.8-.4.5-.2.5.2Zm-1.9-6.4a7.7,7.7,0,0,0-.2-1.5,7.5,7.5,0,0,0-.7-1.2l-1.1-.8-1.5-.2a3.6,3.6,0,0,0-2.7,1,5.2,5.2,0,0,0-1.2,2.7Z"/><rect class="cls-2" x="93.7" y="350.6" width="230.5" height="3.5"/></g></g></svg>