<svg xmlns="http://www.w3.org/2000/svg" viewBox="0 0 255.8 23.4"><defs><style>.cls-1{fill:#9a7d35;}</style></defs><g id="Layer_2" data-name="Layer 2"><g id="Logo"><path class="cls-1" d="M32.6,4.5l-7.1,23H22.7L16.9,10c-.1-.2-.1-.4-.2-.6s-.1-.4-.1-.6-.1.4-.2.6-.1.4-.1.6L10.4,27.5H7.6L.5,4.5H3.1l.7.2a.9.9,0,0,1,.3.6L8.9,21.2a2.9,2.9,0,0,0,.2.9,4.3,4.3,0,0,0,.2,1.1c.1-.4.1-.7.2-1.1l.3-.9L15.2,5.3a.9.9,0,0,1,.3-.5,1.1,1.1,0,0,1,.7-.3h.9l.7.2.4.6,5.4,15.9a2.9,2.9,0,0,0,.2.9,3.6,3.6,0,0,1,.2,1,3.6,3.6,0,0,0,.2-1,2.9,2.9,0,0,0,.2-.9L29.2,5.3a.9.9,0,0,1,.3-.5,1.1,1.1,0,0,1,.7-.3Z" transform="translate(-0.5 -4.3)"/><path class="cls-1" d="M66.2,24.9v2.6H52.1V4.5H66.2V7.1h-11v7.6h8.9v2.4H55.2v7.8Z" transform="translate(-0.5 -4.3)"/><path class="cls-1" d="M99.6,24.9v2.6H86.5V4.5h3.1V24.9Z" transform="translate(-0.5 -4.3)"/><path class="cls-1" d="M134,22.7l.4.2,1.3,1.4a10.3,10.3,0,0,1-3.4,2.5,12.2,12.2,0,0,1-4.9.9,13.3,13.3,0,0,1-4.5-.8,10.5,10.5,0,0,1-3.4-2.4,10.7,10.7,0,0,1-2.2-3.7,15.1,15.1,0,0,1-.8-4.8,14,14,0,0,1,.8-4.7,12.1,12.1,0,0,1,2.3-3.8,11.3,11.3,0,0,1,3.6-2.4,12.5,12.5,0,0,1,4.5-.8,9.7,9.7,0,0,1,4.3.8,9.3,9.3,0,0,1,3.3,2.1l-1,1.4-.2.3h-.5l-.7-.3-1-.7-1.7-.7a9,9,0,0,0-2.5-.3,8.8,8.8,0,0,0-3.3.6,7.2,7.2,0,0,0-2.5,1.8,6.4,6.4,0,0,0-1.6,2.8,11.2,11.2,0,0,0-.6,3.8,11.2,11.2,0,0,0,.6,3.8,7,7,0,0,0,1.7,2.9,7.4,7.4,0,0,0,2.5,1.7,7.8,7.8,0,0,0,3.1.6h1.8l1.6-.3,1.3-.7,1.2-.9A.5.5,0,0,1,134,22.7Z" transform="translate(-0.5 -4.3)"/><path class="cls-1" d="M176,16a14,14,0,0,1-.8,4.7,9.3,9.3,0,0,1-2.3,3.7,8.8,8.8,0,0,1-3.6,2.4,12.2,12.2,0,0,1-9.2,0,8.8,8.8,0,0,1-3.6-2.4,10.6,10.6,0,0,1-2.3-3.7,14.2,14.2,0,0,1,0-9.4,10.6,10.6,0,0,1,2.3-3.7,10.1,10.1,0,0,1,3.6-2.5,13.6,13.6,0,0,1,9.2,0,10.1,10.1,0,0,1,3.6,2.5,9.3,9.3,0,0,1,2.3,3.7A14,14,0,0,1,176,16Zm-3.2,0a14.6,14.6,0,0,0-.5-3.8,7.8,7.8,0,0,0-1.7-2.8,6.4,6.4,0,0,0-2.5-1.8,9.3,9.3,0,0,0-3.4-.6,8.8,8.8,0,0,0-3.3.6,6.8,6.8,0,0,0-2.6,1.8,6.4,6.4,0,0,0-1.6,2.8,11.2,11.2,0,0,0-.6,3.8,11.2,11.2,0,0,0,.6,3.8,6.4,6.4,0,0,0,1.6,2.8,6.8,6.8,0,0,0,2.6,1.8,8.8,8.8,0,0,0,3.3.6,9.3,9.3,0,0,0,3.4-.6,6.4,6.4,0,0,0,2.5-1.8,7.8,7.8,0,0,0,1.7-2.8A14.6,14.6,0,0,0,172.8,16Z" transform="translate(-0.5 -4.3)"/><path class="cls-1" d="M220.3,4.5v23h-2.7V9.9a2.2,2.2,0,0,1,.1-.8l-7.9,14.3c-.3.5-.6.8-1.1.8h-.5a1.2,1.2,0,0,1-1.1-.8L199.1,9c0,.6.1,1.1.1,1.6V27.5h-2.8V4.5h3a1.1,1.1,0,0,1,.4.5l7.9,14.1a2,2,0,0,1,.4.8l.3.8.4-.8a2,2,0,0,1,.4-.8l7.7-14.1a1.2,1.2,0,0,1,.5-.5h2.9Z" transform="translate(-0.5 -4.3)"/><path class="cls-1" d="M256.3,24.9v2.6H242.2V4.5h14.1V7.1h-11v7.6h8.9v2.4h-8.9v7.8Z" transform="translate(-0.5 -4.3)"/></g></g></svg>