<svg xmlns="http://www.w3.org/2000/svg" viewBox="0 0 520.2 234">
	<defs>
		<style>.cls-1,.cls-2{fill:#fff;}.cls-2{fill-rule:evenodd;}</style>
	</defs>
	<g id="Layer_2" data-name="Layer 2">
		<g id="Logo">
			<path class="cls-1"
						d="M92.5,142.8a30.9,30.9,0,0,1,13.9,3.6l1.9.8c.6,0,1-.4,1.4-1.1s.7-1.1,1.1-1.1,1.3.9,1.3,2.5v.7c.1,2.2.3,4.7.6,7.3s.5,4.1.5,4.4a1.2,1.2,0,0,1-.3.9.8.8,0,0,1-.7.3c-.6,0-1.2-.6-1.9-1.9a43.1,43.1,0,0,0-2.5-4.4,22.5,22.5,0,0,0-7.4-6.7,18.1,18.1,0,0,0-9-2.4c-4.3,0-7.9,1.9-10.8,5.6s-4.3,8.5-4.3,14.3,1.8,12.6,5.4,17.2,7.9,7,13.2,7a18.1,18.1,0,0,0,7.1-1.5,25.1,25.1,0,0,0,6.6-4.1l2.1-2.4c.9-1.1,1.6-1.6,2.1-1.6a.8.8,0,0,1,.7.3,1.1,1.1,0,0,1,.3.8,6.3,6.3,0,0,1-1.3,2.7,29.1,29.1,0,0,1-3.5,3.9,23.7,23.7,0,0,1-8,5.1,28.7,28.7,0,0,1-10,1.7c-7,0-12.6-2.2-16.9-6.7s-6.5-10.4-6.5-17.6a28.5,28.5,0,0,1,7.2-19.7,22.9,22.9,0,0,1,17.7-7.9m10.2,4.9-.2.3a27.8,27.8,0,0,1,4.5,3.7,32.8,32.8,0,0,1,3.3,4.7l.3-.2a8.9,8.9,0,0,0-2-5.4C107.5,149.6,105.5,148.6,102.7,147.7ZM87.4,193.8v-.4a23.7,23.7,0,0,1-12.6-9,25.8,25.8,0,0,1-4.4-15.2,27.6,27.6,0,0,1,2.6-11.6,29,29,0,0,1,7.2-9.8v-.3a27.9,27.9,0,0,0-11.4,22.6c0,6.3,1.7,11.6,5,15.7A21.8,21.8,0,0,0,87.4,193.8ZM37.5,182.5l4.4,4.5.3.5c0,.2.1.4.1.7a1.4,1.4,0,0,1-.2.6l-.3.6-4.5,4.5-.5.3H35.4a1,1,0,0,1-.5-.4l-4.5-4.5-.3-.6c0-.2-.1-.4-.1-.7a1.4,1.4,0,0,1,.2-.6l.3-.6,4.6-4.5.5-.2H37Zm-3.6,5.9,2.7-4.3-.6-.7-4,4.2-.2.5v.2a1.2,1.2,0,0,0,.1.5.4.4,0,0,0,.1.3l4.1,3.8.8-.6ZM19.5,154.8v33.3a17.4,17.4,0,0,1-1,6.1,22.5,22.5,0,0,1-3.2,5.8,22.7,22.7,0,0,1-5,5.2,8.8,8.8,0,0,1-4.8,1.7,6.8,6.8,0,0,1-4-1A3.3,3.3,0,0,1,0,203.1a16.8,16.8,0,0,1,.6-4.9c.3-1.2.8-1.8,1.4-1.8s1.7.8,3.1,2.5,2.4,2.5,3.1,2.5,1.6-.6,2.1-1.8a20.2,20.2,0,0,0,.6-5.9V155.5a18.5,18.5,0,0,0-.5-5A5.1,5.1,0,0,0,9,147.9a7.6,7.6,0,0,0-3.7-1.2c-1.7-.2-2.5-.8-2.5-1.6a1.2,1.2,0,0,1,.5-1.1,1.7,1.7,0,0,1,1.3-.4l3.3.3,6.2.3a72.9,72.9,0,0,0,7.9-.5h1.1a1.2,1.2,0,0,1,.9.3,1.8,1.8,0,0,1,.3,1.1c0,.6-.5,1.1-1.3,1.5a6.2,6.2,0,0,0-1.9,1.4,3.7,3.7,0,0,0-1.2,2.1A16.9,16.9,0,0,0,19.5,154.8ZM9.1,146.2v.3a6.7,6.7,0,0,1,2.5,2.5,11.2,11.2,0,0,1,.7,4.5v35.2c0,2.4,0,4.2-.1,5.5s-.2,2.5-.4,3.7l.4.2a14,14,0,0,0,1.3-3.4,30.5,30.5,0,0,0,.3-4.8V154a10.6,10.6,0,0,0-1-5.3A5.3,5.3,0,0,0,9.1,146.2Zm-6.6,52c-.3,0-.5.6-.7,1.6a21.7,21.7,0,0,0-.3,3.8,1.5,1.5,0,0,0,.2.8.5.5,0,0,0,.5.3c.4,0,.8-.4,1-1.2a19.6,19.6,0,0,0,.3-4,1.2,1.2,0,0,0-.4-.9C2.9,198.4,2.7,198.2,2.5,198.2Z"/>
			<path class="cls-1"
						d="M141.6,160.4a16.6,16.6,0,0,1,12.2,4.8,16,16,0,0,1,4.9,12,17.2,17.2,0,0,1-5.1,12.7,18.3,18.3,0,0,1-13.1,5,17.2,17.2,0,0,1-11.8-29.4,17.5,17.5,0,0,1,12.9-5.1m11.1,19.5c0-5.1-1.1-9.2-3.4-12.5a10.6,10.6,0,0,0-8.9-4.8,9.8,9.8,0,0,0-7.9,3.5c-2,2.3-2.9,5.5-2.9,9.6s1.1,9.2,3.3,12.3a10.2,10.2,0,0,0,8.8,4.7,9.8,9.8,0,0,0,8-3.4C151.7,187,152.7,183.9,152.7,179.9Zm-8.9-17.5a13.1,13.1,0,0,1,7.1,6.1,23,23,0,0,1,2.6,11.1,16.7,16.7,0,0,1-1.3,7.1,11.7,11.7,0,0,1-4.1,5l.2.2a11.9,11.9,0,0,0,4.8-5.1,19.5,19.5,0,0,0,1.7-8.3,18.8,18.8,0,0,0-2.9-10.5,13.6,13.6,0,0,0-7.9-5.8Zm-7.7,31.4h.1a20.1,20.1,0,0,1-7.9-6.9,16.6,16.6,0,0,1-2.6-9.3,18.7,18.7,0,0,1,1.3-7.1,14.7,14.7,0,0,1,3.8-5.6l-.2-.2a16.9,16.9,0,0,0-4.5,6,17.9,17.9,0,0,0-1.7,7.5,15.8,15.8,0,0,0,3.1,9.7A16.1,16.1,0,0,0,136.1,193.8Z"/>
			<path class="cls-1"
						d="M277.9,162.7l-.2.2a3,3,0,0,1,1.7,1.6,7.8,7.8,0,0,1,.5,3v18.4a14.4,14.4,0,0,1-.4,4.1,5.9,5.9,0,0,1-1.4,2.2v.2a4.5,4.5,0,0,0,2.1-2,12.6,12.6,0,0,0,.6-4.7V167.8a6.8,6.8,0,0,0-.7-3.5,3.9,3.9,0,0,0-2.3-1.6m6.7,5.7v19.2c0,1.9.3,3,.8,3.4a4.2,4.2,0,0,0,2.9.7,15.5,15.5,0,0,0,4.7-.8,11.7,11.7,0,0,0,3.7-1.9,8.7,8.7,0,0,0,1.7-2.1c.5-.9.9-1.3,1.2-1.3a.5.5,0,0,1,.5.3,1.4,1.4,0,0,1,.2.6,9.2,9.2,0,0,1-.5,2.5,13.6,13.6,0,0,1-1.3,2.7,6,6,0,0,1-2.5,2,9.9,9.9,0,0,1-3.7.6h-3.9a45.4,45.4,0,0,0-4.9-.2,40.2,40.2,0,0,0-4.9.2H276c-.4,0-.6,0-.8-.2a.8.8,0,0,1-.3-.7c0-.4.3-.8,1.1-1.2a5.2,5.2,0,0,0,1.1-.7,2.9,2.9,0,0,0,1.4-1.5,6.8,6.8,0,0,0,.5-2.7V168.8a11.7,11.7,0,0,0-.3-3.2,4.2,4.2,0,0,0-1.1-1.8,4.5,4.5,0,0,0-2.4-.8c-1.1-.1-1.6-.5-1.6-1a1,1,0,0,1,.3-.8l.9-.2,2.1.2,4,.2a38.6,38.6,0,0,0,5.8-.4h.9l.6.2a1,1,0,0,1,.3.8c0,.3-.4.7-1.1.9a3.2,3.2,0,0,0-1.5.9,2.8,2.8,0,0,0-1,1.4A10.8,10.8,0,0,0,284.6,168.4Zm6.2,23.9v.2l1,.2h.7a5.6,5.6,0,0,0,3.7-1.1,5.1,5.1,0,0,0,2.2-3.1h-.1a11.1,11.1,0,0,1-3.2,2.5A13.4,13.4,0,0,1,290.8,192.3Z"/>
			<path class="cls-1"
						d="M304.7,162.7v.2a3.3,3.3,0,0,1,1.7,1.6,7.8,7.8,0,0,1,.5,3v18.4a14.4,14.4,0,0,1-.4,4.1,7.4,7.4,0,0,1-1.4,2.2v.2a4.5,4.5,0,0,0,2.1-2,12.6,12.6,0,0,0,.6-4.7V167.8a8,8,0,0,0-.7-3.5,3.8,3.8,0,0,0-2.4-1.6m6.8,5.7v19.2c0,1.9.2,3,.7,3.4a4.6,4.6,0,0,0,3,.7,14.4,14.4,0,0,0,4.6-.8,11.3,11.3,0,0,0,3.8-1.9,12,12,0,0,0,1.7-2.1c.5-.9.9-1.3,1.2-1.3s.3.1.5.3a1.4,1.4,0,0,1,.2.6,6.9,6.9,0,0,1-.6,2.5,9.6,9.6,0,0,1-1.2,2.7,6,6,0,0,1-2.5,2,10.4,10.4,0,0,1-3.8.6h-3.8a46.3,46.3,0,0,0-4.9-.2,42.6,42.6,0,0,0-5,.2h-2.5c-.4,0-.7,0-.9-.2a.8.8,0,0,1-.3-.7q0-.6,1.2-1.2l1.1-.7a2.9,2.9,0,0,0,1.4-1.5,6.8,6.8,0,0,0,.5-2.7V168.8a11.7,11.7,0,0,0-.3-3.2,4.2,4.2,0,0,0-1.1-1.8,4.5,4.5,0,0,0-2.4-.8c-1.1-.1-1.6-.5-1.6-1a1,1,0,0,1,.3-.8l.8-.2,2.2.2,4,.2a39.5,39.5,0,0,0,5.8-.4h.8l.7.2c.2.2.2.4.2.8s-.3.7-1,.9a2.7,2.7,0,0,0-1.5.9,2.8,2.8,0,0,0-1,1.4A10.8,10.8,0,0,0,311.5,168.4Zm6.2,23.9v.2l1,.2h.7a5.8,5.8,0,0,0,3.7-1.1,5.5,5.5,0,0,0,2.2-3.1h-.1a10.3,10.3,0,0,1-3.3,2.5A12.8,12.8,0,0,1,317.7,192.3Z"/>
			<path class="cls-1"
						d="M252.3,160.4a16.8,16.8,0,0,1,12.3,4.8,16.3,16.3,0,0,1,4.8,12,17.2,17.2,0,0,1-5.1,12.7,18.1,18.1,0,0,1-13.1,5A16.4,16.4,0,0,1,234.3,178a16.7,16.7,0,0,1,5.1-12.5,17.5,17.5,0,0,1,12.9-5.1m11.1,19.5c0-5.1-1.1-9.2-3.4-12.5a10.5,10.5,0,0,0-8.8-4.8,10,10,0,0,0-8,3.5c-1.9,2.3-2.9,5.5-2.9,9.6s1.1,9.2,3.3,12.3a10.9,10.9,0,0,0,16.9,1.3C262.4,187,263.4,183.9,263.4,179.9Zm-8.9-17.5a12.7,12.7,0,0,1,7.1,6.1,23,23,0,0,1,2.6,11.1,16.7,16.7,0,0,1-1.3,7.1,12.2,12.2,0,0,1-4,5v.2a10.8,10.8,0,0,0,4.8-5.1,20.7,20.7,0,0,0-1.2-18.8,13.6,13.6,0,0,0-7.9-5.8Zm-7.7,31.4h.1a20.8,20.8,0,0,1-7.9-6.9,16.6,16.6,0,0,1-2.6-9.3,20.8,20.8,0,0,1,1.3-7.1,15.9,15.9,0,0,1,3.8-5.6v-.2a16.1,16.1,0,0,0-4.6,6,17.9,17.9,0,0,0-1.7,7.5,16.4,16.4,0,0,0,11.7,15.7Z"/>
			<path class="cls-1"
						d="M192.1,169l-.3,23.8a6.1,6.1,0,0,1-.2,1.5c-.1.3-.3.5-.5.5s-1.2-.6-2.1-1.7l-.5-.6-19.3-22.8-.6-.6-.5-.3a.5.5,0,0,0-.4.5,4.9,4.9,0,0,0-.2,1.5v11a35.3,35.3,0,0,0,.4,6.9,4.2,4.2,0,0,0,1.2,2.6,3.8,3.8,0,0,0,2.4,1c1.2.2,1.8.5,1.8,1.1a1.5,1.5,0,0,1-.2.8h-2.8a17.7,17.7,0,0,0-3.2-.2,20,20,0,0,0-3.4.2h-1.9l-.7-.2a2.2,2.2,0,0,1-.2-1c0-.1.4-.4,1.3-.9a4.1,4.1,0,0,0,1.8-1.9,15.9,15.9,0,0,0,.9-4.2,42.3,42.3,0,0,0,.5-6.3v-9.9a18.2,18.2,0,0,0-.4-3.7,5.3,5.3,0,0,0-1.1-2.4,4,4,0,0,0-2.2-.9q-1.5-.2-1.5-.9a1.5,1.5,0,0,1,.2-.8l.8-.2a3.7,3.7,0,0,1,1.3.2l1.2.2,2.4-.2,1.9-.2c.9,0,1.7.6,2.7,1.7l.2.3,16.2,19.4,1.1,1.2.8.4c.2,0,.4-.2.5-.6a8.1,8.1,0,0,0,.1-1.7v-12a13.6,13.6,0,0,0-.4-4,3.3,3.3,0,0,0-1.4-1.9,7.9,7.9,0,0,0-2.6-.9c-1-.2-1.5-.6-1.5-1a1.4,1.4,0,0,1,.2-.7l.8-.2,2,.2,2.6.2,3.4-.2,2.4-.2c.4,0,.6,0,.7.2s.2.3.2.6-.3.8-.9,1.1a5.6,5.6,0,0,0-1.4.9,2.8,2.8,0,0,0-1.3,1.5,14.7,14.7,0,0,0-.3,3.7m-26.4,17.8h-.1a13.8,13.8,0,0,1-.8,3.7,5.5,5.5,0,0,1-1.4,2.2v.2a3.7,3.7,0,0,0,2-1.3,4.3,4.3,0,0,0,.6-2.4,2.8,2.8,0,0,0-.1-.8A6.9,6.9,0,0,0,165.7,186.8Zm-1.4-23.9v.2l1.7,1.3a5.2,5.2,0,0,1,1,1.1l22,26.2.4.3h.4v-.5a1.5,1.5,0,0,0-.1-.7,2,2,0,0,0-.4-.8l-19.7-23.2a13.5,13.5,0,0,0-2.8-2.7A9.6,9.6,0,0,0,164.3,162.9Zm23.5-.4v.2a2.9,2.9,0,0,1,1.5,1.2,8.8,8.8,0,0,1,1.1,2.7h.2a3.5,3.5,0,0,0,.1-.6v-.7a2.7,2.7,0,0,0-.6-2A3.8,3.8,0,0,0,187.8,162.5Z"/>
			<path class="cls-1"
						d="M229.5,169l-.3,23.8a6.1,6.1,0,0,1-.2,1.5c-.1.3-.3.5-.5.5s-1.2-.6-2.1-1.7l-.5-.6-19.3-22.8-.6-.6-.5-.3a.5.5,0,0,0-.4.5,4.9,4.9,0,0,0-.2,1.5v11a35.3,35.3,0,0,0,.4,6.9,4.2,4.2,0,0,0,1.2,2.6,3.8,3.8,0,0,0,2.4,1c1.2.2,1.8.5,1.8,1.1a1.5,1.5,0,0,1-.2.8h-2.8a17.7,17.7,0,0,0-3.2-.2,20,20,0,0,0-3.4.2h-1.9l-.7-.2a2.2,2.2,0,0,1-.2-1c0-.1.4-.4,1.3-.9a4.1,4.1,0,0,0,1.8-1.9,15.9,15.9,0,0,0,.9-4.2,42.3,42.3,0,0,0,.5-6.3v-9.9a13.1,13.1,0,0,0-.4-3.7,5.3,5.3,0,0,0-1.1-2.4,4,4,0,0,0-2.2-.9q-1.5-.2-1.5-.9a1.5,1.5,0,0,1,.2-.8l.8-.2a3.7,3.7,0,0,1,1.3.2l1.2.2,2.4-.2,1.9-.2c.9,0,1.7.6,2.7,1.7l.2.3,16.2,19.4,1.1,1.2c.4.2.6.4.8.4s.4-.2.5-.6a8.1,8.1,0,0,0,.1-1.7v-12a13.6,13.6,0,0,0-.4-4,3.3,3.3,0,0,0-1.4-1.9,7.9,7.9,0,0,0-2.6-.9c-1-.2-1.5-.6-1.5-1a1.4,1.4,0,0,1,.2-.7l.8-.2,2,.2,2.6.2,3.4-.2,2.4-.2c.4,0,.6,0,.7.2s.2.3.2.6-.3.8-.9,1.1a5.6,5.6,0,0,0-1.4.9,2.8,2.8,0,0,0-1.3,1.5,14.7,14.7,0,0,0-.3,3.7m-26.4,17.8H203a13.8,13.8,0,0,1-.8,3.7,5.5,5.5,0,0,1-1.4,2.2v.2a3.7,3.7,0,0,0,2-1.3,4.3,4.3,0,0,0,.6-2.4,2.8,2.8,0,0,0-.1-.8A6.9,6.9,0,0,0,203.1,186.8Zm-1.4-23.9v.2l1.7,1.3a5.2,5.2,0,0,1,1,1.1l22,26.2.4.3h.4v-.5a1.5,1.5,0,0,0-.1-.7,2,2,0,0,0-.4-.8L207,166.8a13.5,13.5,0,0,0-2.8-2.7A9.6,9.6,0,0,0,201.7,162.9Zm23.5-.4v.2a2.9,2.9,0,0,1,1.5,1.2,8.8,8.8,0,0,1,1.1,2.7h.2c.1-.1.1-.3.1-.6v-.7a2.7,2.7,0,0,0-.6-2A3.8,3.8,0,0,0,225.2,162.5Z"/>
			<path class="cls-1"
						d="M352,165.9l-6.8,12.5-.4,1a4.1,4.1,0,0,0-.1,1.2v5.7a15.8,15.8,0,0,0,.3,3.7,3.1,3.1,0,0,0,1.2,1.6,8.8,8.8,0,0,0,2.3.6c1.1.1,1.7.5,1.7,1.1a1,1,0,0,1-.3.8c-.2.2-.5.2-.9.2h-2.5a28.9,28.9,0,0,0-4-.2,37,37,0,0,0-4.5.2h-3.1a1.5,1.5,0,0,1-1-.2.9.9,0,0,1-.3-.7c0-.5.4-.9,1.4-1.1a6.4,6.4,0,0,0,2.1-.7,2.4,2.4,0,0,0,1.4-1.4,9.7,9.7,0,0,0,.4-3.5v-5.3a4.2,4.2,0,0,0-.5-2.2h-.1l-6.8-12.6a11.3,11.3,0,0,0-1.5-2.1,4.4,4.4,0,0,0-1.5-1.3l-1.1-.3c-.9-.2-1.3-.5-1.3-1a.8.8,0,0,1,.2-.6,1.5,1.5,0,0,1,1-.2h.7a45.8,45.8,0,0,0,5.3.3l4.6-.3h1.7a.8.8,0,0,1,.2.6c0,.4-.4.8-1.3,1.1s-1.4.8-1.4,1.5a3.7,3.7,0,0,0,.2.9l.5,1.1,5.3,10,.2.3h.6l.3-.5,4.5-8.2v-.2a7.4,7.4,0,0,0,.8-2.2,2.3,2.3,0,0,0-.5-1.6,2.4,2.4,0,0,0-1.6-.8l-1.2-.3c-.8-.1-1.3-.5-1.3-1a.6.6,0,0,1,.3-.6,1.1,1.1,0,0,1,.8-.2h.8l4.2.3h4.2c.4,0,.6,0,.7.2a.5.5,0,0,1,.3.5,1.1,1.1,0,0,1-.8,1l-.7.4a2.9,2.9,0,0,0-1.4.8,7.8,7.8,0,0,0-1.4,2m-21.8-3h-.1l1.2,1.2a5.9,5.9,0,0,1,.8,1.1l6.8,12.9a9.3,9.3,0,0,1,1,2.6,19.2,19.2,0,0,1,.3,3.9v2.1a12.2,12.2,0,0,1-.4,3.3,3,3,0,0,1-1.2,1.7v.2a3.9,3.9,0,0,0,2.1-1.6,14,14,0,0,0,.5-4.5v-1.2a14.5,14.5,0,0,0-1.7-7.6l-.3-.6-5.8-10.9a5.1,5.1,0,0,0-1.3-1.6A5.6,5.6,0,0,0,330.2,162.9Zm18.7-.4v.2a3.3,3.3,0,0,1,1.3.9,2.4,2.4,0,0,1,.5,1.4,3.1,3.1,0,0,1-.2.8,2.6,2.6,0,0,1-.3,1.1h.3a8.3,8.3,0,0,0,.8-1.2,3.5,3.5,0,0,0,.3-1.3,1.7,1.7,0,0,0-.6-1.4A3.7,3.7,0,0,0,348.9,162.5Z"/>
			<path class="cls-1"
						d="M361,174.3l-1.7-10.5v-.9a2.4,2.4,0,0,1,.5-1.8,1.9,1.9,0,0,1,1.6-.7,2.1,2.1,0,0,1,1.7.7,3,3,0,0,1,.5,1.8v.9l-1.7,10.5Z"/>
			<path class="cls-1"
						d="M369.2,191.4l-1.5-6.8a4.3,4.3,0,0,0-.1-.5v-.3a2,2,0,0,1,.2-.9l.8-.2c.3,0,.7.5,1,1.5a19.5,19.5,0,0,0,1.3,2.9,11.7,11.7,0,0,0,3.6,4,7.5,7.5,0,0,0,4.3,1.5,6.8,6.8,0,0,0,4.7-1.7,6,6,0,0,0,1.8-4.5c0-2.4-2.5-4.6-7.5-6.7h-.2c-4.1-1.7-6.7-3.3-7.7-4.6a8.6,8.6,0,0,1-1.6-5.5,8.8,8.8,0,0,1,2.6-6.4,9,9,0,0,1,6.6-2.7,11.4,11.4,0,0,1,4.3.9,10,10,0,0,0,2.8.9l1.2-.3.8-.3c.3,0,.5,0,.6.2a1.3,1.3,0,0,1,.2.8v.7a3.4,3.4,0,0,0-.1.9,23.6,23.6,0,0,0,.3,3.2,15.3,15.3,0,0,1,.4,3,1.4,1.4,0,0,1-.2.7l-.5.2q-.7,0-1.2-1.5a14.8,14.8,0,0,0-1.2-2.9,9.2,9.2,0,0,0-7.6-4.4,5.1,5.1,0,0,0-3.7,1.4,4,4,0,0,0-1.5,3.3,4.5,4.5,0,0,0,1.4,3.2,16,16,0,0,0,5.2,2.8l1.3.5c3,1.2,5.1,2.2,6,3.2a6.9,6.9,0,0,1,2.1,3.2,10.7,10.7,0,0,1,.8,4.1,9.8,9.8,0,0,1-10.6,10.5,14,14,0,0,1-4-.7,17.2,17.2,0,0,0-3.4-.9,1.7,1.7,0,0,1-1.5-1.3c0-.2-.1-.3-.1-.4m-1-7.3,1.5,6.6c.1.4.2.7.4.8a.9.9,0,0,0,.7.3h.2v-.4h0l-2.4-7.3v-.3c0-.2-.1-.3-.2-.3h-.3c0,.1.1.2.1.4ZM381,162.3h0a14.3,14.3,0,0,1,2.7,1.9,13,13,0,0,1,2.2,3.1h.3a6.6,6.6,0,0,0-1.4-3.6A7.9,7.9,0,0,0,381,162.3Zm-10.3,2.1h-.2a13.3,13.3,0,0,0-1.1,2.6,6.7,6.7,0,0,0-.4,2.4,7.1,7.1,0,0,0,1.8,5c1.1,1.3,3.2,2.6,6.2,3.9l.4.2c6,2.5,8.9,5.2,8.9,8v.7c0,.2-.1.5-.1.8l.2.2a3.5,3.5,0,0,0,.3-1.3,4.5,4.5,0,0,0,.1-1.1,6.3,6.3,0,0,0-1.4-4,15.3,15.3,0,0,0-4.9-3.2l-1.8-.7c-6-2.7-9-5.8-9-9.4a6.9,6.9,0,0,1,.3-2A9.6,9.6,0,0,1,370.7,164.4Z"/>
			<path class="cls-1"
						d="M424.5,162.7a3.1,3.1,0,0,0,1.4,3c.8.4,3,.7,6.6.7s4.9-.6,6.1-1.8,1.9-3.1,1.9-5.9a10.9,10.9,0,0,0-3.1-8,11.3,11.3,0,0,0-8.1-3.1,4.7,4.7,0,0,0-3.7,1.3c-.7.9-1.1,2.6-1.1,5.1Zm16.2,4a11.2,11.2,0,0,1,8.2,3.8,12.4,12.4,0,0,1,3.2,8.7,15,15,0,0,1-1.3,6.2,15.3,15.3,0,0,1-3.6,5,14.5,14.5,0,0,1-5.6,3,31.4,31.4,0,0,1-8.5.9l-7.7-.2-4.7-.3-5.3.3-3.5.2a2.3,2.3,0,0,1-1.3-.3,1.2,1.2,0,0,1-.4-1.1q0-.9,1.8-1.8l1.4-.7a5.1,5.1,0,0,0,2.1-2.5,9.7,9.7,0,0,0,.7-4.1V156.4a18.7,18.7,0,0,0-.4-4.9,5.1,5.1,0,0,0-1.5-2.3,6.6,6.6,0,0,0-3.6-1.4c-1.6-.3-2.4-.8-2.4-1.6a1.4,1.4,0,0,1,.4-1.1,2,2,0,0,1,1.4-.4h1.1a65.1,65.1,0,0,0,7.5.4l6.8-.2,7.2-.3c4.9,0,8.7,1.1,11.6,3.3a10.4,10.4,0,0,1,4.3,8.8,9.5,9.5,0,0,1-1.9,6.1A12.7,12.7,0,0,1,440.7,166.7Zm-16.2,17c0,3,.6,5,1.7,6s3,1.5,6,1.5a11.3,11.3,0,0,0,8.1-2.9,9.9,9.9,0,0,0,3-7.6,10.3,10.3,0,0,0-3.6-8.4q-3.4-3-9.9-3c-2.2,0-3.6.3-4.3.8s-1,1.9-1,4.3Zm-10-36.5a6.3,6.3,0,0,1,2.3,2.8,11.3,11.3,0,0,1,.7,4.4v27.3a21.9,21.9,0,0,1-.6,6.1,7.9,7.9,0,0,1-2,3.3,4.3,4.3,0,0,0,3.2-2.5c.6-1.4.9-3.8.9-7.1V154.9a10.4,10.4,0,0,0-1-5.2A5.8,5.8,0,0,0,414.5,147.2Zm20.8-.2-.2.4a11.7,11.7,0,0,1,5.2,4.6,14.5,14.5,0,0,1,1.7,7,11.4,11.4,0,0,1-.3,2.8,8.3,8.3,0,0,1-1.4,2.3l.4.2a8.1,8.1,0,0,0,2.1-3.1,10,10,0,0,0,.7-3.9,10.3,10.3,0,0,0-2.2-6.6A10.5,10.5,0,0,0,435.3,147Zm2.9,22.6v.4a9.8,9.8,0,0,1,4.8,4,11.7,11.7,0,0,1,1.8,6.4,12.7,12.7,0,0,1-1.4,6,11,11,0,0,1-4.2,4.4l.2.3a12,12,0,0,0,5.4-4.5,12.2,12.2,0,0,0,2-6.7,10,10,0,0,0-2.3-6.6A11.7,11.7,0,0,0,438.2,169.6Z"/>
			<path class="cls-1"
						d="M470.4,161.1l12,28a9.9,9.9,0,0,0,1.3,2,3.6,3.6,0,0,0,1.5.8l.8.4c.7.2,1,.6,1,1.1a.7.7,0,0,1-.9.9l-2.6-.2h-3.6l-5.9.2h-.5a.5.5,0,0,1-.5-.3,1.1,1.1,0,0,1-.2-.6c0-.4.6-.8,1.7-1.3a2.5,2.5,0,0,0,1.7-2.4c0-.3-.1-.7-.1-1a4.9,4.9,0,0,0-.4-1.1l-1.3-3.1a3.3,3.3,0,0,0-1.1-1.7,5.6,5.6,0,0,0-2.4-.3h-6.4a4.9,4.9,0,0,0-2.6.4,2.8,2.8,0,0,0-1,1.6l-1.3,3.6-.3.8c0,.3-.1.5-.1.8a2.1,2.1,0,0,0,.8,1.6,4.8,4.8,0,0,0,2.5,1h.2c1,.2,1.6.5,1.6,1a1.2,1.2,0,0,1-.2.7l-.8.2-2.3-.2h-6.5l-1.4.2-.8-.2a1.4,1.4,0,0,1-.2-.7c0-.4.3-.8,1-1.1l1-.4a5.3,5.3,0,0,0,1.3-1.3,26.7,26.7,0,0,0,1.6-3.1l11.8-26.6h0c.2-.5.4-.7.7-.7a.5.5,0,0,1,.5.3.9.9,0,0,1,.4.6m-1.9,9a1.5,1.5,0,0,0-.4-.6c-.1-.2-.2-.2-.3-.2h-.4l-.3.5-3.6,8.3a6.4,6.4,0,0,1-.2.7,1.1,1.1,0,0,0-.1.5.5.5,0,0,0,.4.6h7.1a2.2,2.2,0,0,0,1.2-.2c.2-.1.3-.2.3-.4a1.1,1.1,0,0,0-.1-.5l-.3-.9Zm-10.9,17.8a15.8,15.8,0,0,1-1.7,3.3,5.2,5.2,0,0,1-1.7,1.6h.2a3.2,3.2,0,0,0,2.6-1.2,5.7,5.7,0,0,0,.8-3.3V188Zm18.5,4.1h.1a3,3,0,0,0,1.3-1.2,3.5,3.5,0,0,0,.5-1.8,7.8,7.8,0,0,0-.2-1.4,5.7,5.7,0,0,0-.4-1.4l-7.8-18.6a1.1,1.1,0,0,0-.3-.5l-.3-.2-.4.2c-.1.2-.2.3-.2.5a1.6,1.6,0,0,0,.4.9c0,.2.1.3.1.4l7.5,17.9a8.8,8.8,0,0,1,.5,1.5,5.9,5.9,0,0,1,.2,1.3,2.5,2.5,0,0,1-.3,1.3A1.8,1.8,0,0,1,476.1,192Z"/>
			<path class="cls-1"
						d="M498.4,174.2c0,1.1.2,1.7.7,1.9a6.8,6.8,0,0,0,3.1.4,8.2,8.2,0,0,0,5.1-1.3c1.1-.9,1.6-2.3,1.6-4.3a8.6,8.6,0,0,0-2-5.9,7.7,7.7,0,0,0-5.7-2.1,2.8,2.8,0,0,0-2.2.7,5.3,5.3,0,0,0-.6,3.1Zm10.1,3.1.9.7.8,1.3,4.7,8.8a10.4,10.4,0,0,0,1.7,2.5,2.8,2.8,0,0,0,1.8.6h1.1a.7.7,0,0,1,.7.7c0,.6-.5,1.1-1.6,1.7a6.9,6.9,0,0,1-3.5.8,5.4,5.4,0,0,1-3.8-1.8,27.3,27.3,0,0,1-4.1-6.7l-.4-.9c-1.6-3.3-2.6-5.2-3.1-5.5a4.1,4.1,0,0,0-1.1-.7h-2.3a2.8,2.8,0,0,0-1.6.3c-.3.2-.4.7-.4,1.3v6.9a6.2,6.2,0,0,0,.5,3,3.1,3.1,0,0,0,1.6,1.6l1.2.5c.9.2,1.3.6,1.3,1.1s-.1.7-.3.8-.4.2-.8.2h-2.1a21.7,21.7,0,0,0-3.6-.2,28.9,28.9,0,0,0-4,.2h-2.4c-.4,0-.7,0-.9-.2a.8.8,0,0,1-.3-.7c0-.4.5-.9,1.3-1.2l.9-.5a3.3,3.3,0,0,0,1.4-1.7,6.8,6.8,0,0,0,.5-2.7V168.8a12.6,12.6,0,0,0-.3-3.3,3.8,3.8,0,0,0-.9-1.5,4.1,4.1,0,0,0-2.2-1c-1-.2-1.5-.5-1.5-1a1,1,0,0,1,.3-.8l.8-.2h1l5.2.3,4.1-.2a40.5,40.5,0,0,1,4.5-.2c3.6,0,6.3.7,8.2,2.3a7.8,7.8,0,0,1,2.8,6.5,7.1,7.1,0,0,1-1.5,4.6A9.2,9.2,0,0,1,508.5,177.3Zm-17.1-14.6a3.5,3.5,0,0,1,1.6,1.8,8.5,8.5,0,0,1,.5,3v18.4a19.3,19.3,0,0,1-.4,4.1,7.4,7.4,0,0,1-1.4,2.2,3.2,3.2,0,0,0,2.2-1.7,13.6,13.6,0,0,0,.6-4.8V167.8a8,8,0,0,0-.7-3.5A4.3,4.3,0,0,0,491.4,162.7Zm14.1.2a10.6,10.6,0,0,1,3.1,3.3,8.7,8.7,0,0,1,1.1,4.1,12.8,12.8,0,0,1-.4,3,7.2,7.2,0,0,1-1.2,2.1h0a4.7,4.7,0,0,0,2-2.2,7.4,7.4,0,0,0,.7-3.4,7.2,7.2,0,0,0-1.4-4.4A6.8,6.8,0,0,0,505.5,162.9Zm-1.2,15.4v.3l.7.8a9.7,9.7,0,0,1,.7,1.2l3.6,7.2a19.8,19.8,0,0,0,2.6,4,5.8,5.8,0,0,0,2.9,1.8v-.2a7.5,7.5,0,0,1-2.1-2,20,20,0,0,1-2.4-4l-4.1-8-.7-1-.8-.2h-.4Z"/>
			<path class="cls-1"
						d="M315.3,221v12c0,.3,0,.6-.1.7s-.1.3-.2.3-.6-.3-1.1-.8l-.2-.3-9.7-11.5-.4-.3h-.2a.2.2,0,0,0-.2.2,1.7,1.7,0,0,0-.1.8v5.5a22.2,22.2,0,0,0,.2,3.4,2.6,2.6,0,0,0,.6,1.4,2.4,2.4,0,0,0,1.2.4q.9.2.9.6c0,.2,0,.3-.1.4h-5.7l-.3-.2c-.1-.1-.1-.2-.1-.4s.2-.3.6-.5a1.7,1.7,0,0,0,1-1,9.5,9.5,0,0,0,.4-2,16.7,16.7,0,0,0,.2-3.2v-5a9.7,9.7,0,0,0-.1-1.8,3.1,3.1,0,0,0-.6-1.3,2.1,2.1,0,0,0-1.1-.4c-.5,0-.7-.2-.7-.4s0-.4.1-.4l.3-.2h3.5c.4,0,.8.3,1.3.9h.1l8.2,9.8.5.6.4.2c.1,0,.2-.1.2-.3a2.2,2.2,0,0,0,.1-.9v-6a5.3,5.3,0,0,0-.2-2,2.3,2.3,0,0,0-.7-1,4,4,0,0,0-1.3-.4c-.5-.1-.8-.3-.8-.5a.5.5,0,0,1,.2-.4h5.9c.1.1.1.2.1.4a.5.5,0,0,1-.4.5l-.8.4a1.6,1.6,0,0,0-.6.8,6.2,6.2,0,0,0-.2,1.8m-13.2,9h0a7.8,7.8,0,0,1-.4,1.9,4.1,4.1,0,0,1-.7,1.1h0a1.4,1.4,0,0,0,1-.6,2.1,2.1,0,0,0,.3-1.2v-.4A4.5,4.5,0,0,1,302.1,230Zm-.7-12h0l.8.6.6.6,11,13.1c.1.1.1.2.2.2h.2V232l-.3-.4L304.1,220a9,9,0,0,0-1.4-1.4A3.1,3.1,0,0,0,301.4,218Zm11.8-.2h-.1a1.6,1.6,0,0,1,.8.6,6.4,6.4,0,0,1,.6,1.4h.1v-.7a1.3,1.3,0,0,0-.3-1A2.3,2.3,0,0,0,313.2,217.8Zm-20.2.1h0a2,2,0,0,1,.8.8,3.4,3.4,0,0,1,.2,1.5v9.2a5.6,5.6,0,0,1-.2,2.1,2.4,2.4,0,0,1-.6,1.1h0a1.9,1.9,0,0,0,1-1,6.2,6.2,0,0,0,.3-2.4v-8.9a4.2,4.2,0,0,0-.3-1.8A1.7,1.7,0,0,0,293,217.9Zm3.4,2.8v9.4a3.5,3.5,0,0,0,.3,1.6,1.3,1.3,0,0,0,.9.7l.8.3c.6.1.8.3.8.6s0,.3-.1.3l-.5.2h-6.9c-.1-.1-.1-.2-.1-.4s.2-.5.7-.7l.5-.2a1.8,1.8,0,0,0,.6-.8,5.2,5.2,0,0,0,.2-1.4V221a7.7,7.7,0,0,0-.1-1.8,1.8,1.8,0,0,0-.5-.7,2.2,2.2,0,0,0-1.3-.4c-.5-.1-.8-.3-.8-.6l.2-.3.4-.2h6.8c0,.1.1.2.1.4s-.2.4-.6.5a1.2,1.2,0,0,0-.8.5.8.8,0,0,0-.4.7A6.1,6.1,0,0,0,296.4,220.7Zm-16.6,3a1,1,0,0,0,.4.9c.2.2.7.2,1.6.2a4,4,0,0,0,2.5-.6,2.6,2.6,0,0,0,.8-2.2,3.9,3.9,0,0,0-1-2.9,3.8,3.8,0,0,0-2.8-1.1c-.6,0-.9.1-1.1.4a2.2,2.2,0,0,0-.4,1.5Zm5.1,1.5.5.4.4.6,2.3,4.4a6.5,6.5,0,0,0,.9,1.3,1.2,1.2,0,0,0,.9.3h.8a.4.4,0,0,1,.1.3c0,.3-.3.6-.8.9a5.3,5.3,0,0,1-1.7.4,2.6,2.6,0,0,1-2-1,11.2,11.2,0,0,1-2-3.3l-.2-.4a13.4,13.4,0,0,0-1.6-2.8,1.3,1.3,0,0,0-.6-.4H280a1.2,1.2,0,0,0-.2.7v3.4a2.8,2.8,0,0,0,.3,1.5,1.1,1.1,0,0,0,.8.8l.6.3q.6.2.6.6a.6.6,0,0,1-.1.4h-6.9a.5.5,0,0,1-.2-.4q0-.3.6-.6l.5-.3a1.8,1.8,0,0,0,.7-.8,3,3,0,0,0,.2-1.4V221a7.2,7.2,0,0,0-.1-1.7,3,3,0,0,0-.4-.8,1.9,1.9,0,0,0-1.2-.4c-.5-.1-.7-.3-.7-.6s0-.3.1-.3l.5-.2h7.4a6.3,6.3,0,0,1,4.1,1.2,4,4,0,0,1,1.4,3.2,3.6,3.6,0,0,1-.7,2.4A5.1,5.1,0,0,1,284.9,225.2Zm-8.5-7.3a1.6,1.6,0,0,1,.7.9,3.3,3.3,0,0,1,.3,1.5v9.2a9.1,9.1,0,0,1-.2,2.1,4.1,4.1,0,0,1-.7,1.1,1.4,1.4,0,0,0,1.1-.9,6.2,6.2,0,0,0,.3-2.4v-8.9a3,3,0,0,0-.4-1.8A1.5,1.5,0,0,0,276.4,217.9Zm7,.1a6.4,6.4,0,0,1,1.6,1.7,4.6,4.6,0,0,1,.5,2,6.1,6.1,0,0,1-.2,1.5,2.4,2.4,0,0,1-.6,1.1h0a1.8,1.8,0,0,0,1-1.1,3.1,3.1,0,0,0,.4-1.7,4.1,4.1,0,0,0-.7-2.2A3.5,3.5,0,0,0,283.4,218Zm-.6,7.7v.2l.3.4.4.6,1.8,3.6a11.6,11.6,0,0,0,1.3,2,2.7,2.7,0,0,0,1.5.9h0a4.7,4.7,0,0,1-1.1-1,11.7,11.7,0,0,1-1.2-2l-2-4-.4-.5h-.6Zm-21.1,3.6a4.1,4.1,0,0,0,.6,2.7,2.9,2.9,0,0,0,2.1.6,5.9,5.9,0,0,0,4.6-1.9,8.6,8.6,0,0,0-.2-10.5,6,6,0,0,0-4.8-2.1,2.6,2.6,0,0,0-1.8.4c-.3.2-.5.8-.5,1.8Zm-2.8,1.2v-9.8a6.3,6.3,0,0,0-.2-1.6,2,2,0,0,0-.8-.8l-1-.2c-.4-.1-.6-.3-.6-.5s0-.3.2-.4a.6.6,0,0,1,.5-.2h.9l1.5.2,2.6-.2h2.3a10.7,10.7,0,0,1,6.9,2,6.8,6.8,0,0,1,2.4,5.6,8.9,8.9,0,0,1-2.6,6.5,9.3,9.3,0,0,1-6.8,2.7h-3.1a18.9,18.9,0,0,0-3.5.2H257a.4.4,0,0,1-.1-.3c0-.3.2-.5.7-.7l.4-.2a2.3,2.3,0,0,0,.7-.7A5.1,5.1,0,0,0,258.9,230.5Zm7.5-12.7h-.1a6.4,6.4,0,0,1,3.5,2.8,9.7,9.7,0,0,1,1.3,4.9,8.7,8.7,0,0,1-.8,3.7,5.7,5.7,0,0,1-2,2.6h0a6.7,6.7,0,0,0,2.6-2.7,9.3,9.3,0,0,0,.8-3.9,8.4,8.4,0,0,0-1.5-5A6,6,0,0,0,266.4,217.8Zm-8.1.2h0a2,2,0,0,1,.8.8,3.4,3.4,0,0,1,.2,1.5v9.4a4.4,4.4,0,0,1-.2,1.8,2.4,2.4,0,0,1-.6,1.1h0a2.4,2.4,0,0,0,1-1,6,6,0,0,0,.3-2.3v-8.9a4.2,4.2,0,0,0-.3-1.8A2.5,2.5,0,0,0,258.3,218Zm-4.7,3v12c0,.3,0,.6-.1.7s-.1.3-.2.3-.6-.3-1.1-.8l-.2-.3-9.7-11.5-.4-.3h-.2l-.2.2c0,.2-.1.4-.1.8v5.5a22.2,22.2,0,0,0,.2,3.4,2.6,2.6,0,0,0,.6,1.4,2.4,2.4,0,0,0,1.2.4q.9.2.9.6c0,.2,0,.3-.1.4h-5.6l-.4-.2c-.1-.1-.1-.2-.1-.4s.2-.3.6-.5a1.7,1.7,0,0,0,1-1,9.5,9.5,0,0,0,.4-2,16.7,16.7,0,0,0,.2-3.2v-5a9.7,9.7,0,0,0-.1-1.8,3.1,3.1,0,0,0-.6-1.3,1.8,1.8,0,0,0-1.1-.4c-.5,0-.7-.2-.7-.4s0-.4.1-.4l.3-.2h3.5c.4,0,.8.3,1.3.9h.1l8.2,9.8.5.6.4.2c.1,0,.2-.1.2-.3a2.2,2.2,0,0,0,.1-.9v-6a5.3,5.3,0,0,0-.2-2,2.3,2.3,0,0,0-.7-1,4,4,0,0,0-1.3-.4c-.5-.1-.8-.3-.8-.5a.5.5,0,0,1,.2-.4h5.9c.1.1.1.2.1.4a.5.5,0,0,1-.4.5l-.8.4a1.6,1.6,0,0,0-.6.8A15.5,15.5,0,0,0,253.6,221Zm-13.2,9h0a7.8,7.8,0,0,1-.4,1.9,4.1,4.1,0,0,1-.7,1.1h0a1.4,1.4,0,0,0,1-.6,2.1,2.1,0,0,0,.3-1.2v-.4A4.5,4.5,0,0,0,240.4,230Zm-.7-12h0l.8.6.6.6,11,13.1.2.2h.2V232l-.3-.4L242.4,220l-1.4-1.4A3.1,3.1,0,0,0,239.7,218Zm11.8-.2h-.1a1.6,1.6,0,0,1,.8.6,6.4,6.4,0,0,1,.6,1.4h.1v-.7a1.3,1.3,0,0,0-.3-1A2.3,2.3,0,0,0,251.5,217.8Zm-22.5-.7,6,14c.2.5.4.9.7,1a1.8,1.8,0,0,0,.7.5h.4c.4.2.5.4.5.6s0,.3-.1.4h-6.9a.4.4,0,0,1-.1-.3c0-.2.3-.4.8-.7a1.2,1.2,0,0,0,.9-1.2,1.1,1.1,0,0,0-.1-.5,4.3,4.3,0,0,1-.1-.5l-.7-1.6c-.2-.4-.3-.7-.5-.8l-1.2-.2H226l-1.3.2a1.6,1.6,0,0,0-.5.8l-.6,1.8-.2.5v.3a1,1,0,0,0,.4.9,2.7,2.7,0,0,0,1.2.5h.1c.6.1.8.3.8.5s0,.3-.1.3h-5.9c-.1,0-.1-.1-.1-.3s.2-.4.5-.5l.5-.2.7-.7.8-1.5,5.9-13.4h0c.1-.2.2-.3.4-.3h.2Zm-1,4.5v-.3h-.2c-.1,0-.2,0-.2.1l-.2.2-1.7,4.2-.2.3v.3l.2.3h4.1l.2-.3v-.2l-.2-.5Zm-5.4,8.9a8.2,8.2,0,0,1-.9,1.7,3,3,0,0,1-.8.8h.1a2.1,2.1,0,0,0,1.3-.7,3.1,3.1,0,0,0,.4-1.6v-.2Zm9.2,2.1h.1a2.3,2.3,0,0,0,.7-.7,1.9,1.9,0,0,0,.2-.8,2.5,2.5,0,0,0-.1-.8,1.9,1.9,0,0,0-.2-.7l-3.9-9.3-.2-.3h-.3c-.1,0-.1.1-.1.2l.2.5v.2l3.7,9,.3.7v.6a1.5,1.5,0,0,1-.1.7A1,1,0,0,1,231.8,232.6ZM216.9,221v12a5.6,5.6,0,0,1-.1.7q-.1.3-.3.3c-.2,0-.6-.3-1-.8l-.3-.3-9.6-11.5-.4-.3h-.2l-.2.2a1.7,1.7,0,0,0-.1.8v5.5a22.2,22.2,0,0,0,.2,3.4,2.6,2.6,0,0,0,.6,1.4,2.4,2.4,0,0,0,1.2.4q.9.2.9.6c0,.2-.1.3-.1.4h-5.7l-.3-.2c-.1-.1-.1-.2-.1-.4s.2-.3.6-.5a1.8,1.8,0,0,0,.9-1,5.1,5.1,0,0,0,.5-2c.1-1,.2-2.1.2-3.2v-5a5,5,0,0,0-.2-1.8,2.9,2.9,0,0,0-.5-1.3,2.1,2.1,0,0,0-1.1-.4.8.8,0,0,1-.8-.4c0-.2.1-.4.2-.4s.1-.2.3-.2h3.5c.4,0,.8.3,1.3.9h.1l8.1,9.8.6.6.4.2c.1,0,.2-.1.2-.3a2.2,2.2,0,0,0,.1-.9v-6a8.8,8.8,0,0,0-.2-2,2.3,2.3,0,0,0-.7-1l-1.3-.4c-.5-.1-.8-.3-.8-.5s0-.3.1-.4h6c.1.1.1.2.1.4s-.1.4-.5.5l-.7.4a1.6,1.6,0,0,0-.6.8A6.2,6.2,0,0,0,216.9,221Zm-13.2,9h-.1a8.4,8.4,0,0,1-.3,1.9,4.1,4.1,0,0,1-.7,1.1h0a1.4,1.4,0,0,0,1-.6,2.1,2.1,0,0,0,.3-1.2.8.8,0,0,0-.1-.4A2.8,2.8,0,0,0,203.7,230Zm-.7-12h0l.8.6.6.6,11,13.1.2.2h.2v-.2c0-.2,0-.3-.1-.4l-.2-.4L205.7,220l-1.4-1.4A3.8,3.8,0,0,0,203,218Zm11.8-.2h-.1a1.6,1.6,0,0,1,.8.6,3.8,3.8,0,0,1,.5,1.4h.1a.4.4,0,0,0,.1-.3v-.4a1.3,1.3,0,0,0-.3-1A2.3,2.3,0,0,0,214.8,217.8Z"/>
			<path class="cls-2"
						d="M252.4,36.5h15.4a7.9,7.9,0,0,0-15.4,0m15.2,3.6a7.9,7.9,0,0,1-15,0Zm11.5,76.2h-38a36.7,36.7,0,0,0,38,0Zm-48.2-9.1a38,38,0,0,0,5.2,5.4h48a38,38,0,0,0,5.2-5.4ZM297,43,261.9,74.7v28.9h29.9A37,37,0,0,0,297,84.7ZM260.2,71.3,225.5,40.1h23.6a11.2,11.2,0,0,0,22,0h23.7Zm-37-28.4,35.1,31.6v29.1H228.4a37,37,0,0,1-5.2-18.9Zm35.1-30.3V3.8a37.1,37.1,0,0,0-34.9,32.7h10.5A26.3,26.3,0,0,1,258.3,12.6Zm0,14.4V16a23,23,0,0,0-21,20.5h11.6A11.2,11.2,0,0,1,258.3,27Zm3.6-11V27a11.4,11.4,0,0,1,9.4,9.5h11.6A23,23,0,0,0,261.9,16Zm0-12.2v8.8a26.3,26.3,0,0,1,24.4,23.9h10.5A37.1,37.1,0,0,0,261.9,3.8ZM260.1,0h0a40.8,40.8,0,0,1,40.7,40.7v44a40.7,40.7,0,1,1-81.4,0v-44A40.8,40.8,0,0,1,260.1,0Z"/>
		</g>
	</g>
</svg>
