<svg xmlns="http://www.w3.org/2000/svg" viewBox="0 0 194.4 24.5"><defs><style>.cls-1{fill:#9a7d35;}.cls-2{fill:#fff;}</style></defs><g id="Layer_2" data-name="Layer 2"><g id="Logo"><rect class="cls-1" width="194.4" height="24.5" rx="12.3"/><path class="cls-2" d="M29.7,6.6V18.1H28.1V12.9H22v5.2H20.4V6.6H22v5.2h6.1V6.6Z"/><path class="cls-2" d="M51.2,12.4a5.9,5.9,0,0,1-.4,2.3,6.8,6.8,0,0,1-1.1,1.9,5.7,5.7,0,0,1-1.8,1.2,5.9,5.9,0,0,1-2.3.4,5.3,5.3,0,0,1-2.3-.4,5.7,5.7,0,0,1-1.8-1.2,5.2,5.2,0,0,1-1.2-1.9,5.9,5.9,0,0,1-.4-2.3,6.1,6.1,0,0,1,.4-2.4,5.7,5.7,0,0,1,1.2-1.8A3.6,3.6,0,0,1,43.3,7a5.2,5.2,0,0,1,2.3-.5,5.9,5.9,0,0,1,2.3.5,3.6,3.6,0,0,1,1.8,1.2A7.8,7.8,0,0,1,50.8,10,6.1,6.1,0,0,1,51.2,12.4Zm-1.6,0a5.4,5.4,0,0,0-.3-1.9,3.2,3.2,0,0,0-.8-1.4,3,3,0,0,0-1.3-.9,4.1,4.1,0,0,0-1.6-.3,4.3,4.3,0,0,0-1.7.3,3.8,3.8,0,0,0-1.3.9,3.2,3.2,0,0,0-.8,1.4,5.4,5.4,0,0,0-.3,1.9,5.8,5.8,0,0,0,.3,1.9,3.9,3.9,0,0,0,.8,1.4,3.8,3.8,0,0,0,1.3.9,4.3,4.3,0,0,0,1.7.3,4.1,4.1,0,0,0,1.6-.3,3,3,0,0,0,1.3-.9,3.9,3.9,0,0,0,.8-1.4A5.8,5.8,0,0,0,49.6,12.4Z"/><path class="cls-2" d="M73.4,6.6V18.1H72V8.9l-3.9,7.2a.7.7,0,0,1-.6.4h-.2a.7.7,0,0,1-.5-.4L62.7,8.9a2.2,2.2,0,0,1,.1.8v8.4H61.4V6.6h1.5c.1,0,.1.1.2.2l4,7.1.2.4c0,.1.1.2.1.4s.1-.3.2-.4l.2-.4,3.9-7.1a.2.2,0,0,1,.2-.2h1.5Z"/><path class="cls-2" d="M91.4,16.8v1.3h-7V6.6h7V7.9H85.8v3.8h4.5v1.2H85.8v3.9Z"/><path class="cls-2" d="M117,6.6a5.4,5.4,0,0,1,1.9.3,4,4,0,0,1,1.3.7,2.8,2.8,0,0,1,.8,1.1,3.9,3.9,0,0,1,0,3,4.4,4.4,0,0,1-.8,1.1,4.7,4.7,0,0,1-1.4.8l-1.8.2h-1.8v4.3h-1.6V6.6Zm0,6,1.2-.2.8-.5a2,2,0,0,0,.6-.7,3.1,3.1,0,0,0,.1-1,2.4,2.4,0,0,0-.6-1.7,3.3,3.3,0,0,0-2.1-.6h-1.8v4.7Z"/><path class="cls-2" d="M139.7,18.1h-1.5l-.2-.3L136.9,15h-5.1l-1.1,2.7c0,.1-.1.2-.2.3s-.2.1-.3.1H129l4.6-11.5h1.6Zm-3.2-4.2-1.8-4.7-.2-.5c0-.2-.1-.4-.1-.6a2.8,2.8,0,0,1-.4,1.1l-1.8,4.7Z"/><path class="cls-2" d="M158.3,12.6V17a7.5,7.5,0,0,1-6.5.8,5.2,5.2,0,0,1-1.9-1.2,5.7,5.7,0,0,1-1.2-1.8,6.9,6.9,0,0,1-.5-2.4,6,6,0,0,1,.5-2.4,5.2,5.2,0,0,1,1.1-1.9,6.2,6.2,0,0,1,1.9-1.2,8.6,8.6,0,0,1,2.4-.4h1.3l1.1.3.9.5a2.1,2.1,0,0,1,.8.6l-.5.7c0,.1-.1.1-.2.2h-.4l-.4-.3-.6-.3-.9-.2h-1.1a4.8,4.8,0,0,0-1.8.3,3,3,0,0,0-1.3.9,3.4,3.4,0,0,0-.9,1.4,6.2,6.2,0,0,0,0,3.8,3.8,3.8,0,0,0,.9,1.5,4.2,4.2,0,0,0,1.4.9,5.7,5.7,0,0,0,1.8.3l1.5-.2,1.2-.5V13.8h-2.1V12.6Z"/><path class="cls-2" d="M175.7,16.8v1.3h-7V6.6h7V7.9h-5.5v3.8h4.5v1.2h-4.5v3.9Z"/></g></g></svg>