<svg xmlns="http://www.w3.org/2000/svg" viewBox="0 0 729.9 328.3"><defs><style>.cls-1,.cls-2{fill:#fff;}.cls-2{fill-rule:evenodd;}</style></defs><g id="Layer_2" data-name="Layer 2"><g id="Calque_1" data-name="Calque 1"><path class="cls-1" d="M129.8,200.3a42.9,42.9,0,0,1,19.4,5.1,9.7,9.7,0,0,0,2.8,1.1c.8,0,1.4-.5,1.9-1.5s1-1.6,1.5-1.6,1.8,1.2,1.9,3.6v.9c.1,3.2.4,6.6.8,10.3s.7,5.7.7,6.1a1.7,1.7,0,0,1-.4,1.3,1.1,1.1,0,0,1-1,.5c-.8,0-1.7-.9-2.6-2.8a65.7,65.7,0,0,0-3.6-6.1,30.8,30.8,0,0,0-10.3-9.4,26.3,26.3,0,0,0-12.7-3.4c-6,0-11.1,2.6-15.1,7.9s-6,11.9-6,20,2.4,17.7,7.5,24.2,11.2,9.7,18.5,9.7a27.9,27.9,0,0,0,10.1-2,31.3,31.3,0,0,0,9.1-5.8c.8-.8,1.9-1.9,3.1-3.3s2.2-2.2,2.9-2.2a1.5,1.5,0,0,1,1,.3,2.1,2.1,0,0,1,.3,1.2c0,.8-.6,2.1-1.8,3.8a43.6,43.6,0,0,1-4.8,5.5,36.4,36.4,0,0,1-11.3,7.1,38.8,38.8,0,0,1-14,2.4c-9.8,0-17.7-3.2-23.8-9.4s-9-14.6-9-24.7,3.3-20.1,10-27.6a32.3,32.3,0,0,1,24.9-11.2m14.3,6.9-.3.5a32.3,32.3,0,0,1,6.3,5.2,28.8,28.8,0,0,1,4.6,6.6l.5-.3c-.4-3.4-1.3-6-2.8-7.6S148.1,208.4,144.1,207.2Zm-21.4,64.6v-.4c-7.8-2.6-13.6-6.8-17.7-12.6s-6.1-13-6.1-21.4a38.7,38.7,0,0,1,3.6-16.3,39.1,39.1,0,0,1,10.1-13.7l-.2-.4a38.2,38.2,0,0,0-11.8,13.8,40.2,40.2,0,0,0-4.1,17.9c0,8.8,2.3,16.2,6.9,22S114.5,270.3,122.7,271.8ZM52.6,256.1l6.1,6.3a1.8,1.8,0,0,1,.5.7,2.8,2.8,0,0,1,.1.9,4.4,4.4,0,0,1-.2,1,2.2,2.2,0,0,1-.5.8L52.3,272a1.8,1.8,0,0,1-.7.5h-1a1.5,1.5,0,0,1-.9-.2l-.8-.5-6.2-6.3a2,2,0,0,1-.4-.8,3,3,0,0,1-.2-1,2.9,2.9,0,0,1,.2-.9l.5-.8,6.4-6.3.7-.3h1a1.3,1.3,0,0,1,.9.2Zm-5,8.2,3.7-6-.8-.9L45,263.2l-.4.7c0,.1-.1.2-.1.3s.1.6.1.8.1.2.1.3l5.7,5.4,1.3-1ZM27.4,217.2v46.7a26.7,26.7,0,0,1-1.4,8.6,34.7,34.7,0,0,1-4.5,8.1,32.9,32.9,0,0,1-7,7.3,12.2,12.2,0,0,1-6.8,2.4,10.1,10.1,0,0,1-5.6-1.4,4.6,4.6,0,0,1-2.1-4,24.5,24.5,0,0,1,.8-6.7c.5-1.8,1.2-2.7,2-2.7s2.4,1.2,4.3,3.6,3.5,3.5,4.4,3.5,2.3-.8,2.9-2.5a27.8,27.8,0,0,0,.9-8.4V218.2a27.8,27.8,0,0,0-.6-7,9.1,9.1,0,0,0-2.1-3.7,9.4,9.4,0,0,0-5.2-1.7c-2.3-.3-3.5-1-3.5-2.2a1.7,1.7,0,0,1,.7-1.5,2.5,2.5,0,0,1,1.9-.6l4.6.4a87.1,87.1,0,0,0,8.7.4,104.2,104.2,0,0,0,11-.6l1.6-.2a1.7,1.7,0,0,1,1.3.5,2.6,2.6,0,0,1,.3,1.4c0,.9-.6,1.6-1.8,2.2a8,8,0,0,0-2.6,1.9,6.6,6.6,0,0,0-1.7,2.9C27.5,211.6,27.4,213.9,27.4,217.2ZM12.8,205.1l-.2.5a7.9,7.9,0,0,1,3.5,3.5,15.2,15.2,0,0,1,1.1,6.3v49.4c0,3.3-.1,5.9-.2,7.7s-.3,3.5-.5,5.1l.5.3a15.6,15.6,0,0,0,1.7-4.7,30,30,0,0,0,.6-6.7V216.1q0-4.9-1.5-7.5A8.1,8.1,0,0,0,12.8,205.1Zm-9.3,73c-.4,0-.7.8-1,2.3a27.9,27.9,0,0,0-.4,5.3,1.8,1.8,0,0,0,.3,1.1.7.7,0,0,0,.7.4c.6,0,1.1-.6,1.4-1.7a34,34,0,0,0,.4-5.6,2.1,2.1,0,0,0-.5-1.2A1.4,1.4,0,0,0,3.5,278.1Z"/><path class="cls-1" d="M198.7,225.1c6.9,0,12.6,2.2,17.1,6.7s6.8,10.1,6.8,16.9a23.7,23.7,0,0,1-7.2,17.7c-4.7,4.7-10.8,7.1-18.3,7.1a23.3,23.3,0,0,1-17-6.7c-4.5-4.5-6.7-10.2-6.7-17.1a23.7,23.7,0,0,1,7.2-17.6c4.8-4.7,10.8-7,18.1-7m15.5,27.3c0-7.1-1.6-13-4.8-17.5s-7.3-6.7-12.3-6.7-8.5,1.6-11.2,4.9-4.1,7.7-4.1,13.4c0,7.2,1.6,12.9,4.7,17.3a14.4,14.4,0,0,0,12.3,6.6c4.8,0,8.5-1.6,11.3-4.8S214.2,258,214.2,252.4Zm-12.4-24.6q6.1,2.1,9.9,8.7a31.4,31.4,0,0,1,3.7,15.5,23.5,23.5,0,0,1-1.9,10,16.7,16.7,0,0,1-5.7,7l.3.3a15.9,15.9,0,0,0,6.7-7.3,26,26,0,0,0,2.4-11.5c0-5.8-1.3-10.7-4.1-14.8a19.5,19.5,0,0,0-11.1-8.2ZM190.9,272l.2-.3c-5-2.7-8.7-5.8-11.1-9.5a23.6,23.6,0,0,1-3.6-13.1,27.9,27.9,0,0,1,1.8-10.1,21.2,21.2,0,0,1,5.3-7.7l-.2-.4a23.6,23.6,0,0,0-6.4,8.5,24,24,0,0,0-2.3,10.5,22.3,22.3,0,0,0,4.3,13.6A24.3,24.3,0,0,0,190.9,272Z"/><path class="cls-1" d="M389.9,228.2l-.3.3a4.9,4.9,0,0,1,2.4,2.3,9.6,9.6,0,0,1,.7,4.2v25.8a25.2,25.2,0,0,1-.5,5.7,8.3,8.3,0,0,1-2,3.2v.2a5.9,5.9,0,0,0,3-2.8,18.9,18.9,0,0,0,.8-6.5V235.5a9.2,9.2,0,0,0-1-4.9,5.4,5.4,0,0,0-3.2-2.4m9.4,8v27c0,2.6.4,4.3,1.1,4.8s2.1.9,4.1.9a21.6,21.6,0,0,0,6.6-1,15.2,15.2,0,0,0,5.2-2.8,13.7,13.7,0,0,0,2.4-2.9c.7-1.2,1.2-1.8,1.7-1.8a.9.9,0,0,1,.7.4,1.5,1.5,0,0,1,.2.9,10.7,10.7,0,0,1-.7,3.5,14.2,14.2,0,0,1-1.8,3.7,8.2,8.2,0,0,1-3.5,2.9,13.1,13.1,0,0,1-5.2.9l-5.5-.3c-2.7-.2-5-.2-6.9-.2s-4.5,0-6.8.2l-3.6.3a1.7,1.7,0,0,1-1.2-.3,1.3,1.3,0,0,1-.4-1c0-.6.5-1.2,1.5-1.7l1.6-.9a4.8,4.8,0,0,0,2-2.2,10.7,10.7,0,0,0,.6-3.9V236.9a17.1,17.1,0,0,0-.4-4.6,6.2,6.2,0,0,0-1.4-2.5,7.2,7.2,0,0,0-3.4-1.1c-1.6-.2-2.3-.7-2.3-1.5a1.3,1.3,0,0,1,.4-1,2.1,2.1,0,0,1,1.2-.3l3,.2,5.6.3a78.8,78.8,0,0,0,8.2-.4h1.2a1.2,1.2,0,0,1,.9.3,1.7,1.7,0,0,1,.3,1c0,.6-.4,1-1.4,1.4a5.1,5.1,0,0,0-2.2,1.2,4.6,4.6,0,0,0-1.4,2A14.6,14.6,0,0,0,399.3,236.2Zm8.7,33.6.2.4h2.3a9.2,9.2,0,0,0,5.3-1.5,8.9,8.9,0,0,0,3.1-4.4l-.2-.2a16,16,0,0,1-4.6,3.6A19.9,19.9,0,0,1,408,269.8Z"/><path class="cls-1" d="M427.6,228.2l-.3.3a4.5,4.5,0,0,1,2.4,2.3,9.5,9.5,0,0,1,.8,4.2v25.8a19.6,19.6,0,0,1-.6,5.7,8.3,8.3,0,0,1-2,3.2v.2a5.9,5.9,0,0,0,3-2.8c.6-1.2.8-3.4.8-6.5V235.5a9.2,9.2,0,0,0-1-4.9,5.4,5.4,0,0,0-3.2-2.4m9.4,8v27c0,2.6.4,4.3,1.1,4.8s2.1.9,4.1.9a21.1,21.1,0,0,0,6.6-1,15.2,15.2,0,0,0,5.2-2.8,13.7,13.7,0,0,0,2.4-2.9c.7-1.2,1.3-1.8,1.7-1.8a.8.8,0,0,1,.7.4,1.5,1.5,0,0,1,.2.9,10.7,10.7,0,0,1-.7,3.5,14.2,14.2,0,0,1-1.8,3.7,7.6,7.6,0,0,1-3.5,2.9,13.1,13.1,0,0,1-5.2.9l-5.4-.3c-2.8-.2-5.1-.2-6.9-.2s-4.6,0-6.9.2l-3.6.3a1.9,1.9,0,0,1-1.2-.3,1.3,1.3,0,0,1-.4-1c0-.6.5-1.2,1.5-1.7l1.6-.9a4.3,4.3,0,0,0,2-2.2,10.7,10.7,0,0,0,.6-3.9V236.9a17.1,17.1,0,0,0-.4-4.6,6.2,6.2,0,0,0-1.4-2.5,7.2,7.2,0,0,0-3.4-1.1c-1.5-.2-2.3-.7-2.3-1.5a1.3,1.3,0,0,1,.4-1,2.1,2.1,0,0,1,1.2-.3l3,.2,5.6.3a77.5,77.5,0,0,0,8.2-.4h1.2a1.2,1.2,0,0,1,.9.3,1.7,1.7,0,0,1,.3,1c0,.6-.4,1-1.4,1.4a5.1,5.1,0,0,0-2.2,1.2,5.6,5.6,0,0,0-1.4,2A18.9,18.9,0,0,0,437,236.2Zm8.7,33.6.2.4h2.4a9.1,9.1,0,0,0,5.2-1.5,8.9,8.9,0,0,0,3.1-4.4l-.2-.2a14.7,14.7,0,0,1-4.6,3.6A19.9,19.9,0,0,1,445.7,269.8Z"/><path class="cls-1" d="M354,225.1c7,0,12.7,2.2,17.2,6.7a22.9,22.9,0,0,1,6.8,16.9,23.7,23.7,0,0,1-7.2,17.7c-4.8,4.7-10.9,7.1-18.3,7.1a24.2,24.2,0,0,1-16.6-41.4c4.8-4.7,10.8-7,18.1-7m15.6,27.3c0-7.1-1.6-13-4.8-17.5s-7.4-6.7-12.4-6.7a13.9,13.9,0,0,0-11.2,4.9c-2.7,3.2-4,7.7-4,13.4,0,7.2,1.5,12.9,4.6,17.3a14.5,14.5,0,0,0,12.4,6.6c4.7,0,8.5-1.6,11.2-4.8S369.6,258,369.6,252.4Zm-12.5-24.6q6.1,2.1,9.9,8.7c2.5,4.3,3.7,9.5,3.7,15.5a25.2,25.2,0,0,1-1.8,10,18.4,18.4,0,0,1-5.7,7l.2.3a15.9,15.9,0,0,0,6.7-7.3,24.7,24.7,0,0,0,2.5-11.5,26.3,26.3,0,0,0-4.1-14.8,19.4,19.4,0,0,0-11.2-8.2ZM346.3,272l.2-.3c-5-2.7-8.8-5.8-11.2-9.5a23.6,23.6,0,0,1-3.6-13.1,25.9,25.9,0,0,1,1.9-10.1,19.8,19.8,0,0,1,5.2-7.7l-.2-.4a24.8,24.8,0,0,0-6.4,8.5,25.5,25.5,0,0,0-2.3,10.5,22.4,22.4,0,0,0,4.4,13.6A23.5,23.5,0,0,0,346.3,272Z"/><path class="cls-1" d="M269.5,237.1l-.4,33.4a5.8,5.8,0,0,1-.3,2.1.8.8,0,0,1-.7.7c-.7,0-1.7-.8-2.9-2.3l-.7-.8-27.1-32-.9-1-.7-.3c-.2,0-.4.2-.6.7a8.8,8.8,0,0,0-.2,2V255a66.4,66.4,0,0,0,.5,9.8,7.1,7.1,0,0,0,1.7,3.7,6.9,6.9,0,0,0,3.4,1.3c1.7.3,2.5.8,2.5,1.6a1.3,1.3,0,0,1-.3,1,2.2,2.2,0,0,1-1.4.3l-2.5-.3a34.6,34.6,0,0,0-4.5-.2,37.7,37.7,0,0,0-4.7.2l-2.7.3a1.3,1.3,0,0,1-.9-.4,1.7,1.7,0,0,1-.4-1.3c0-.3.6-.7,1.8-1.3a5.3,5.3,0,0,0,2.6-2.7,24.1,24.1,0,0,0,1.3-5.8,63.3,63.3,0,0,0,.6-8.9v-14a19.1,19.1,0,0,0-.5-5.1,8.2,8.2,0,0,0-1.5-3.4,5.4,5.4,0,0,0-3.2-1.2c-1.3-.1-2-.6-2-1.3a1.6,1.6,0,0,1,.3-1.1,1.5,1.5,0,0,1,1-.3,6.9,6.9,0,0,1,1.8.2l1.8.3,3.4-.3,2.6-.2c1.2,0,2.5.8,3.8,2.4l.3.4,22.7,27.2a8,8,0,0,0,1.6,1.6c.5.4.8.6,1.1.6s.5-.2.6-.8a7,7,0,0,0,.3-2.4V238.1a19.3,19.3,0,0,0-.6-5.6,5.4,5.4,0,0,0-2-2.7,10.8,10.8,0,0,0-3.6-1.3c-1.5-.3-2.2-.7-2.2-1.4a1,1,0,0,1,.4-.9,1.6,1.6,0,0,1,1.1-.3l2.7.2,3.7.3,4.7-.3,3.4-.2c.5,0,.9,0,1.1.2a1.2,1.2,0,0,1,.3.9c0,.6-.5,1.1-1.4,1.5a7.7,7.7,0,0,0-2,1.3,3.9,3.9,0,0,0-1.7,2.1,18.7,18.7,0,0,0-.5,5.2m-37,25h-.2a19.9,19.9,0,0,1-1,5.2,7.6,7.6,0,0,1-2,3.1v.2a4.3,4.3,0,0,0,2.8-1.8,5.4,5.4,0,0,0,.9-3.3,9.6,9.6,0,0,0-.2-1.2A17.8,17.8,0,0,0,232.5,262.1Zm-2-33.5v.2a18.6,18.6,0,0,1,2.3,1.8l1.6,1.6,30.8,36.7a2.3,2.3,0,0,0,.5.5h.3c.1,0,.2,0,.3-.2a1.8,1.8,0,0,1,.1-.6,3,3,0,0,0-.2-1,4.1,4.1,0,0,0-.6-1.1L238,234.1a23.5,23.5,0,0,0-3.9-3.9A11.7,11.7,0,0,0,230.5,228.6Zm33-.6-.2.3a4.6,4.6,0,0,1,2.2,1.7,16.5,16.5,0,0,1,1.5,3.8h.3a2.2,2.2,0,0,0,.1-.9,7.7,7.7,0,0,1,.1-1,3.8,3.8,0,0,0-.9-2.8A5.6,5.6,0,0,0,263.5,228Z"/><path class="cls-1" d="M321.9,237.1l-.3,33.4a5.8,5.8,0,0,1-.3,2.1c-.2.4-.4.7-.7.7s-1.7-.8-2.9-2.3l-.7-.8-27.1-32-.9-1-.7-.3c-.3,0-.5.2-.6.7a8.8,8.8,0,0,0-.2,2V255a66.4,66.4,0,0,0,.5,9.8,7.1,7.1,0,0,0,1.7,3.7,6.5,6.5,0,0,0,3.4,1.3c1.6.3,2.5.8,2.5,1.6a1.3,1.3,0,0,1-.3,1,2.4,2.4,0,0,1-1.5.3l-2.4-.3a35.4,35.4,0,0,0-4.5-.2,37.7,37.7,0,0,0-4.7.2l-2.7.3a1.3,1.3,0,0,1-1-.4,2.3,2.3,0,0,1-.3-1.3c0-.3.6-.7,1.8-1.3a5.7,5.7,0,0,0,2.6-2.7,24.1,24.1,0,0,0,1.3-5.8,63.3,63.3,0,0,0,.6-8.9v-14a24.4,24.4,0,0,0-.5-5.1,8.2,8.2,0,0,0-1.5-3.4,5.4,5.4,0,0,0-3.2-1.2c-1.3-.1-2-.6-2-1.3a1.6,1.6,0,0,1,.3-1.1,1.3,1.3,0,0,1,1-.3,6.9,6.9,0,0,1,1.8.2l1.8.3,3.4-.3,2.6-.2c1.2,0,2.4.8,3.8,2.4l.3.4L315,255.9a8,8,0,0,0,1.6,1.6,1.7,1.7,0,0,0,1.1.6c.3,0,.5-.2.6-.8a7,7,0,0,0,.3-2.4V238.1a19.3,19.3,0,0,0-.6-5.6,6,6,0,0,0-2-2.7,11.7,11.7,0,0,0-3.6-1.3c-1.5-.3-2.2-.7-2.2-1.4a1,1,0,0,1,.4-.9,1.5,1.5,0,0,1,1-.3l2.8.2,3.6.3,4.8-.3,3.4-.2c.5,0,.9,0,1.1.2a2,2,0,0,1,.2.9c0,.6-.4,1.1-1.3,1.5a6.3,6.3,0,0,0-2,1.3,3.9,3.9,0,0,0-1.7,2.1,22,22,0,0,0-.6,5.2m-36.9,25h-.2a25.2,25.2,0,0,1-1,5.2,8.7,8.7,0,0,1-2,3.1v.2a4.3,4.3,0,0,0,2.8-1.8,6.2,6.2,0,0,0,.8-3.3,6.2,6.2,0,0,0-.1-1.2C285.3,263.9,285.2,263.1,285,262.1Zm-2-33.5v.2l2.3,1.8,1.6,1.6,30.8,36.7a2.3,2.3,0,0,0,.5.5h.3c.1,0,.2,0,.2-.2s.1-.3.1-.6a3.1,3.1,0,0,0-.1-1,2.8,2.8,0,0,0-.7-1.1l-27.5-32.5a35.1,35.1,0,0,0-3.9-3.9A11.7,11.7,0,0,0,283,228.6Zm33-.6-.2.3a4.3,4.3,0,0,1,2.1,1.7,12.7,12.7,0,0,1,1.6,3.8h.3c0-.2.1-.5.1-.9v-1a3.8,3.8,0,0,0-.9-2.8A5.2,5.2,0,0,0,316,228Z"/><path class="cls-1" d="M493.9,232.8l-9.6,17.5a7.8,7.8,0,0,0-.5,1.4,7.2,7.2,0,0,0-.2,1.7v7.9a19.2,19.2,0,0,0,.5,5.2,4.6,4.6,0,0,0,1.7,2.4,9.4,9.4,0,0,0,3.1.7c1.7.3,2.5.8,2.5,1.6a1.6,1.6,0,0,1-.4,1.1,1.7,1.7,0,0,1-1.3.4l-3.6-.3c-2.1-.2-3.9-.2-5.6-.2s-3.9,0-6.2.2l-4.4.3a2,2,0,0,1-1.4-.4,1.1,1.1,0,0,1-.5-.9c0-.8.7-1.3,2-1.6a12.5,12.5,0,0,0,2.9-.9,4.3,4.3,0,0,0,2.1-2.1,12.8,12.8,0,0,0,.6-4.8v-7.5a6.7,6.7,0,0,0-.8-3l-.2-.3-9.5-17.6a22.3,22.3,0,0,0-2-3,10.9,10.9,0,0,0-2.2-1.8l-1.5-.4c-1.3-.2-1.9-.7-1.9-1.4a1,1,0,0,1,.4-.9c.2-.2.7-.2,1.4-.2h.9a61.2,61.2,0,0,0,7.4.4l6.5-.3h1.1c.6,0,1,0,1.2.2s.3.4.3.8-.6,1.1-1.8,1.5-1.9,1.2-1.9,2.2a2.6,2.6,0,0,0,.3,1.1l.7,1.6,7.4,14,.3.5h.8a4.3,4.3,0,0,0,.4-.7l6.3-11.5.2-.3a9.5,9.5,0,0,0,1.1-3.1,3.3,3.3,0,0,0-.7-2.3,4.2,4.2,0,0,0-2.2-1.1l-1.8-.4c-1.1-.2-1.7-.6-1.7-1.3a1.1,1.1,0,0,1,.4-1l1.1-.2h1.1l5.9.3h1.6l1.7-.2h2.7a1.6,1.6,0,0,1,1,.2,1.1,1.1,0,0,1,.3.8,1.6,1.6,0,0,1-1.1,1.4l-.9.5a3.6,3.6,0,0,0-2,1.2,10.6,10.6,0,0,0-2,2.8m-30.6-4.2h-.1c.6.5,1.1,1.1,1.7,1.7a7.7,7.7,0,0,1,1,1.5l9.6,18.1a18.6,18.6,0,0,1,1.4,3.7,35.6,35.6,0,0,1,.4,5.5v2.9a17.5,17.5,0,0,1-.5,4.7,5,5,0,0,1-1.8,2.3l.2.3a5,5,0,0,0,2.9-2.3c.5-1,.8-3.1.8-6.3v-1.6a21.2,21.2,0,0,0-2.4-10.7l-.5-.9-8-15.2a9.1,9.1,0,0,0-2-2.4A7.7,7.7,0,0,0,463.3,228.6Zm26.2-.6v.2a5.4,5.4,0,0,1,1.8,1.4,2.9,2.9,0,0,1,.6,1.9,5.7,5.7,0,0,1-.1,1.2,10.3,10.3,0,0,1-.4,1.4h.3a5.7,5.7,0,0,0,1.2-1.8,3.9,3.9,0,0,0,.4-1.8,2.3,2.3,0,0,0-.9-1.9A5.2,5.2,0,0,0,489.5,228Z"/><path class="cls-1" d="M506.5,244.6l-2.4-14.8v-1.2a4,4,0,0,1,.7-2.6,3,3,0,0,1,2.3-.9,2.9,2.9,0,0,1,2.3.9,3.8,3.8,0,0,1,.8,2.6v.8c0,.1-.1.3-.1.4l-2.3,14.8Z"/><path class="cls-1" d="M518,268.6l-2.1-9.6a1.9,1.9,0,0,0-.2-.7v-.4a1.7,1.7,0,0,1,.3-1.2,1.1,1.1,0,0,1,1-.4c.5,0,1,.7,1.5,2.2a24.3,24.3,0,0,0,1.8,4,18.7,18.7,0,0,0,5,5.7,10.5,10.5,0,0,0,6.1,2.1,8.8,8.8,0,0,0,6.5-2.5,8.2,8.2,0,0,0,2.5-6.3c0-3.3-3.5-6.4-10.5-9.4h-.3c-5.7-2.4-9.3-4.6-10.8-6.5a12,12,0,0,1-2.2-7.6,12.6,12.6,0,0,1,13-12.8,15.9,15.9,0,0,1,5.9,1.2,17,17,0,0,0,3.9,1.2,3.7,3.7,0,0,0,1.8-.4,2.4,2.4,0,0,1,1.1-.4c.4,0,.7.1.8.3a1.6,1.6,0,0,1,.3,1.1,4.6,4.6,0,0,1-.1,1v1.3a31.5,31.5,0,0,0,.4,4.5,22.3,22.3,0,0,1,.5,4.2,2,2,0,0,1-.2.9,1.1,1.1,0,0,1-.8.3c-.6,0-1.2-.7-1.6-2.1a20.9,20.9,0,0,0-1.7-4.1,13.8,13.8,0,0,0-4.6-4.4,12.1,12.1,0,0,0-6.1-1.6,7.7,7.7,0,0,0-5.2,1.8,5.9,5.9,0,0,0-2.1,4.6,6.1,6.1,0,0,0,2,4.6c1.4,1.3,3.8,2.6,7.3,3.9l1.8.7c4.3,1.7,7.1,3.1,8.5,4.5a11.9,11.9,0,0,1,3,4.5,17,17,0,0,1,1,5.7,14.6,14.6,0,0,1-4.1,10.8c-2.6,2.7-6.3,4-10.8,4a17.5,17.5,0,0,1-5.6-1.1,28.8,28.8,0,0,0-4.7-1.2,2.1,2.1,0,0,1-2.1-1.8l-.2-.5m-1.3-10.4,2,9.4c.2.5.3.9.6,1.1a1.2,1.2,0,0,0,1,.4l.3-.2c.1,0,.1-.1.1-.3v-.4L517.3,258c-.1-.1-.1-.2-.1-.4s-.2-.4-.4-.4h-.2c0,.1-.1.1-.1.2a1.1,1.1,0,0,0,.1.5C516.6,258.1,516.6,258.2,516.7,258.2Zm17.8-30.5v.2a13.6,13.6,0,0,1,3.9,2.7,20.8,20.8,0,0,1,3.1,4.2h.3a7.9,7.9,0,0,0-1.9-4.9C538.8,228.8,537,228.1,534.5,227.7Zm-14.4,3h-.2a13.8,13.8,0,0,0-1.6,3.6,9.7,9.7,0,0,0-.5,3.4,10.4,10.4,0,0,0,2.4,7c1.6,1.8,4.5,3.6,8.8,5.5l.6.2c8.3,3.6,12.4,7.3,12.4,11.3v.9a7.4,7.4,0,0,1-.2,1.2l.4.2a7.4,7.4,0,0,0,.4-1.8,10.4,10.4,0,0,0,.2-1.5,8.4,8.4,0,0,0-2.1-5.7,18.2,18.2,0,0,0-6.9-4.4,14.2,14.2,0,0,0-2.4-1.1c-8.4-3.7-12.7-8.1-12.7-13.1a12.6,12.6,0,0,1,.4-2.8A15.7,15.7,0,0,1,520.1,230.7Z"/><path class="cls-1" d="M595.7,228.3q0,3.1,1.8,4.2t9.3.9c4,0,6.9-.8,8.6-2.4s2.6-4.4,2.6-8.3-1.4-8.5-4.3-11.3-6.7-4.2-11.4-4.2c-2.5,0-4.2.5-5.2,1.7s-1.4,3.6-1.4,7.2Zm22.6,5.6a16.2,16.2,0,0,1,11.6,5.3,17.6,17.6,0,0,1,4.4,12.2,21.9,21.9,0,0,1-1.8,8.7,19.9,19.9,0,0,1-5,7,21,21,0,0,1-7.9,4.3,42.4,42.4,0,0,1-12,1.3c-3.3,0-6.9-.2-10.8-.4l-6.5-.4a70,70,0,0,0-7.5.4l-4.9.4a3,3,0,0,1-1.8-.5,1.8,1.8,0,0,1-.6-1.5c0-1,.9-1.8,2.5-2.5l2.1-1.1a7.2,7.2,0,0,0,2.9-3.5,13.5,13.5,0,0,0,1-5.7V219.4a26.4,26.4,0,0,0-.6-6.8,7.2,7.2,0,0,0-2.1-3.3,10.1,10.1,0,0,0-5.1-2c-2.2-.3-3.4-1.1-3.4-2.2a1.7,1.7,0,0,1,.7-1.5,2.4,2.4,0,0,1,1.8-.6l1.6.2a95.1,95.1,0,0,0,10.5.6l9.6-.4c4.4-.3,7.8-.4,10.1-.4,6.8,0,12.3,1.6,16.3,4.6a14.8,14.8,0,0,1,6,12.3,13.4,13.4,0,0,1-2.7,8.6Q624,232,618.3,233.9Zm-22.6,23.9c0,4.2.7,7,2.2,8.4s4.3,2.1,8.4,2.1,8.7-1.4,11.5-4.1,4.2-6.2,4.2-10.7-1.7-9-5-11.8-8-4.1-14-4.1c-3.1,0-5.1.3-6,1.1s-1.3,2.7-1.3,6Zm-14.2-51.2a7.9,7.9,0,0,1,3.3,3.9,15.8,15.8,0,0,1,1,6.2V255a33.4,33.4,0,0,1-.8,8.5,11.6,11.6,0,0,1-2.9,4.7,6.4,6.4,0,0,0,4.5-3.6c.9-1.9,1.3-5.2,1.3-9.9V217.4c0-3.3-.5-5.7-1.5-7.4A7.6,7.6,0,0,0,581.5,206.6Zm29.3-.3-.3.6a16,16,0,0,1,7.2,6.4,18.6,18.6,0,0,1,2.5,9.8,14.8,14.8,0,0,1-.5,3.9,10.8,10.8,0,0,1-1.9,3.2l.5.3a11.6,11.6,0,0,0,3-4.3,14.7,14.7,0,0,0-10.5-19.9Zm4,31.6v.6a13.8,13.8,0,0,1,6.8,5.6,16.5,16.5,0,0,1,2.5,9,18.1,18.1,0,0,1-2,8.5,16.1,16.1,0,0,1-5.8,6.1l.2.5a16.9,16.9,0,0,0,10.3-15.8,13.8,13.8,0,0,0-3.1-9.2A16.9,16.9,0,0,0,614.8,237.9Z"/><path class="cls-1" d="M660.1,226l16.8,39.3a9.1,9.1,0,0,0,1.7,2.8,5.2,5.2,0,0,0,2.2,1.2l1.1.4a2,2,0,0,1,1.4,1.7,1.3,1.3,0,0,1-.3,1,1.4,1.4,0,0,1-.9.2l-3.6-.2a49.7,49.7,0,0,0-5.2-.2c-2.8,0-5.5.1-8.2.3h-.8a1.1,1.1,0,0,1-.7-.3,3,3,0,0,1-.2-1c0-.4.8-1,2.3-1.8a3.5,3.5,0,0,0,2.4-3.3,3.9,3.9,0,0,0-.2-1.5,7.4,7.4,0,0,0-.4-1.4l-1.9-4.5a6.5,6.5,0,0,0-1.5-2.3,7.6,7.6,0,0,0-3.4-.5h-8.9c-2,0-3.2.2-3.8.6a4.9,4.9,0,0,0-1.4,2.2l-1.8,5.1a5.3,5.3,0,0,0-.3,1.2,4.4,4.4,0,0,0-.2,1,3,3,0,0,0,1.1,2.4,8.3,8.3,0,0,0,3.5,1.3h.3c1.5.3,2.2.8,2.2,1.5a1.2,1.2,0,0,1-.3.9,1.6,1.6,0,0,1-1.1.3l-3.2-.2a48.8,48.8,0,0,0-5.3-.2,24.2,24.2,0,0,0-3.8.2l-1.9.2a1.6,1.6,0,0,1-1.1-.3,1,1,0,0,1-.4-.9q0-.9,1.5-1.5l1.3-.6a6.6,6.6,0,0,0,1.8-1.9,35.8,35.8,0,0,0,2.3-4.3l16.6-37.4h0a1.1,1.1,0,0,1,1-.9,1.1,1.1,0,0,1,.7.3l.6.9m-2.8,12.7a3.6,3.6,0,0,0-.5-.9c-.2-.2-.3-.3-.5-.3l-.5.2-.5.7-4.9,11.7a1.6,1.6,0,0,0-.3.9,2.5,2.5,0,0,0-.2.7.8.8,0,0,0,.6.8l2.4.2h7.6l1.5-.2c.4-.2.6-.4.6-.7s-.1-.3-.2-.7a5.6,5.6,0,0,0-.4-1.2Zm-15.2,25a35.1,35.1,0,0,1-2.4,4.6,10,10,0,0,1-2.4,2.2l.2.2a4.8,4.8,0,0,0,3.7-1.7,8.6,8.6,0,0,0,1.1-4.7v-.5Zm25.9,5.8h.1a4.5,4.5,0,0,0,2.5-4.2,7.1,7.1,0,0,0-.2-2,8,8,0,0,0-.6-2l-10.9-26.1-.4-.7c-.1-.2-.3-.2-.5-.2s-.4,0-.5.2a.9.9,0,0,0-.3.7,3.6,3.6,0,0,0,.5,1.3l.3.6,10.4,25.1a5.3,5.3,0,0,1,.7,2,6.8,6.8,0,0,1,.3,1.9,3.4,3.4,0,0,1-.4,1.8A3.6,3.6,0,0,1,668,269.5Z"/><path class="cls-1" d="M699.3,244.5c0,1.4.3,2.3.9,2.6s2.1.5,4.5.5,5.7-.6,7.1-1.8,2.2-3.3,2.2-6-.9-6.2-2.8-8.2a10.5,10.5,0,0,0-7.9-3,4.1,4.1,0,0,0-3.2,1c-.6.7-.8,2.1-.8,4.2Zm14.2,4.3a3.5,3.5,0,0,1,1.2,1,11.8,11.8,0,0,1,1.1,1.8l6.7,12.3a11.3,11.3,0,0,0,2.4,3.5,3.4,3.4,0,0,0,2.4.9h1.6l.7.2a1,1,0,0,1,.3.8c0,.8-.8,1.6-2.3,2.4a10.1,10.1,0,0,1-4.8,1.2,7.1,7.1,0,0,1-5.4-2.7c-1.7-1.7-3.6-4.8-5.8-9.3l-.5-1.2c-2.3-4.7-3.7-7.3-4.4-7.8a2.9,2.9,0,0,0-1.6-.9,11.7,11.7,0,0,0-3.2-.3,3.7,3.7,0,0,0-2.2.5,2.2,2.2,0,0,0-.6,1.8v9.7a11.4,11.4,0,0,0,.7,4.2,3.8,3.8,0,0,0,2.3,2.2,3.9,3.9,0,0,0,1.7.7c1.2.4,1.8.9,1.8,1.6a1.5,1.5,0,0,1-.4,1.2,1.7,1.7,0,0,1-1.2.3l-2.8-.3a45.2,45.2,0,0,0-5.1-.2,55.3,55.3,0,0,0-5.6.2l-3.5.3a1.6,1.6,0,0,1-1.1-.3,1.3,1.3,0,0,1-.4-1c0-.6.5-1.2,1.7-1.8a5,5,0,0,0,1.3-.7,4.5,4.5,0,0,0,2-2.3,10.7,10.7,0,0,0,.6-3.9V236.9a23.2,23.2,0,0,0-.3-4.6,5.4,5.4,0,0,0-1.3-2.2,6,6,0,0,0-3.1-1.4q-2.1-.3-2.1-1.5a1.3,1.3,0,0,1,.4-1,1.9,1.9,0,0,1,1.2-.3h1.4a62.4,62.4,0,0,0,7.2.4l5.8-.3c2.7-.2,4.8-.2,6.4-.2,4.9,0,8.7,1,11.4,3.2a11.2,11.2,0,0,1,4,9.1,9.9,9.9,0,0,1-2.1,6.5A13.5,13.5,0,0,1,713.5,248.8Zm-24-20.6a6.2,6.2,0,0,1,2.2,2.6,10.2,10.2,0,0,1,.7,4.2v25.8a19.6,19.6,0,0,1-.6,5.7,7.7,7.7,0,0,1-1.9,3.1,4.1,4.1,0,0,0,3-2.4q.9-1.9.9-6.6V235.5a9.2,9.2,0,0,0-1-4.9A6,6,0,0,0,689.5,228.2Zm19.8.3a14.5,14.5,0,0,1,4.3,4.7,11.7,11.7,0,0,1,1.5,5.8,12.7,12.7,0,0,1-.6,4.1,7.5,7.5,0,0,1-1.7,3l.2.2a7.6,7.6,0,0,0,2.7-3.2,11.6,11.6,0,0,0,1-4.7,10.1,10.1,0,0,0-7.4-9.9Zm-1.7,21.6-.2.5a2.4,2.4,0,0,1,.9,1.1,10.1,10.1,0,0,1,1.1,1.7l5,10.1a21.7,21.7,0,0,0,3.8,5.6,7.3,7.3,0,0,0,4,2.5v-.3a9.7,9.7,0,0,1-2.9-2.7,42.6,42.6,0,0,1-3.5-5.6l-5.7-11.3a2.9,2.9,0,0,0-1-1.3,1.6,1.6,0,0,0-1.1-.3h-.5Z"/><path class="cls-1" d="M442.4,310.1l-.2,16.8a2.5,2.5,0,0,1-.1,1c-.1.3-.2.4-.3.4s-.9-.4-1.5-1.2l-.4-.4-13.5-16c-.2-.2-.3-.4-.5-.5l-.3-.2c-.2,0-.3.2-.3.4a2.8,2.8,0,0,0-.1,1v7.7a27.9,27.9,0,0,0,.2,4.9,3.7,3.7,0,0,0,.8,1.9,4.5,4.5,0,0,0,1.8.7c.8.1,1.2.3,1.2.7s0,.5-.1.6h-2l-2.2-.2-2.4.2h-1.4a.5.5,0,0,1-.4-.2,1.2,1.2,0,0,1-.2-.7q0-.2.9-.6a2.7,2.7,0,0,0,1.3-1.3,16.8,16.8,0,0,0,.7-3c.1-1.4.2-2.9.2-4.4v-7a9.8,9.8,0,0,0-.2-2.6,3.8,3.8,0,0,0-.8-1.7,2.1,2.1,0,0,0-1.6-.6c-.6-.1-1-.3-1-.7a.8.8,0,0,1,.2-.5l.5-.2.9.2h2.6l1.3-.2a2.7,2.7,0,0,1,1.9,1.2c.1.1.1.2.2.2L439,319.6l.7.8.6.3c.1,0,.2-.1.3-.4a4.1,4.1,0,0,0,.1-1.2v-8.4a9.4,9.4,0,0,0-.3-2.8,2.8,2.8,0,0,0-.9-1.4,6.9,6.9,0,0,0-1.9-.7c-.7-.1-1.1-.3-1.1-.7a.5.5,0,0,1,.2-.4.8.8,0,0,1,.6-.2l1.3.2h4.3l1.7-.2.5.2c.1,0,.1.2.1.4a.9.9,0,0,1-.6.8,1.9,1.9,0,0,0-1,.6,2.2,2.2,0,0,0-.9,1,12.3,12.3,0,0,0-.3,2.6m-18.5,12.6h-.1a12,12,0,0,1-.5,2.6,6.2,6.2,0,0,1-1,1.6h.1a2.2,2.2,0,0,0,1.3-.9,2.9,2.9,0,0,0,.5-1.7,3.5,3.5,0,0,1-.1-.6A8.9,8.9,0,0,0,423.9,322.7Zm-1-16.8h0l1.2.9.7.8,15.5,18.4.2.3h.3a.4.4,0,0,0,.1-.3.7.7,0,0,0-.1-.5l-.3-.5-13.9-16.3a9.3,9.3,0,0,0-1.9-2A7.1,7.1,0,0,0,422.9,305.9Zm16.5-.3h-.1a2.4,2.4,0,0,1,1.1.9,4.9,4.9,0,0,1,.8,1.9h.2v-1a2,2,0,0,0-.4-1.4A2.7,2.7,0,0,0,439.4,305.6Zm-28.3.1H411a2.3,2.3,0,0,1,1.2,1.2,4.1,4.1,0,0,1,.4,2.1V322a9.7,9.7,0,0,1-.3,2.9,3.9,3.9,0,0,1-1,1.6h.1a2.4,2.4,0,0,0,1.4-1.4,8,8,0,0,0,.5-3.3V309.3a5.1,5.1,0,0,0-.5-2.4A2.7,2.7,0,0,0,411.1,305.7Zm4.8,4v13.2a4.3,4.3,0,0,0,.4,2.2,1.7,1.7,0,0,0,1.3,1l1.1.4c.8.1,1.1.4,1.1.8s0,.4-.2.5l-.7.2h-1.8l-3-.2-2.5.2h-1.7l-.6-.2a.6.6,0,0,1-.2-.5c0-.3.3-.6,1-.9l.7-.3a2.4,2.4,0,0,0,.8-1.1,5.6,5.6,0,0,0,.3-2V310a7.6,7.6,0,0,0-.2-2.5,1.7,1.7,0,0,0-.7-1,4.3,4.3,0,0,0-1.7-.5c-.7-.1-1.1-.4-1.1-.8s0-.4.2-.5a.8.8,0,0,1,.6-.2h.5l2.7.2a43.9,43.9,0,0,0,5.4-.3h.3l.6.2c.1.1.1.2.1.4s-.2.6-.8.8l-1.1.6a1.7,1.7,0,0,0-.6,1.1A10.6,10.6,0,0,0,415.9,309.7Zm-23.3,4.1c0,.8.2,1.2.5,1.4a9.2,9.2,0,0,0,2.3.2,5.4,5.4,0,0,0,3.5-.9,3.5,3.5,0,0,0,1.2-3,5.4,5.4,0,0,0-1.5-4.1,5.1,5.1,0,0,0-3.9-1.5c-.8,0-1.3.1-1.6.5a3.2,3.2,0,0,0-.5,2.1Zm7.2,2.2.6.5.5.9,3.4,6.2a4.6,4.6,0,0,0,1.2,1.8,2.1,2.1,0,0,0,1.2.4h1.2c.1.1.1.2.1.4s-.4.8-1.1,1.2a5.4,5.4,0,0,1-2.5.6,3.8,3.8,0,0,1-2.7-1.3,19.7,19.7,0,0,1-2.8-4.7l-.3-.6a19.1,19.1,0,0,0-2.2-3.9,1.4,1.4,0,0,0-.8-.5H394a2,2,0,0,0-1.1.2,1.2,1.2,0,0,0-.3.9v4.9a5.8,5.8,0,0,0,.3,2.1,2.2,2.2,0,0,0,1.2,1.1l.8.4c.6.1.9.4.9.8a.7.7,0,0,1-.1.5l-.7.2h-1.4l-2.5-.2-2.9.2h-1.7l-.6-.2a.5.5,0,0,1-.2-.4q0-.6.9-.9l.6-.4a3.2,3.2,0,0,0,1.1-1.2,5,5,0,0,0,.3-1.9V310a11.3,11.3,0,0,0-.2-2.3,2.6,2.6,0,0,0-.7-1.1,2.6,2.6,0,0,0-1.5-.6c-.7-.2-1.1-.4-1.1-.8a.8.8,0,0,1,.2-.5l.6-.2h.7l3.7.2h2.9l3.2-.2a9.6,9.6,0,0,1,5.7,1.6,5.7,5.7,0,0,1,2,4.6A5.2,5.2,0,0,1,403,314,6.3,6.3,0,0,1,399.8,316Zm-12.1-10.3a3,3,0,0,1,1.2,1.3,6.6,6.6,0,0,1,.3,2.1V322a9.7,9.7,0,0,1-.3,2.9,3.9,3.9,0,0,1-1,1.6,2.3,2.3,0,0,0,1.6-1.2,9.4,9.4,0,0,0,.4-3.4V309.3a5.1,5.1,0,0,0-.5-2.4A2.5,2.5,0,0,0,387.7,305.7Zm10,.1a8.2,8.2,0,0,1,2.2,2.4,7.3,7.3,0,0,1,.7,2.9,6.6,6.6,0,0,1-.3,2.1,10.9,10.9,0,0,1-.8,1.5h0a4.3,4.3,0,0,0,1.4-1.6,6,6,0,0,0,.5-2.4,4.6,4.6,0,0,0-1-3.1A4.9,4.9,0,0,0,397.7,305.8Zm-.9,10.9v.2c.2.2.4.3.5.6a2.8,2.8,0,0,1,.5.8l2.5,5.1a19.1,19.1,0,0,0,1.9,2.8,4.3,4.3,0,0,0,2.1,1.3v-.2a4.5,4.5,0,0,1-1.5-1.4,20.3,20.3,0,0,1-1.7-2.8l-2.9-5.6a1.4,1.4,0,0,0-.4-.7h-.9Zm-29.6,5c0,1.9.3,3.2.8,3.8a4.1,4.1,0,0,0,3,.9,8.2,8.2,0,0,0,6.4-2.7,10.4,10.4,0,0,0,2.4-7.2,11.3,11.3,0,0,0-2.6-7.6,8.9,8.9,0,0,0-6.8-2.9,4.7,4.7,0,0,0-2.5.5,3.7,3.7,0,0,0-.7,2.6Zm-4,1.6V309.7a5.7,5.7,0,0,0-.3-2.2,2.5,2.5,0,0,0-1.1-1.2,3.5,3.5,0,0,0-1.3-.3c-.6-.1-.9-.4-.9-.7a1.4,1.4,0,0,1,.2-.6l.7-.2,1.3.2h5.8l3.2-.2c4.2,0,7.5.9,9.7,2.8s3.4,4.4,3.4,7.8a12.4,12.4,0,0,1-3.7,9.2,13,13,0,0,1-9.6,3.7h-2l-2.3-.2a35.8,35.8,0,0,0-4.9.3h-.3l-.5-.2a.5.5,0,0,1-.2-.4c0-.3.3-.6,1-.9l.5-.3a1.9,1.9,0,0,0,1-1A5,5,0,0,0,363.2,323.3Zm10.5-17.7h0a8.9,8.9,0,0,1,4.8,4,12.7,12.7,0,0,1,1.8,6.9,11.9,11.9,0,0,1-1,5.1,9.6,9.6,0,0,1-2.9,3.7h.1a9.8,9.8,0,0,0,3.6-3.7,13.5,13.5,0,0,0,1.1-5.5,12.5,12.5,0,0,0-2-7A8.7,8.7,0,0,0,373.7,305.6Zm-11.3.3v.2a2,2,0,0,1,1.1,1.1,5.6,5.6,0,0,1,.4,2.1v13.2a7,7,0,0,1-.3,2.4,5.1,5.1,0,0,1-.9,1.6h0a2.4,2.4,0,0,0,1.4-1.4,7.2,7.2,0,0,0,.5-3.2V309.5a5.5,5.5,0,0,0-.5-2.5A3,3,0,0,0,362.4,305.9Zm-6.5,4.2-.2,16.8c0,.5-.1.8-.1,1s-.2.4-.4.4-.8-.4-1.5-1.2l-.3-.4-13.6-16-.5-.5-.3-.2c-.1,0-.2.2-.3.4a2.8,2.8,0,0,0-.1,1v7.7a44.2,44.2,0,0,0,.2,4.9,3.7,3.7,0,0,0,.9,1.9,3.9,3.9,0,0,0,1.7.7c.8.1,1.2.3,1.2.7s0,.5-.1.6h-2l-2.2-.2-2.4.2h-1.3l-.5-.2a1.2,1.2,0,0,1-.2-.7q0-.2.9-.6a2.4,2.4,0,0,0,1.3-1.3,11,11,0,0,0,.7-3,31.5,31.5,0,0,0,.3-4.4v-7a9.3,9.3,0,0,0-.3-2.6,3.8,3.8,0,0,0-.7-1.7,2.3,2.3,0,0,0-1.6-.6c-.7-.1-1-.3-1-.7a.7.7,0,0,1,.1-.5l.5-.2.9.2h2.6l1.4-.2a2.6,2.6,0,0,1,1.8,1.2l.2.2,11.4,13.7a6,6,0,0,0,.8.8l.5.3c.2,0,.3-.1.4-.4s.1-.7.1-1.2v-8.4a9.4,9.4,0,0,0-.3-2.8,2.4,2.4,0,0,0-1-1.4,7.5,7.5,0,0,0-1.8-.7c-.8-.1-1.1-.3-1.1-.7s0-.3.2-.4l.5-.2,1.4.2h4.2l1.7-.2a.6.6,0,0,1,.5.2c.1,0,.2.2.2.4s-.2.6-.7.8a2.4,2.4,0,0,0-1,.6,2.2,2.2,0,0,0-.9,1A14.2,14.2,0,0,0,355.9,310.1Zm-18.6,12.6h-.1a8,8,0,0,1-.5,2.6,4.4,4.4,0,0,1-1,1.6h.1a2.3,2.3,0,0,0,1.8-2.6,1.8,1.8,0,0,0-.1-.6A8.9,8.9,0,0,0,337.3,322.7Zm-1-16.8h0l1.2.9a6,6,0,0,1,.8.8l15.5,18.4.2.3h.3V326a.7.7,0,0,0-.1-.5c0-.2-.1-.3-.3-.5l-13.8-16.3a9.3,9.3,0,0,0-2-2A4.9,4.9,0,0,0,336.3,305.9Zm16.6-.3h-.1a3.1,3.1,0,0,1,1.1.9,7.7,7.7,0,0,1,.7,1.9h.2v-.4a1.8,1.8,0,0,0,.1-.6,2,2,0,0,0-.5-1.4A2.6,2.6,0,0,0,352.9,305.6Zm-31.6-1,8.5,19.7a3.4,3.4,0,0,0,.8,1.4,2.4,2.4,0,0,0,1.1.6l.6.2c.4.2.7.5.7.8a1.2,1.2,0,0,1-.1.5l-.5.2h-1.9l-2.5-.2-4.1.2h-.4a.5.5,0,0,1-.4-.2.7.7,0,0,1-.1-.5q0-.3,1.2-.9a1.8,1.8,0,0,0,1.2-1.7c0-.2-.1-.4-.1-.7l-.3-.7-.9-2.2a3.1,3.1,0,0,0-.7-1.2,3.4,3.4,0,0,0-1.7-.3h-4.5a3.8,3.8,0,0,0-1.9.3,2.2,2.2,0,0,0-.7,1.2l-.9,2.5a1.4,1.4,0,0,0-.2.6,1.1,1.1,0,0,0-.1.5,1.4,1.4,0,0,0,.6,1.2,4.6,4.6,0,0,0,1.7.7h.2c.7.2,1.1.4,1.1.7a.6.6,0,0,1-.2.5l-.5.2h-1.6l-2.7-.2-1.9.2h-1l-.5-.2a.6.6,0,0,1-.2-.5c0-.3.2-.5.7-.7l.7-.3a3,3,0,0,0,.9-1,9.6,9.6,0,0,0,1.1-2.1l8.4-18.8h0a.5.5,0,0,1,.5-.4l.3.2C321.2,304.3,321.2,304.4,321.3,304.6Zm-1.4,6.4a.8.8,0,0,0-.2-.5l-.2-.2-.3.2-.3.3-2.4,5.9a.8.8,0,0,0-.2.4c0,.2-.1.3-.1.4s.1.3.3.4h5.8c.2-.1.3-.2.3-.4a.8.8,0,0,0-.1-.3c-.1-.2-.1-.4-.2-.6Zm-7.6,12.5a14.7,14.7,0,0,1-1.2,2.3,3.2,3.2,0,0,1-1.2,1.1h.1a1.9,1.9,0,0,0,1.8-.9,3.7,3.7,0,0,0,.6-2.3v-.3Zm13,2.9h.1a2.4,2.4,0,0,0,.9-.8,2.8,2.8,0,0,0,.3-1.3,3.8,3.8,0,0,0-.1-1l-.3-1-5.5-13.1c0-.1-.1-.3-.2-.3H320a.4.4,0,0,0-.1.3,2.5,2.5,0,0,0,.2.7l.2.3,5.2,12.6a4.2,4.2,0,0,1,.4,1,2.8,2.8,0,0,1,.1.9,3,3,0,0,1-.2,1Zm-21-16.3-.2,16.8a2.5,2.5,0,0,1-.1,1c-.1.3-.2.4-.3.4s-.9-.4-1.5-1.2-.3-.3-.4-.4l-13.5-16-.5-.5-.3-.2c-.2,0-.3.2-.3.4a2.8,2.8,0,0,0-.1,1v7.7a44.2,44.2,0,0,0,.2,4.9,3.7,3.7,0,0,0,.9,1.9,3.4,3.4,0,0,0,1.7.7c.8.1,1.2.3,1.2.7s0,.5-.1.6h-2l-2.2-.2-2.4.2H283a.5.5,0,0,1-.4-.2,1.2,1.2,0,0,1-.2-.7q0-.2.9-.6a2.7,2.7,0,0,0,1.3-1.3,16.8,16.8,0,0,0,.7-3,31.5,31.5,0,0,0,.3-4.4v-7a9.3,9.3,0,0,0-.3-2.6,3.8,3.8,0,0,0-.7-1.7,2.5,2.5,0,0,0-1.7-.6c-.6-.1-1-.3-1-.7a.8.8,0,0,1,.2-.5l.5-.2.9.2h2.6l1.3-.2a2.7,2.7,0,0,1,1.9,1.2c.1.1.1.2.2.2l11.4,13.7.7.8.6.3c.1,0,.2-.1.3-.4a4.1,4.1,0,0,0,.1-1.2v-8.4a9.4,9.4,0,0,0-.3-2.8,2.3,2.3,0,0,0-.9-1.4,6.9,6.9,0,0,0-1.9-.7c-.7-.1-1.1-.3-1.1-.7a.5.5,0,0,1,.2-.4.8.8,0,0,1,.6-.2l1.3.2h4.3l1.7-.2.5.2c.1,0,.1.2.1.4a.9.9,0,0,1-.6.8,1.9,1.9,0,0,0-1,.6,2.2,2.2,0,0,0-.9,1C304.5,308,304.4,308.9,304.3,310.1Zm-18.5,12.6h-.1a12,12,0,0,1-.5,2.6,6.2,6.2,0,0,1-1,1.6h.1a2.2,2.2,0,0,0,1.3-.9,2.9,2.9,0,0,0,.5-1.7,3.5,3.5,0,0,1-.1-.6A8.9,8.9,0,0,0,285.8,322.7Zm-1-16.8h0l1.2.9.7.8,15.5,18.4.2.3h.3c.1,0,.1-.1.1-.3a.7.7,0,0,0-.1-.5l-.3-.5-13.8-16.3a12.3,12.3,0,0,0-2-2A7.1,7.1,0,0,0,284.8,305.9Zm16.5-.3h-.1a2.4,2.4,0,0,1,1.1.9,4.9,4.9,0,0,1,.8,1.9h.2v-1a2,2,0,0,0-.4-1.4A2.7,2.7,0,0,0,301.3,305.6Z"/><path class="cls-2" d="M354.2,51.2h21.5a11,11,0,0,0-10.8-8.7,10.9,10.9,0,0,0-10.7,8.7m21.2,5.1a11,11,0,0,1-10.5,7.6,10.9,10.9,0,0,1-10.4-7.6Zm16.2,106.8H338.2a51.1,51.1,0,0,0,26.7,7.5A50.6,50.6,0,0,0,391.6,163.1ZM324,150.4a52.1,52.1,0,0,0,7.2,7.6h67.4a47.8,47.8,0,0,0,7.3-7.6Zm92.7-90-49.2,44.4v40.5h41.9a51.6,51.6,0,0,0,7.3-26.5ZM365,100.1,316.5,56.3h33a15.8,15.8,0,0,0,30.9,0h33.2ZM313.1,60.2l49.3,44.4v40.7H320.5a50.8,50.8,0,0,1-7.4-26.5Zm49.3-42.6V5.4a52,52,0,0,0-48.9,45.8h14.6A37.1,37.1,0,0,1,362.4,17.6Zm0,20.3V22.4A32.3,32.3,0,0,0,333,51.2h16.3A15.8,15.8,0,0,1,362.4,37.9Zm5.1-15.5V37.9a15.8,15.8,0,0,1,13.1,13.3h16.3A32.4,32.4,0,0,0,367.5,22.4Zm0-17V17.6a37.1,37.1,0,0,1,34.2,33.6h14.7A52,52,0,0,0,367.5,5.4ZM364.9,0h0a57.3,57.3,0,0,1,57.2,57.1v61.7a57.2,57.2,0,0,1-114.3,0V57.1A57.3,57.3,0,0,1,364.9,0Z"/></g></g></svg>