<svg xmlns="http://www.w3.org/2000/svg" viewBox="0 0 729.9 90">
	<defs>
		<style>
			.cls-1{fill:#fff}
		</style>
	</defs>
	<g id="Layer_2">
		<g id="Calque_1">
			<path class="cls-1" d="M129.8 0a42.9 42.9 0 0119.4 5.1 14.9 14.9 0 002.8 1.1c.8 0 1.4-.5 1.9-1.6s1-1.5 1.5-1.5 1.8 1.2 1.9 3.6v.9c.1 3.1.4 6.6.8 10.2l.7 6.2a1.8 1.8 0 01-.4 1.3 1.1 1.1 0 01-1 .5c-.8 0-1.7-1-2.6-2.8a54.7 54.7 0 00-3.6-6.1 29.8 29.8 0 00-10.3-9.4 25.2 25.2 0 00-12.7-3.4c-6 0-11.1 2.6-15.1 7.9s-6 11.9-6 19.9c0 9.7 2.4 17.8 7.5 24.3s11.2 9.7 18.5 9.7a26.1 26.1 0 0010.1-2.1 31.3 31.3 0 009.1-5.8 26.2 26.2 0 003.1-3.3c1.2-1.4 2.2-2.2 2.9-2.2a1.5 1.5 0 011 .4 2 2 0 01.3 1.1q0 1.3-1.8 3.9a37.3 37.3 0 01-4.8 5.4 35 35 0 01-11.3 7.2 41.1 41.1 0 01-14 2.3c-9.8 0-17.7-3.1-23.8-9.4s-9-14.5-9-24.7 3.3-20.1 10-27.5A32 32 0 01129.8 0m14.3 6.9l-.3.5a29.1 29.1 0 016.3 5.2 28.8 28.8 0 014.6 6.6l.5-.3c-.4-3.5-1.3-6-2.8-7.7s-4.3-3.1-8.3-4.3zm-21.4 64.6V71c-7.8-2.5-13.6-6.7-17.7-12.5s-6-13-6-21.4a39.1 39.1 0 013.6-16.4 39.7 39.7 0 0110.1-13.6l-.2-.4a38.2 38.2 0 00-11.8 13.8 39.8 39.8 0 00-4.1 17.8c0 8.9 2.3 16.2 6.9 22.1s11 9.6 19.2 11.1zM52.6 55.8l6.1 6.3a1.5 1.5 0 01.5.6 3.1 3.1 0 01.1 1 2.9 2.9 0 01-.2.9 2.2 2.2 0 01-.5.8l-6.3 6.3-.7.4-1 .2-.9-.2-.8-.5-6.2-6.4a1.6 1.6 0 01-.4-.7 3 3 0 01-.2-1 2.9 2.9 0 01.2-.9 5.6 5.6 0 01.5-.8l6.4-6.3.7-.4h1l.9.2a2.4 2.4 0 01.8.5zm-5 8.2l3.7-6-.8-1-5.5 5.9-.4.6-.1.4a5.6 5.6 0 00.1.7l.1.3 5.7 5.4 1.3-.9zM27.4 16.9v46.7a26.1 26.1 0 01-1.4 8.5 35.3 35.3 0 01-4.5 8.2 32.1 32.1 0 01-7 7.2A11.7 11.7 0 017.7 90a9.3 9.3 0 01-5.6-1.5A4.6 4.6 0 010 84.6a24.8 24.8 0 01.8-6.8c.5-1.7 1.2-2.6 2-2.6s2.4 1.2 4.3 3.5 3.5 3.6 4.4 3.6 2.3-.9 2.9-2.5a27.8 27.8 0 00.9-8.4V17.8a28.3 28.3 0 00-.6-7 8.8 8.8 0 00-2.1-3.6 10.2 10.2 0 00-5.2-1.8c-2.3-.2-3.5-1-3.5-2.1a1.9 1.9 0 01.7-1.6 2.6 2.6 0 011.9-.5l4.6.4a87.1 87.1 0 008.7.4 83.3 83.3 0 0011-.7h1.6a1.7 1.7 0 011.3.4 2.8 2.8 0 01.3 1.4c0 .8-.6 1.6-1.8 2.2a6.8 6.8 0 00-2.6 1.9 5.6 5.6 0 00-1.7 2.9c-.4 1.2-.5 3.5-.5 6.8zM12.8 4.8l-.2.5a7.4 7.4 0 013.5 3.5 14.5 14.5 0 011.1 6.3v49.3l-.2 7.8-.5 5.1.5.3a16.6 16.6 0 001.7-4.7 30.4 30.4 0 00.6-6.8V15.7q0-4.9-1.5-7.5a8 8 0 00-5-3.4zm-9.3 73c-.4 0-.7.7-1 2.3a27.2 27.2 0 00-.4 5.3 2 2 0 00.3 1.1.8.8 0 00.7.4c.6 0 1.1-.6 1.4-1.8a32.5 32.5 0 00.4-5.5 2.1 2.1 0 00-.5-1.2 1.4 1.4 0 00-.9-.6zM198.7 24.7a23.2 23.2 0 0117.1 6.8 22.5 22.5 0 016.8 16.8 23.8 23.8 0 01-7.2 17.8c-4.7 4.7-10.8 7-18.3 7s-12.5-2.2-17-6.7-6.7-10.1-6.7-17a23.7 23.7 0 017.2-17.6 24.8 24.8 0 0118.1-7.1m15.5 27.4c0-7.2-1.6-13-4.8-17.5s-7.3-6.8-12.3-6.8a13.9 13.9 0 00-11.2 4.9c-2.7 3.3-4.1 7.8-4.1 13.5s1.6 12.9 4.7 17.3a15.1 15.1 0 0023.6 1.7c2.8-3.2 4.1-7.6 4.1-13.1zm-12.4-24.6a18.3 18.3 0 019.9 8.6 32 32 0 013.7 15.5 24 24 0 01-1.9 10.1 16.7 16.7 0 01-5.7 7l.3.2a15.2 15.2 0 006.7-7.2 26.4 26.4 0 002.4-11.6c0-5.7-1.3-10.7-4.1-14.7a19.5 19.5 0 00-11.1-8.2zm-10.9 44.1l.2-.2q-7.5-4.1-11.1-9.6a23.4 23.4 0 01-3.6-13.1 27.3 27.3 0 011.8-10 21.6 21.6 0 015.3-7.8l-.2-.3a22.4 22.4 0 00-6.4 8.4 24.3 24.3 0 00-2.3 10.5 22.6 22.6 0 004.3 13.7 23.6 23.6 0 0012 8.4zM389.9 27.9l-.3.3a4.9 4.9 0 012.4 2.3 9.6 9.6 0 01.7 4.2v25.7a25.6 25.6 0 01-.5 5.8 7.9 7.9 0 01-2 3.1v.3a6.3 6.3 0 003-2.8 19.2 19.2 0 00.8-6.6V35.1a9.4 9.4 0 00-1-4.9 5.3 5.3 0 00-3.2-2.3m9.4 8v26.9c0 2.7.4 4.3 1.1 4.9s2.1.9 4.1.9a25.1 25.1 0 006.6-1 17.1 17.1 0 005.2-2.8 12.2 12.2 0 002.4-3c.7-1.1 1.2-1.7 1.7-1.7a.9.9 0 01.7.4c.2.2.2.5.2.9a11.8 11.8 0 01-.7 3.5 15.9 15.9 0 01-1.8 3.7 8 8 0 01-3.5 2.8 13.1 13.1 0 01-5.2.9l-5.5-.2-6.9-.3-6.8.3-3.6.2a1.7 1.7 0 01-1.2-.3 1.1 1.1 0 01-.4-1c0-.6.5-1.1 1.5-1.7l1.6-.9a5.1 5.1 0 002-2.1 10.7 10.7 0 00.6-3.9V36.5a16.2 16.2 0 00-.3-4.5 5.6 5.6 0 00-1.4-2.5 7.1 7.1 0 00-3.4-1.2c-1.6-.1-2.3-.6-2.3-1.4a1.2 1.2 0 01.4-1 1.6 1.6 0 011.2-.4l3 .3 5.6.3a80 80 0 008.2-.5h1.2a1 1 0 01.9.4 1.5 1.5 0 01.3 1c0 .5-.4 1-1.4 1.3a6.4 6.4 0 00-2.2 1.3 4.3 4.3 0 00-1.4 1.9 15.3 15.3 0 00-.4 4.4zm8.8 33.6l.2.3 1.4.2h.9a9.2 9.2 0 005.3-1.6 8.2 8.2 0 003.1-4.3l-.2-.2a14.1 14.1 0 01-4.6 3.5 19.9 19.9 0 01-6.1 2.1zM427.6 27.9l-.3.3a4.5 4.5 0 012.4 2.3 9.5 9.5 0 01.8 4.2v25.7a19.9 19.9 0 01-.6 5.8 7.9 7.9 0 01-2 3.1v.3a6.3 6.3 0 003-2.8c.6-1.2.8-3.4.8-6.6V35.1a9.4 9.4 0 00-1-4.9 5.3 5.3 0 00-3.2-2.3m9.4 8v26.9c0 2.7.4 4.3 1.1 4.9s2.1.9 4.1.9a24.5 24.5 0 006.6-1 17.1 17.1 0 005.2-2.8 12.2 12.2 0 002.4-3c.7-1.1 1.3-1.7 1.7-1.7a.8.8 0 01.7.4c.2.2.2.5.2.9a11.8 11.8 0 01-.7 3.5 15.9 15.9 0 01-1.8 3.7 7.4 7.4 0 01-3.5 2.8 13.1 13.1 0 01-5.2.9l-5.4-.2-6.9-.3-6.9.3-3.6.2a1.9 1.9 0 01-1.2-.3 1.1 1.1 0 01-.4-1c0-.6.5-1.1 1.5-1.7l1.6-.9a4.5 4.5 0 002-2.1 10.7 10.7 0 00.6-3.9V36.5a16.2 16.2 0 00-.4-4.5 5.6 5.6 0 00-1.4-2.5 7.1 7.1 0 00-3.4-1.2c-1.5-.1-2.3-.6-2.3-1.4a1.2 1.2 0 01.4-1 1.6 1.6 0 011.2-.4l3 .3 5.6.3a78.3 78.3 0 008.2-.5h1.2a1 1 0 01.9.4 1.5 1.5 0 01.3 1c0 .5-.4 1-1.4 1.3a6.4 6.4 0 00-2.2 1.3 5.2 5.2 0 00-1.4 1.9 20 20 0 00-.3 4.4zm8.7 33.6l.2.3 1.4.2h1a9.1 9.1 0 005.2-1.6 8.2 8.2 0 003.1-4.3l-.2-.2a13.1 13.1 0 01-4.6 3.5 19.9 19.9 0 01-6 2.1zM354 24.7c7 0 12.7 2.3 17.2 6.8a22.8 22.8 0 016.8 16.8 23.8 23.8 0 01-7.2 17.8c-4.8 4.7-10.9 7-18.3 7s-12.6-2.2-17.1-6.7a23.3 23.3 0 01-6.7-17 23.7 23.7 0 017.2-17.6 24.8 24.8 0 0118.1-7.1m15.6 27.4c0-7.2-1.6-13-4.8-17.5s-7.4-6.8-12.4-6.8a14.2 14.2 0 00-11.2 4.9c-2.7 3.3-4 7.8-4 13.5s1.5 12.9 4.6 17.3a14.5 14.5 0 0012.4 6.6 14 14 0 0011.2-4.9c2.8-3.2 4.2-7.6 4.2-13.1zm-12.5-24.6a18.3 18.3 0 019.9 8.6 30.9 30.9 0 013.7 15.5 25.7 25.7 0 01-1.8 10.1 18.4 18.4 0 01-5.7 7l.2.2a15.2 15.2 0 006.7-7.2 25.1 25.1 0 002.5-11.6 25.9 25.9 0 00-4.1-14.7 19.4 19.4 0 00-11.2-8.2zm-10.8 44.1l.2-.2a30 30 0 01-11.2-9.6 23.4 23.4 0 01-3.6-13.1 25.4 25.4 0 011.9-10 20.2 20.2 0 015.2-7.8l-.2-.3a23.5 23.5 0 00-6.4 8.4 25.8 25.8 0 00-2.3 10.5 22.8 22.8 0 0016.4 22.1zM269.5 36.7l-.4 33.5a4.9 4.9 0 01-.3 2c-.1.5-.4.8-.7.8s-1.7-.8-2.9-2.4l-.7-.8-27.1-32a7.6 7.6 0 00-.9-.9l-.7-.4c-.2 0-.4.3-.6.7a10.6 10.6 0 00-.2 2.1v15.4a64.7 64.7 0 00.5 9.7 6.7 6.7 0 001.7 3.7 6.8 6.8 0 003.4 1.4c1.7.2 2.5.7 2.5 1.5a1.4 1.4 0 01-.3 1.1l-1.4.2-2.5-.2-4.5-.3-4.7.3-2.7.2a1 1 0 01-.9-.4c-.3-.2-.4-.7-.4-1.3s.6-.6 1.8-1.2a5.7 5.7 0 002.6-2.7 24 24 0 001.3-5.9 61.9 61.9 0 00.6-8.8V38a18.2 18.2 0 00-.5-5.1 8.2 8.2 0 00-1.5-3.4 6.2 6.2 0 00-3.2-1.3c-1.3-.1-2-.5-2-1.2a1.6 1.6 0 01.3-1.1 1.2 1.2 0 011-.4l1.8.3 1.8.3 3.4-.3 2.6-.3c1.2 0 2.5.8 3.8 2.5a.5.5 0 01.3.4l22.7 27.2 1.6 1.6c.5.4.8.6 1.1.6s.5-.3.6-.8a7.8 7.8 0 00.3-2.4V37.8a18.8 18.8 0 00-.6-5.6 4.6 4.6 0 00-2-2.7 9 9 0 00-3.6-1.3c-1.5-.3-2.2-.8-2.2-1.4a1.3 1.3 0 01.4-1 1.6 1.6 0 011.1-.3l2.7.3 3.7.3 4.7-.3 3.4-.3a1.6 1.6 0 011.1.3 1.2 1.2 0 01.3.9c0 .6-.5 1.1-1.4 1.5a7.7 7.7 0 00-2 1.3 3.9 3.9 0 00-1.7 2.1 18.3 18.3 0 00-.5 5.1m-37 25.1h-.2a19.9 19.9 0 01-1 5.2 8.3 8.3 0 01-2 3.1v.2a5.3 5.3 0 002.8-1.8 5.5 5.5 0 00.9-3.4 8.9 8.9 0 00-.2-1.1 15.1 15.1 0 00-.3-2.2zm-2-33.6v.3a18.6 18.6 0 012.3 1.8l1.6 1.6 30.8 36.7.5.5h.3l.3-.2a1.8 1.8 0 01.1-.6 3.6 3.6 0 00-.2-1.1 3.7 3.7 0 00-.6-1L238 33.8a20.2 20.2 0 00-3.9-3.9 11.9 11.9 0 00-3.6-1.7zm33-.5l-.2.3a4 4 0 012.2 1.7 17.4 17.4 0 011.5 3.7h.3a1.9 1.9 0 00.1-.8l.1-1.1a3.8 3.8 0 00-.9-2.8 5.6 5.6 0 00-3.1-1zM321.9 36.7l-.3 33.5a4.9 4.9 0 01-.3 2c-.2.5-.4.8-.7.8s-1.7-.8-2.9-2.4l-.7-.8-27.1-32a7.6 7.6 0 00-.9-.9l-.7-.4c-.3 0-.5.3-.6.7a10.6 10.6 0 00-.2 2.1v15.4a64.7 64.7 0 00.5 9.7 6.7 6.7 0 001.7 3.7 6.4 6.4 0 003.4 1.4c1.6.2 2.5.7 2.5 1.5a1.4 1.4 0 01-.3 1.1 4 4 0 01-1.5.2l-2.4-.2-4.5-.3-4.7.3-2.7.2a1.1 1.1 0 01-1-.4 2.1 2.1 0 01-.3-1.3q0-.3 1.8-1.2a6.2 6.2 0 002.6-2.7 24 24 0 001.3-5.9 61.9 61.9 0 00.6-8.8V38a23 23 0 00-.5-5.1 8.2 8.2 0 00-1.5-3.4 6.2 6.2 0 00-3.2-1.3c-1.3-.1-2-.5-2-1.2a1.6 1.6 0 01.3-1.1 1.1 1.1 0 011-.4l1.8.3 1.8.3 3.4-.3 2.6-.3c1.2 0 2.4.8 3.8 2.5l.3.4L315 55.6l1.6 1.6a1.7 1.7 0 001.1.6c.3 0 .5-.3.6-.8a7.8 7.8 0 00.3-2.4V37.8a18.8 18.8 0 00-.6-5.6 5.1 5.1 0 00-2-2.7 9.6 9.6 0 00-3.6-1.3c-1.5-.3-2.2-.8-2.2-1.4a1.3 1.3 0 01.4-1 1.5 1.5 0 011-.3l2.8.3 3.6.3 4.8-.3 3.4-.3a1.6 1.6 0 011.1.3 2 2 0 01.2.9c0 .6-.4 1.1-1.3 1.5a6.3 6.3 0 00-2 1.3 3.9 3.9 0 00-1.7 2.1 21.7 21.7 0 00-.6 5.1M285 61.8h-.2a25.2 25.2 0 01-1 5.2 9.8 9.8 0 01-2 3.1v.2a5.3 5.3 0 002.8-1.8 6.3 6.3 0 00.8-3.4 5.4 5.4 0 00-.1-1.1l-.3-2.2zm-2-33.6v.3l2.3 1.8 1.6 1.6 30.8 36.7.5.5h.3a.2.2 0 00.2-.2l.1-.6a3.7 3.7 0 00-.1-1.1 2.6 2.6 0 00-.7-1l-27.5-32.4a28 28 0 00-3.9-3.9 11.9 11.9 0 00-3.6-1.7zm33-.5l-.2.3a3.8 3.8 0 012.1 1.7 13.1 13.1 0 011.6 3.7h.3l.1-.8v-1.1a3.8 3.8 0 00-.9-2.8 5.3 5.3 0 00-3-1zM493.9 32.4L484.3 50a11.2 11.2 0 00-.5 1.3 7.4 7.4 0 00-.2 1.8V61a19.8 19.8 0 00.5 5.2 4.8 4.8 0 001.7 2.3 8.7 8.7 0 003.1.8c1.7.2 2.5.8 2.5 1.6a1.8 1.8 0 01-.4 1.1 2.3 2.3 0 01-1.3.3l-3.6-.2-5.6-.3-6.2.3-4.4.2a2.6 2.6 0 01-1.4-.3 1.2 1.2 0 01-.5-1c0-.7.7-1.2 2-1.5a8.6 8.6 0 002.9-1 4.5 4.5 0 002.1-2 13.2 13.2 0 00.6-4.8v-7.6a6.7 6.7 0 00-.8-3l-.2-.2-9.5-17.6a14.2 14.2 0 00-2-3 6.7 6.7 0 00-2.2-1.8l-1.5-.4c-1.3-.3-1.9-.7-1.9-1.4s.1-.8.4-.9a2.2 2.2 0 011.4-.3h.9c2.5.2 4.9.3 7.4.3l6.5-.3h1.1a1.7 1.7 0 011.2.3c.2.1.3.4.3.8s-.6 1-1.8 1.5-1.9 1.1-1.9 2.1a3.5 3.5 0 00.3 1.2 10.1 10.1 0 00.7 1.5l7.4 14.1.3.4a.4.4 0 00.4.2l.4-.2a1.5 1.5 0 00.4-.6l6.3-11.6.2-.3a10.1 10.1 0 001.1-3 3.2 3.2 0 00-.7-2.3 3.6 3.6 0 00-2.2-1.1 6 6 0 00-1.8-.4c-1.1-.2-1.7-.7-1.7-1.4a1 1 0 01.4-.9 1.6 1.6 0 011.1-.3h1.1l5.9.3h1.6l1.7-.2 2.7-.2a1.7 1.7 0 011 .3 1 1 0 01.3.8 1.6 1.6 0 01-1.1 1.4l-.9.5a4 4 0 00-2 1.1 12.6 12.6 0 00-2 2.8m-30.6-4.2v.2l1.7 1.6 1 1.5 9.6 18.2a16.6 16.6 0 011.4 3.7 35.1 35.1 0 01.4 5.4v2.9a16.5 16.5 0 01-.5 4.7 5.3 5.3 0 01-1.8 2.4l.2.3a5 5 0 002.9-2.3c.5-1 .8-3.2.8-6.4v-1.5a21.1 21.1 0 00-2.4-10.6l-.5-.9-8-15.2a6.8 6.8 0 00-2-2.4 7.9 7.9 0 00-2.8-1.5zm26.2-.5v.2a5.2 5.2 0 011.8 1.3 3.3 3.3 0 01.6 1.9 4.9 4.9 0 01-.1 1.2 11.3 11.3 0 01-.4 1.5h.3a9.4 9.4 0 001.2-1.8 4.5 4.5 0 00.4-1.8 2.2 2.2 0 00-.9-1.9 4.5 4.5 0 00-2.9-.5zM506.5 44.3l-2.4-14.8v-1.3a3.7 3.7 0 01.7-2.5 2.8 2.8 0 012.3-1 2.9 2.9 0 012.3.9 4 4 0 01.8 2.6v.8a4.3 4.3 0 01-.1.5l-2.3 14.8zM518 68.2l-2.1-9.5a2.4 2.4 0 00-.2-.8v-.4a1.7 1.7 0 01.3-1.2 1.3 1.3 0 011-.3q.8 0 1.5 2.1a21 21 0 001.8 4 18 18 0 005 5.8 11.1 11.1 0 006.1 2 9.2 9.2 0 006.5-2.4 8.2 8.2 0 002.5-6.3c0-3.3-3.5-6.5-10.5-9.4l-.3-.2a29.4 29.4 0 01-10.8-6.4 12.3 12.3 0 01-2.2-7.7 11.9 11.9 0 013.7-9 12.4 12.4 0 019.3-3.8 16.1 16.1 0 015.9 1.3 17 17 0 003.9 1.2 3.7 3.7 0 001.8-.4l1.1-.5c.4 0 .7.1.8.4a1.4 1.4 0 01.3 1.1 5.1 5.1 0 01-.1 1v1.3a31.5 31.5 0 00.4 4.5 20.7 20.7 0 01.5 4.2 2 2 0 01-.2.9 1.1 1.1 0 01-.8.3c-.6 0-1.2-.7-1.6-2.1a18.6 18.6 0 00-1.7-4.1 12.9 12.9 0 00-4.6-4.4 12.2 12.2 0 00-6.1-1.7 7.3 7.3 0 00-5.2 1.9 5.7 5.7 0 00-2.1 4.6 6.3 6.3 0 002 4.6c1.4 1.3 3.8 2.6 7.3 3.9l1.8.7c4.3 1.6 7.1 3.1 8.5 4.4a13.7 13.7 0 013 4.5 17.5 17.5 0 011 5.7c0 4.6-1.4 8.2-4.1 10.9s-6.3 4-10.8 4a20.9 20.9 0 01-5.6-1.1 28.8 28.8 0 00-4.7-1.2 2.3 2.3 0 01-2.1-1.8l-.2-.6m-1.3-10.3l2 9.3c.2.6.3 1 .6 1.2a1.5 1.5 0 001 .3h.3a.4.4 0 00.1-.3V68l-3.4-10.2a.6.6 0 01-.1-.4c-.1-.3-.2-.4-.4-.4h-.2a.3.3 0 00-.1.2 1 1 0 00.1.4l.1.3zm17.8-30.5v.2a13.6 13.6 0 013.9 2.7 18.3 18.3 0 013.1 4.2h.3a8.2 8.2 0 00-1.9-5 10.5 10.5 0 00-5.4-2.1zm-14.4 3l-.2-.2a13.8 13.8 0 00-1.6 3.6 10 10 0 00-.5 3.4 10.3 10.3 0 002.4 7c1.6 1.9 4.5 3.7 8.8 5.5l.6.3c8.3 3.5 12.4 7.3 12.4 11.3v.8a5 5 0 01-.2 1.2l.4.2a7.4 7.4 0 00.4-1.8 7.7 7.7 0 00.2-1.5 7.9 7.9 0 00-2.1-5.6 19.6 19.6 0 00-6.9-4.5l-2.4-1C523 45.4 518.7 41 518.7 36a13.5 13.5 0 01.4-2.9 14.8 14.8 0 011-2.7zM595.7 27.9q0 3.3 1.8 4.2c1.2.7 4.3 1 9.3 1s6.9-.8 8.6-2.5 2.6-4.4 2.6-8.3-1.4-8.4-4.3-11.2-6.7-4.3-11.4-4.3c-2.5 0-4.2.6-5.2 1.8s-1.4 3.6-1.4 7.2zm22.6 5.7a15.9 15.9 0 0111.6 5.3 17.6 17.6 0 014.4 12.2 21.9 21.9 0 01-1.8 8.7 20.8 20.8 0 01-5 7 19.5 19.5 0 01-7.9 4.2 42.4 42.4 0 01-12 1.3c-3.3 0-6.9-.1-10.8-.4l-6.5-.3-7.5.3-4.9.4a3 3 0 01-1.8-.4 2 2 0 01-.6-1.5c0-1 .9-1.8 2.5-2.6l2.1-1a7.6 7.6 0 002.9-3.5 13.7 13.7 0 001-5.8V19.1a25.4 25.4 0 00-.6-6.8 7.2 7.2 0 00-2.1-3.3 9.3 9.3 0 00-5.1-2c-2.2-.4-3.4-1.1-3.4-2.2a1.9 1.9 0 01.7-1.6 3 3 0 011.8-.5h1.6a95.1 95.1 0 0010.5.6L597 3c4.4-.3 7.8-.4 10.1-.4a26 26 0 0116.3 4.6 14.8 14.8 0 016 12.3 13.6 13.6 0 01-2.7 8.6q-2.7 3.6-8.4 5.5zm-22.6 23.8c0 4.3.7 7.1 2.2 8.5s4.3 2 8.4 2 8.7-1.3 11.5-4 4.2-6.3 4.2-10.8-1.7-8.9-5-11.7-8-4.2-14-4.2c-3.1 0-5.1.4-6 1.1s-1.3 2.7-1.3 6zM581.5 6.2a8.9 8.9 0 013.3 3.9 16.1 16.1 0 011 6.2v38.3a34.4 34.4 0 01-.8 8.6 11.2 11.2 0 01-2.9 4.6 5.9 5.9 0 004.5-3.6c.9-1.9 1.3-5.2 1.3-9.9V17c0-3.2-.5-5.6-1.5-7.3a8.1 8.1 0 00-4.9-3.5zm29.3-.3l-.3.6a16.6 16.6 0 017.2 6.4 18.9 18.9 0 012.5 9.9 14 14 0 01-.5 3.8 11.2 11.2 0 01-1.9 3.3l.5.3a11.9 11.9 0 003-4.4 13.3 13.3 0 001-5.4 14.7 14.7 0 00-3.1-9.3 14.8 14.8 0 00-8.4-5.2zm4 31.7v.5a14.6 14.6 0 016.8 5.7 15.9 15.9 0 012.5 8.9 17.8 17.8 0 01-2 8.5 17.1 17.1 0 01-5.8 6.2l.2.4a16 16 0 007.6-6.4 16.7 16.7 0 002.7-9.4 13.8 13.8 0 00-3.1-9.1 16.3 16.3 0 00-8.9-5.3zM660.1 25.6L676.9 65a10.6 10.6 0 001.7 2.8 5.1 5.1 0 002.2 1.1l1.1.5c.9.4 1.4.9 1.4 1.6s-.1.9-.3 1-.4.3-.9.3l-3.6-.3-5.2-.2c-2.8 0-5.5.2-8.2.4h-.8a.9.9 0 01-.7-.4 2 2 0 01-.2-.9c0-.5.8-1.1 2.3-1.8a3.7 3.7 0 002.4-3.4 3.6 3.6 0 00-.2-1.4 8.3 8.3 0 00-.4-1.5l-1.9-4.4a5.6 5.6 0 00-1.5-2.3c-.5-.4-1.6-.5-3.4-.5h-8.9a9.6 9.6 0 00-3.8.5 5.3 5.3 0 00-1.4 2.3l-1.8 5a7.9 7.9 0 00-.3 1.3 3.6 3.6 0 00-.2 1 3 3 0 001.1 2.3 8.2 8.2 0 003.5 1.4h.3c1.5.3 2.2.8 2.2 1.4a1.3 1.3 0 01-.3 1 1.6 1.6 0 01-1.1.3l-3.2-.3-5.3-.2-3.8.2-1.9.3a1.6 1.6 0 01-1.1-.3 1.2 1.2 0 01-.4-1q0-.9 1.5-1.5l1.3-.6a5.2 5.2 0 001.8-1.8 46.2 46.2 0 002.3-4.3l16.6-37.4a1.1 1.1 0 011-.9 1.1 1.1 0 01.7.3l.6.8m-2.8 12.8a3.6 3.6 0 00-.5-.9c-.2-.3-.3-.4-.5-.4s-.3.1-.5.3l-.5.7-4.9 11.6a1.9 1.9 0 00-.3.9 3.1 3.1 0 00-.2.8c0 .4.2.6.6.8l2.4.2h7.6a2.8 2.8 0 001.5-.3q.6-.1.6-.6l-.2-.8-.4-1.2zm-15.2 25.1a38.1 38.1 0 01-2.4 4.7 10 10 0 01-2.4 2.2l.2.2a4.9 4.9 0 003.7-1.8 8.2 8.2 0 001.1-4.6v-.6zm25.9 5.8h.1a4.6 4.6 0 001.9-1.7 4.9 4.9 0 00.6-2.5 7.5 7.5 0 00-.2-2 11.7 11.7 0 00-.6-2l-10.9-26-.4-.7-.5-.2a.5.5 0 00-.5.3.9.9 0 00-.3.6 3.9 3.9 0 00.5 1.4l.3.5 10.4 25.1a5.8 5.8 0 01.7 2.1 5.7 5.7 0 01.3 1.8 3.8 3.8 0 01-.4 1.9 3.3 3.3 0 01-1 1.4zM699.3 44.1q0 2.3.9 2.7a12.7 12.7 0 004.5.5c3.3 0 5.7-.6 7.1-1.9s2.2-3.2 2.2-6-.9-6.2-2.8-8.2a10.5 10.5 0 00-7.9-3 4.1 4.1 0 00-3.2 1.1c-.6.6-.8 2.1-.8 4.2zm14.2 4.4l1.2.9 1.1 1.8 6.7 12.4a12.8 12.8 0 002.4 3.5 3.8 3.8 0 002.4.8h1.6l.7.2a.8.8 0 01.3.7c0 .9-.8 1.7-2.3 2.5a11.3 11.3 0 01-4.8 1.1 7 7 0 01-5.4-2.6 41 41 0 01-5.8-9.3l-.5-1.3a41 41 0 00-4.4-7.8 5.1 5.1 0 00-1.6-.9l-3.2-.2c-1.1 0-1.8.1-2.2.5a2.2 2.2 0 00-.6 1.8v9.7a11.4 11.4 0 00.7 4.2 4.1 4.1 0 002.3 2.2l1.7.7c1.2.3 1.8.9 1.8 1.6a1.2 1.2 0 01-.4 1.1 1.7 1.7 0 01-1.2.3l-2.8-.2-5.1-.3-5.6.3-3.5.2a1.6 1.6 0 01-1.1-.3 1 1 0 01-.4-.9c0-.7.5-1.3 1.7-1.8l1.3-.7a5.2 5.2 0 002-2.4 9.7 9.7 0 00.6-3.8v-26a23.9 23.9 0 00-.3-4.6 6.1 6.1 0 00-1.3-2.2 5.9 5.9 0 00-3.1-1.3c-1.4-.3-2.1-.7-2.1-1.5a1.2 1.2 0 01.4-1 1.5 1.5 0 011.2-.4l1.4.2c2.6.2 5 .4 7.2.4l5.8-.3 6.4-.3c4.9 0 8.7 1.1 11.4 3.2a11.4 11.4 0 014 9.2 9.9 9.9 0 01-2.1 6.5 13.5 13.5 0 01-6.5 4.1zm-24-20.6a5.6 5.6 0 012.2 2.6 10.2 10.2 0 01.7 4.2v25.7a19.9 19.9 0 01-.6 5.8 7.7 7.7 0 01-1.9 3.1 4.1 4.1 0 003-2.4c.6-1.3.9-3.5.9-6.7V35.1a9.4 9.4 0 00-1-4.9 5.8 5.8 0 00-3.3-2.3zm19.8.3a14.5 14.5 0 014.3 4.7 11.7 11.7 0 011.5 5.8 13.1 13.1 0 01-.6 4.1 7.5 7.5 0 01-1.7 3l.2.2a7.6 7.6 0 002.7-3.2 11.6 11.6 0 001-4.7 10.1 10.1 0 00-2-6.3 10.4 10.4 0 00-5.4-3.6zm-1.7 21.6l-.2.4a3.1 3.1 0 01.9 1.1 11.8 11.8 0 011.1 1.8l5 10a22.5 22.5 0 003.8 5.7 7.9 7.9 0 004 2.5V71a9.1 9.1 0 01-2.9-2.8 36.8 36.8 0 01-3.5-5.6l-5.7-11.2a3.3 3.3 0 00-1-1.4 1.6 1.6 0 00-1.1-.3h-.5z"/>
		</g>
	</g>
</svg>
