<svg xmlns="http://www.w3.org/2000/svg" viewBox="0 0 43.6 67.1"><defs><style>.cls-1{fill:#fff;fill-rule:evenodd;}</style></defs><g id="Layer_2" data-name="Layer 2"><g id="Calque_1" data-name="Calque 1"><path class="cls-1" d="M17.7,19.5h8.2a4.2,4.2,0,0,0-8.2,0m8.1,2a4.3,4.3,0,0,1-4,2.9,4.2,4.2,0,0,1-4-2.9ZM32,62.2H11.6a19.9,19.9,0,0,0,10.2,2.9A19.9,19.9,0,0,0,32,62.2ZM6.2,57.4a24.4,24.4,0,0,0,2.7,2.9H34.7a24.4,24.4,0,0,0,2.7-2.9ZM41.5,23,22.8,40V55.4H38.7a19.2,19.2,0,0,0,2.8-10.1ZM21.8,38.2,3.3,21.5H15.9a6.1,6.1,0,0,0,11.8,0H40.4ZM2,22.9l18.8,17V55.4H4.8A20.1,20.1,0,0,1,2,45.3ZM20.8,6.7V2.1A19.7,19.7,0,0,0,2.2,19.5H7.8A14.1,14.1,0,0,1,20.8,6.7Zm0,7.7V8.6A12.2,12.2,0,0,0,9.6,19.5h6.2A6.2,6.2,0,0,1,20.8,14.4Zm2-5.8v5.8a6.2,6.2,0,0,1,5,5.1H34A12.3,12.3,0,0,0,22.8,8.6Zm0-6.5V6.7a14.2,14.2,0,0,1,13,12.8h5.6A19.7,19.7,0,0,0,22.8,2.1ZM21.8,0h0A21.9,21.9,0,0,1,43.6,21.8V45.3A21.8,21.8,0,0,1,0,45.3V21.8A21.9,21.9,0,0,1,21.8,0Z"/></g></g></svg>