<svg xmlns="http://www.w3.org/2000/svg" viewBox="0 0 145.8 238.9"><defs><style>.cls-1{fill:#2e2e2d;fill-rule:evenodd;}.cls-2{fill:#0d0d0d;}</style></defs><g id="Layer_2" data-name="Layer 2"><g id="Fond"><path class="cls-1" d="M28.1,110.5H41.2a6.8,6.8,0,0,0-6.6-5.3,6.7,6.7,0,0,0-6.5,5.3m12.9,3a6.7,6.7,0,0,1-12.7,0ZM50.8,178H18.5a30.5,30.5,0,0,0,16.1,4.5A30.8,30.8,0,0,0,50.8,178Zm-41-7.6a31.9,31.9,0,0,0,4.4,4.6H55.1a31.9,31.9,0,0,0,4.4-4.6ZM66,116,36.2,142.8v24.5H61.6a31.2,31.2,0,0,0,4.4-16ZM34.7,140,5.2,113.5H25.3a9.5,9.5,0,0,0,9.3,7.5,9.6,9.6,0,0,0,9.4-7.5H64.2ZM3.2,115.9l29.9,26.8v24.6H7.7a31.3,31.3,0,0,1-4.5-16ZM33.1,90.2V82.8A31.6,31.6,0,0,0,3.4,110.5h8.9A22.6,22.6,0,0,1,33.1,90.2Zm0,12.2V93.1a19.5,19.5,0,0,0-17.8,17.4h9.8A9.8,9.8,0,0,1,33.1,102.4Zm3.1-9.3v9.3a9.7,9.7,0,0,1,7.9,8.1H54A19.5,19.5,0,0,0,36.2,93.1Zm0-10.3v7.4a22.4,22.4,0,0,1,20.7,20.3h8.9A31.5,31.5,0,0,0,36.2,82.8Zm-1.6-3.2h0a34.7,34.7,0,0,1,34.7,34.5v37.2a34.7,34.7,0,0,1-69.3,0V114.1A34.7,34.7,0,0,1,34.6,79.6Z"/><path class="cls-1" d="M104.6,163.6h13.1a6.7,6.7,0,0,0-6.5-5.3,6.8,6.8,0,0,0-6.6,5.3m12.9,3a6.6,6.6,0,0,1-6.3,4.6,6.7,6.7,0,0,1-6.4-4.6Zm9.9,64.5H95a31.4,31.4,0,0,0,32.4,0Zm-41-7.6a37.2,37.2,0,0,0,4.3,4.6h40.9a38.1,38.1,0,0,0,4.4-4.6Zm56.2-54.4-29.9,26.8v24.5h25.4a31.3,31.3,0,0,0,4.5-16Zm-31.4,24L81.8,166.6h20a9.6,9.6,0,0,0,18.8,0h20.1ZM79.8,169l29.8,26.8v24.6H84.2a31.2,31.2,0,0,1-4.4-16Zm29.8-25.7v-7.4A31.5,31.5,0,0,0,80,163.6h8.9A22.4,22.4,0,0,1,109.6,143.3Zm0,12.2v-9.3a19.6,19.6,0,0,0-17.8,17.4h9.9A9.5,9.5,0,0,1,109.6,155.5Zm3.1-9.3v9.3a9.7,9.7,0,0,1,8,8.1h9.9A19.6,19.6,0,0,0,112.7,146.2Zm0-10.3v7.4a22.5,22.5,0,0,1,20.8,20.3h8.9A31.6,31.6,0,0,0,112.7,135.9Zm-1.5-3.2h0a34.7,34.7,0,0,1,34.6,34.5v37.2a34.7,34.7,0,0,1-69.3,0V167.2A34.7,34.7,0,0,1,111.2,132.7Z"/><path class="cls-1" d="M104.6,50.1h13.1a6.7,6.7,0,0,0-6.5-5.3,6.8,6.8,0,0,0-6.6,5.3m12.9,3a6.6,6.6,0,0,1-6.3,4.6,6.7,6.7,0,0,1-6.4-4.6Zm9.9,64.5H95a31.4,31.4,0,0,0,32.4,0Zm-41-7.6a37.2,37.2,0,0,0,4.3,4.6h40.9A38.1,38.1,0,0,0,136,110Zm56.2-54.4L112.7,82.4v24.5h25.4a31.3,31.3,0,0,0,4.5-16Zm-31.4,24L81.8,53.1h20a9.6,9.6,0,0,0,18.8,0h20.1ZM79.8,55.5l29.8,26.8v24.6H84.2a31.2,31.2,0,0,1-4.4-16Zm29.8-25.7V22.4A31.5,31.5,0,0,0,80,50.1h8.9A22.3,22.3,0,0,1,109.6,29.8Zm0,12.2V32.7A19.5,19.5,0,0,0,91.8,50.1h9.9A9.5,9.5,0,0,1,109.6,42Zm3.1-9.3V42a9.7,9.7,0,0,1,8,8.1h9.9A19.5,19.5,0,0,0,112.7,32.7Zm0-10.3v7.4a22.4,22.4,0,0,1,20.8,20.3h8.9A31.6,31.6,0,0,0,112.7,22.4Zm-1.5-3.2h0a34.6,34.6,0,0,1,34.6,34.4V90.9a34.7,34.7,0,0,1-69.3,0V53.6A34.7,34.7,0,0,1,111.2,19.2Z"/><path class="cls-2" d="M65.8,1H56.9a3.1,3.1,0,0,0-.1-1H53.9c0,.3.1.6.1,1H44.1c0-.4-.1-.7-.1-1H40.9l.3,1H28.1l.3-1H25.3a4.4,4.4,0,0,1-.2,1H15.3c0-.4.1-.7.1-1H12.5c-.1.3-.1.6-.2,1H3.4c.1-.4.1-.7.2-1H.3A34.4,34.4,0,0,0,0,4.6V41.8a34.7,34.7,0,0,0,69.3,0V4.6A34.4,34.4,0,0,0,69,0H65.7A3.1,3.1,0,0,1,65.8,1ZM41,4a6.7,6.7,0,0,1-6.4,4.6A6.7,6.7,0,0,1,28.3,4ZM25.3,4a9.5,9.5,0,0,0,9.3,7.5A9.6,9.6,0,0,0,44,4H64.2L34.7,30.5,5.2,4ZM3.2,41.8V6.4L33.1,33.2V57.8H7.7A31.3,31.3,0,0,1,3.2,41.8ZM34.6,73a30.5,30.5,0,0,1-16.1-4.5H50.8A30.8,30.8,0,0,1,34.6,73Zm20.5-7.5H14.2a38.1,38.1,0,0,1-4.4-4.6H59.5A38.1,38.1,0,0,1,55.1,65.5ZM66,41.8a31.2,31.2,0,0,1-4.4,16H36.2V33.3L66,6.5Z"/></g></g></svg>